{"glyphs":{"0":{"ha":772,"x_min":47,"x_max":725,"o":"m 235 496 q 238 722 235 628 q 257 875 242 815 q 302 963 272 935 q 386 992 332 992 q 470 966 440 992 q 515 881 500 940 q 534 728 531 822 q 538 496 538 633 q 534 271 538 365 q 515 117 531 176 q 470 28 500 57 q 386 0 440 0 q 302 28 332 0 q 257 117 272 57 q 238 271 242 176 q 235 496 235 365 m 47 496 q 49 421 47 469 q 60 315 50 372 q 90 199 69 258 q 147 92 110 140 q 243 13 185 43 q 386 -18 301 -18 q 517 10 463 -18 q 610 85 572 39 q 670 189 647 132 q 705 303 693 246 q 721 412 717 361 q 725 496 725 463 q 724 570 725 522 q 713 676 722 618 q 683 793 703 733 q 625 901 663 853 q 529 980 588 949 q 386 1011 471 1011 q 255 982 310 1011 q 163 907 200 953 q 102 803 125 861 q 67 688 79 746 q 51 580 56 631 q 47 496 47 529 z "},"1":{"ha":772,"x_min":135,"x_max":625,"o":"m 625 0 l 625 19 l 497 19 l 497 1011 l 442 1011 q 365 945 400 972 q 297 896 331 918 q 224 851 263 874 q 135 800 185 829 l 146 782 q 236 833 190 807 q 328 885 282 860 l 328 19 l 197 19 l 197 0 l 625 0 z "},"2":{"ha":772,"x_min":42,"x_max":675,"o":"m 513 144 l 207 144 l 413 347 l 513 450 q 587 540 558 497 q 631 621 615 583 q 653 689 647 658 q 660 742 660 719 q 644 842 660 793 q 592 928 628 890 q 501 988 557 965 q 368 1011 446 1011 q 235 990 290 1011 q 147 938 181 968 q 97 873 113 907 q 81 815 81 839 q 90 774 81 789 q 113 753 100 760 q 141 746 126 747 q 165 744 156 744 q 221 758 197 744 q 244 806 244 771 q 243 821 244 810 q 240 844 242 832 q 238 868 239 857 q 236 883 236 879 q 247 939 236 918 q 274 972 257 960 q 310 988 290 983 q 350 992 331 992 q 415 973 390 992 q 451 920 439 954 q 468 840 464 886 q 472 736 472 793 q 451 539 472 621 q 382 382 431 457 q 252 224 333 307 q 50 26 171 142 l 42 19 l 42 0 l 675 0 l 675 285 l 656 285 q 634 203 653 232 q 591 162 615 175 q 544 147 567 149 q 513 144 522 144 z "},"3":{"ha":772,"x_min":28,"x_max":692,"o":"m 50 204 l 28 197 q 69 95 42 136 q 133 29 96 54 q 217 -7 171 4 q 315 -18 264 -18 q 485 11 414 -18 q 601 85 556 40 q 669 184 647 129 q 692 289 692 239 q 664 405 692 357 q 590 485 636 453 q 485 538 544 518 q 361 568 425 557 l 361 571 q 477 604 422 586 q 573 649 532 622 q 638 715 614 676 q 663 807 663 753 q 651 868 663 833 q 607 935 639 903 q 518 989 575 967 q 371 1011 461 1011 q 172 963 246 1011 q 99 832 99 915 q 124 779 99 793 q 175 765 149 765 q 203 766 188 765 q 231 773 218 767 q 253 792 244 779 q 263 831 263 806 q 261 847 263 835 q 258 872 260 858 q 253 898 256 886 q 251 915 251 910 q 281 974 251 957 q 349 992 310 992 q 426 972 399 992 q 465 923 453 951 q 480 865 478 894 q 482 817 482 836 q 464 694 482 739 q 421 624 446 649 q 369 592 396 600 q 326 579 343 583 q 234 558 276 569 q 146 517 192 546 l 157 497 q 238 538 197 522 q 324 553 278 553 q 428 528 392 553 q 482 467 465 504 q 501 385 499 429 q 504 303 504 342 q 497 188 504 243 q 468 92 490 133 q 405 25 446 50 q 296 0 364 0 q 188 22 232 0 q 114 76 143 44 q 69 142 85 107 q 50 204 54 178 z "},"4":{"ha":772,"x_min":43,"x_max":729,"o":"m 436 596 l 436 240 l 69 240 q 141 378 99 307 q 231 517 183 449 q 329 649 279 586 q 426 766 379 713 q 511 859 472 819 q 575 919 550 899 q 596 941 588 931 q 604 967 604 951 q 597 990 604 982 q 577 1003 589 999 q 551 1010 565 1008 q 525 1011 538 1011 q 486 1008 504 1011 q 447 992 468 1006 q 401 947 426 978 q 343 861 376 917 q 253 697 300 789 q 165 513 207 604 q 90 342 122 421 q 43 221 57 264 l 436 221 l 436 19 l 314 19 l 314 0 l 729 0 l 729 19 l 606 19 l 606 221 l 729 221 l 729 240 l 606 240 l 606 596 l 436 596 z "},"5":{"ha":772,"x_min":64,"x_max":675,"o":"m 201 1001 l 108 428 l 126 428 q 151 477 136 449 q 188 531 165 506 q 242 574 210 556 q 319 592 274 592 q 384 583 354 592 q 437 544 414 574 q 473 460 460 515 q 486 314 486 406 q 469 133 486 197 q 426 40 451 69 q 369 6 400 11 q 310 0 338 0 q 284 3 299 0 q 257 17 269 7 q 235 43 244 26 q 226 86 226 60 q 228 99 226 90 q 230 119 229 108 q 232 138 231 129 q 233 151 233 147 q 217 194 233 175 q 149 213 201 213 q 128 211 142 213 q 99 202 114 210 q 74 179 85 194 q 64 135 64 164 q 83 76 64 104 q 135 28 101 49 q 216 -6 169 7 q 317 -18 263 -18 q 469 14 403 -18 q 581 96 535 46 q 650 207 626 146 q 674 325 674 268 q 648 444 674 390 q 578 535 622 497 q 477 594 535 574 q 354 615 419 615 q 276 608 308 615 q 221 587 244 600 q 181 556 197 574 q 147 518 164 539 l 144 521 l 194 825 q 242 806 215 817 q 297 786 268 796 q 353 770 325 776 q 406 764 382 764 q 476 774 446 764 q 535 811 506 785 q 597 881 564 838 q 675 989 629 924 l 657 997 q 605 942 632 961 q 553 913 578 922 q 509 901 529 903 q 479 900 489 900 q 398 912 436 900 q 328 940 360 924 q 275 974 297 957 q 243 1001 253 992 l 201 1001 z "},"6":{"ha":772,"x_min":44,"x_max":728,"o":"m 540 321 q 528 146 540 210 q 497 49 517 82 q 449 8 476 17 q 390 0 422 0 q 337 8 365 0 q 284 49 308 15 q 244 155 260 83 q 228 353 228 226 q 230 422 228 394 q 237 469 232 450 q 249 500 242 488 q 265 525 256 513 q 335 578 297 567 q 401 589 374 589 q 509 522 478 589 q 540 321 540 454 m 44 417 q 72 231 44 313 q 146 94 99 150 q 258 10 193 39 q 396 -18 322 -18 q 518 6 458 -18 q 624 74 578 31 q 699 174 671 117 q 728 296 728 231 q 702 418 728 361 q 633 517 676 475 q 532 584 589 560 q 411 608 475 608 q 340 599 369 608 q 289 576 310 590 q 255 547 268 563 q 232 518 242 531 l 229 521 q 240 613 233 563 q 258 716 246 664 q 287 818 269 768 q 331 906 304 868 q 394 968 357 944 q 481 992 431 992 q 517 984 504 992 q 537 967 531 976 q 545 947 543 957 q 547 933 547 938 q 535 888 547 914 q 524 838 524 863 q 540 793 524 810 q 606 776 557 776 q 689 858 689 776 q 672 927 689 899 q 626 974 654 956 q 561 1002 597 993 q 488 1011 525 1011 q 312 963 393 1011 q 172 832 231 914 q 78 642 113 750 q 44 417 44 535 z "},"7":{"ha":772,"x_min":101,"x_max":688,"o":"m 101 989 l 101 714 l 121 714 q 128 748 122 729 q 144 783 133 767 q 172 809 154 799 q 214 819 189 819 l 646 819 q 611 691 636 767 q 546 531 586 615 q 448 363 506 447 q 314 207 390 278 l 193 94 q 173 69 181 82 q 165 36 165 56 q 194 -7 165 4 q 257 -18 224 -18 q 328 6 296 -18 q 394 82 361 31 q 463 215 426 133 q 544 411 499 297 q 606 583 579 497 q 651 745 633 668 q 678 885 669 822 q 688 989 688 949 l 101 989 z "},"8":{"ha":772,"x_min":54,"x_max":707,"o":"m 226 824 q 238 889 226 858 q 271 942 250 919 q 322 978 292 965 q 386 992 351 992 q 462 969 435 992 q 501 915 489 946 q 517 851 514 883 q 519 800 519 819 q 514 703 519 740 q 499 645 508 667 q 480 613 490 624 q 460 593 469 601 q 364 638 407 617 q 290 685 321 660 q 243 744 260 711 q 226 824 226 778 m 296 488 l 414 425 q 478 386 450 406 q 524 342 506 367 q 553 285 543 317 q 563 208 563 253 q 553 141 563 178 q 523 73 544 104 q 464 21 501 42 q 369 0 426 0 q 304 12 335 0 q 252 52 274 24 q 218 127 231 81 q 206 243 206 174 q 208 307 206 272 q 219 375 210 342 q 246 438 228 408 q 296 488 264 468 m 54 238 q 80 135 54 182 q 149 53 106 88 q 249 1 192 19 q 369 -18 306 -18 q 508 12 446 -18 q 615 88 571 42 q 683 192 658 135 q 707 303 707 249 q 649 466 707 400 q 478 583 590 532 q 619 681 574 628 q 664 801 664 733 q 643 884 664 846 q 587 951 622 922 q 504 995 551 979 q 403 1011 457 1011 q 281 992 338 1011 q 183 938 225 972 q 118 853 142 903 q 94 746 94 804 q 109 654 94 692 q 148 588 124 617 q 205 539 172 560 q 275 497 238 518 q 190 452 229 475 q 119 399 150 429 q 72 331 89 369 q 54 238 54 292 z "},"9":{"ha":772,"x_min":33,"x_max":717,"o":"m 221 671 q 233 840 221 776 q 267 937 246 903 q 315 981 288 971 q 371 992 342 992 q 424 984 396 992 q 475 942 451 976 q 514 838 499 908 q 529 639 529 767 q 527 573 529 604 q 522 529 525 542 q 466 436 510 469 q 360 403 422 403 q 255 465 289 403 q 221 671 221 526 m 33 696 q 59 574 33 631 q 128 474 85 517 q 229 408 172 432 q 350 383 286 383 q 422 392 392 383 q 472 415 451 401 q 504 445 492 429 q 525 474 517 461 l 528 474 q 519 285 528 372 q 488 135 511 199 q 424 36 464 72 q 318 0 383 0 q 290 1 306 0 q 262 8 275 1 q 240 26 249 14 q 232 63 232 39 q 235 83 232 71 q 240 110 238 96 q 246 137 243 124 q 249 158 249 150 q 242 189 249 178 q 224 206 235 200 q 200 214 213 213 q 176 215 188 215 q 109 194 133 215 q 85 129 85 174 q 94 84 85 110 q 128 35 103 58 q 198 -3 153 13 q 314 -18 243 -18 q 497 29 421 -18 q 622 157 572 76 q 694 345 671 238 q 717 575 717 453 q 690 760 717 679 q 615 897 663 842 q 503 982 568 953 q 365 1011 439 1011 q 243 986 303 1011 q 137 918 183 961 q 62 818 90 875 q 33 696 33 761 z "},"\u0000":{"ha":0,"x_min":0,"x_max":0,"o":""}," ":{"ha":386,"x_min":0,"x_max":0,"o":""},"!":{"ha":411,"x_min":107,"x_max":304,"o":"m 107 85 q 136 16 107 44 q 206 -12 165 -12 q 275 16 246 -12 q 304 85 304 44 q 275 154 304 125 q 206 183 246 183 q 136 154 165 183 q 107 85 107 125 m 125 831 l 192 279 l 219 279 l 286 831 q 293 886 290 865 q 296 917 296 907 q 271 985 296 958 q 206 1011 246 1011 q 140 985 165 1011 q 115 917 115 958 q 118 886 115 907 q 125 831 121 865 z "},"\"":{"ha":514,"x_min":100,"x_max":414,"o":"m 311 885 l 347 589 l 372 589 l 408 885 q 414 943 414 913 q 397 997 414 983 q 360 1011 379 1011 q 323 997 340 1011 q 306 943 306 983 q 311 885 306 913 m 106 885 l 142 589 l 167 589 l 203 885 q 208 943 208 913 q 191 997 208 983 q 154 1011 174 1011 q 117 997 135 1011 q 100 943 100 983 q 106 885 100 913 z "},"#":{"ha":772,"x_min":-4,"x_max":776,"o":"m 218 354 l 318 629 l 553 629 l 453 354 l 218 354 m 89 0 l 208 329 l 443 329 l 324 0 l 353 0 l 472 329 l 657 329 l 667 354 l 482 354 l 582 629 l 767 629 l 776 654 l 592 654 l 713 989 l 683 989 l 563 654 l 328 654 l 449 989 l 419 989 l 299 654 l 114 654 l 104 629 l 289 629 l 189 354 l 4 354 l -4 329 l 179 329 l 60 0 l 89 0 z "},"$":{"ha":875,"x_min":78,"x_max":797,"o":"m 411 1093 l 411 1011 q 284 982 342 1007 q 185 917 226 957 q 120 828 143 878 q 97 725 97 778 q 125 600 97 650 q 197 517 153 550 q 298 463 242 483 q 411 425 354 442 l 411 0 q 369 1 392 0 q 320 11 346 3 q 267 36 294 19 q 210 82 239 53 q 160 142 181 110 q 127 206 140 175 q 107 265 114 238 q 97 308 100 292 l 78 308 l 78 0 l 99 0 q 114 26 106 19 q 142 32 122 32 q 183 24 156 32 q 248 6 211 15 q 327 -11 285 -3 q 411 -19 369 -19 l 411 -117 l 435 -117 l 435 -19 q 583 13 517 -15 q 697 87 650 42 q 771 191 744 132 q 797 317 797 250 q 764 449 797 397 q 678 535 731 501 q 562 591 626 569 q 435 632 497 613 l 435 992 q 545 966 501 990 q 618 904 589 942 q 665 819 647 867 q 700 725 683 772 l 719 725 l 719 989 l 696 989 q 683 966 689 972 q 657 960 676 960 q 620 968 640 960 q 574 985 600 976 q 515 1003 549 994 q 435 1011 481 1011 l 435 1093 l 411 1093 m 411 992 l 411 638 q 328 665 367 650 q 262 702 290 681 q 217 752 233 724 q 201 818 201 781 q 215 877 201 847 q 256 931 229 907 q 322 972 282 956 q 411 992 361 989 m 435 0 l 435 419 q 526 390 483 406 q 600 350 568 374 q 651 294 632 326 q 669 214 669 261 q 659 152 669 189 q 622 81 649 115 q 550 24 596 47 q 435 0 504 0 z "},"%":{"ha":1081,"x_min":63,"x_max":1018,"o":"m 301 564 q 389 581 346 564 q 465 627 432 597 q 519 698 499 657 q 540 788 540 739 q 519 877 540 836 q 465 948 499 918 q 389 994 432 978 q 301 1011 346 1011 q 214 994 257 1011 q 138 948 171 978 q 83 877 104 918 q 63 788 63 836 q 83 698 63 739 q 138 627 104 657 q 214 581 171 597 q 301 564 257 564 m 779 -18 q 867 -1 824 -18 q 943 44 910 15 q 997 115 976 74 q 1018 204 1018 156 q 997 294 1018 253 q 943 365 976 335 q 867 411 910 394 q 779 428 824 428 q 692 411 735 428 q 615 365 649 394 q 561 294 582 335 q 540 204 540 253 q 561 115 540 156 q 615 44 582 74 q 692 -1 649 15 q 779 -18 735 -18 m 301 583 q 241 599 263 583 q 209 641 219 614 q 197 706 199 668 q 196 788 196 743 q 197 869 196 832 q 209 934 199 907 q 241 976 219 961 q 301 992 263 992 q 363 976 342 992 q 394 934 383 961 q 406 869 404 907 q 407 788 407 832 q 406 706 407 743 q 394 641 404 668 q 363 599 383 614 q 301 583 342 583 m 788 1011 l 265 -6 l 293 -18 l 815 999 l 788 1011 m 779 0 q 719 15 740 0 q 687 58 697 31 q 675 122 676 85 q 674 204 674 160 q 675 286 674 249 q 687 351 676 324 q 719 393 697 378 q 779 408 740 408 q 840 393 819 408 q 872 351 861 378 q 883 286 882 324 q 885 204 885 249 q 883 122 885 160 q 872 58 882 85 q 840 15 861 31 q 779 0 819 0 z "},"&":{"ha":1106,"x_min":101,"x_max":994,"o":"m 646 867 q 634 806 646 832 q 605 759 622 779 q 568 725 588 739 q 535 701 549 711 q 509 748 522 722 q 485 799 496 774 q 469 849 475 825 q 463 894 463 874 q 475 951 463 931 q 503 980 488 971 q 534 990 519 989 q 553 992 549 992 q 595 981 578 992 q 624 951 613 969 q 640 911 635 933 q 646 867 646 889 m 408 544 l 617 140 q 631 112 624 125 q 653 79 639 99 q 588 34 618 51 q 521 17 558 17 q 455 40 488 17 q 394 101 422 64 q 341 183 365 138 q 299 275 317 229 q 272 362 282 321 q 263 428 263 403 q 269 485 263 461 q 291 530 276 510 q 327 568 306 550 q 378 608 349 586 q 390 583 382 601 q 408 544 399 564 m 776 228 l 543 685 q 641 781 618 735 q 664 869 664 828 q 653 935 664 908 q 625 979 643 963 q 583 1003 607 996 q 533 1011 560 1011 q 457 992 494 1011 q 390 942 419 974 q 344 872 361 911 q 326 789 326 832 q 338 717 326 753 q 371 624 349 682 q 279 563 326 596 q 192 490 232 531 q 127 398 153 449 q 101 283 101 347 q 115 196 101 247 q 165 97 128 144 q 267 15 201 49 q 438 -19 332 -19 q 515 -12 482 -19 q 574 6 549 -6 q 620 31 600 17 q 661 63 640 46 q 719 5 686 29 q 814 -19 753 -19 q 917 6 881 -19 q 972 64 954 32 q 992 124 989 96 q 994 158 994 153 q 993 172 994 165 q 990 181 992 178 l 971 181 q 974 168 974 174 q 975 156 975 163 q 973 133 975 150 q 963 99 971 117 q 943 67 956 81 q 910 53 931 53 q 871 68 885 53 q 851 93 857 83 l 788 206 q 822 277 808 238 q 842 358 835 317 q 853 437 850 399 q 858 503 857 475 q 867 595 861 563 q 887 645 874 628 q 921 669 900 663 q 974 681 942 675 l 974 700 l 693 700 l 693 681 q 756 674 729 681 q 801 647 783 667 q 828 592 819 628 q 838 499 838 557 q 817 324 838 393 q 776 228 796 256 z "},"'":{"ha":386,"x_min":139,"x_max":247,"o":"m 144 885 l 181 589 l 206 589 l 242 885 q 247 943 247 913 q 230 997 247 983 q 193 1011 213 1011 q 156 997 174 1011 q 139 943 139 983 q 144 885 139 913 z "},"(":{"ha":360,"x_min":99,"x_max":338,"o":"m 315 -396 l 338 -382 q 174 -46 222 -214 q 126 300 126 122 q 174 647 126 478 q 338 983 222 815 l 315 997 q 271 931 306 985 q 198 788 236 878 q 129 574 160 697 q 99 300 99 451 q 129 26 99 150 q 198 -187 160 -97 q 271 -330 236 -276 q 315 -396 306 -383 z "},")":{"ha":360,"x_min":22,"x_max":261,"o":"m 22 -382 l 44 -396 q 89 -330 54 -383 q 162 -187 124 -276 q 231 26 200 -97 q 261 300 261 150 q 231 574 261 451 q 162 788 200 697 q 89 931 124 878 q 44 997 54 985 l 22 983 q 185 647 138 815 q 233 300 233 478 q 185 -46 233 122 q 22 -382 138 -214 z "},"*":{"ha":669,"x_min":65,"x_max":603,"o":"m 67 826 q 85 777 67 799 q 150 750 103 756 q 235 738 183 747 q 328 713 286 729 q 260 695 293 703 q 183 683 228 688 q 140 677 161 681 q 103 666 119 674 q 76 643 86 658 q 65 603 65 628 q 87 551 65 574 q 142 529 108 529 q 165 533 154 529 q 186 546 175 536 q 210 572 197 556 q 242 615 224 589 q 278 658 257 636 q 331 710 299 679 q 328 684 329 694 q 323 661 326 674 q 313 632 319 649 q 293 586 306 615 q 276 544 282 560 q 266 517 269 528 q 262 501 263 507 q 261 488 261 494 q 283 440 261 460 q 335 419 306 419 q 386 440 364 419 q 408 488 408 460 q 408 501 408 494 q 403 517 407 507 q 394 544 400 528 q 376 586 388 560 q 357 632 364 615 q 346 661 350 649 q 340 684 342 674 q 338 710 339 694 q 390 658 369 679 q 426 615 411 636 q 458 572 444 589 q 482 546 471 556 q 503 533 493 536 q 526 529 514 529 q 581 551 560 529 q 603 603 603 574 q 592 643 603 628 q 565 666 582 658 q 528 677 549 674 q 485 683 507 681 q 408 695 440 688 q 340 713 375 703 l 340 715 q 434 738 382 729 q 519 750 486 747 q 585 777 567 756 q 603 826 603 799 q 579 881 603 860 q 532 901 556 901 q 483 885 501 901 q 445 844 464 869 q 403 787 426 819 q 338 721 379 754 q 340 747 339 736 q 346 769 342 757 q 357 799 350 782 q 376 844 364 815 q 394 887 388 871 q 403 913 400 903 q 408 930 407 924 q 408 943 408 936 q 386 991 408 971 q 335 1011 364 1011 q 283 991 306 1011 q 261 943 261 971 q 262 930 261 936 q 266 913 263 924 q 276 887 269 903 q 293 844 282 871 q 313 798 306 815 q 323 769 319 781 q 328 747 326 757 q 332 721 329 736 q 267 787 290 754 q 224 844 243 819 q 188 885 206 869 q 138 901 169 901 q 90 881 114 901 q 67 826 67 860 z "},"+":{"ha":824,"x_min":78,"x_max":744,"o":"m 397 321 l 397 0 l 425 0 l 425 321 l 744 321 l 744 346 l 425 346 l 425 667 l 397 667 l 397 346 l 78 346 l 78 321 l 397 321 z "},",":{"ha":386,"x_min":76,"x_max":310,"o":"m 103 -232 l 113 -250 q 176 -208 142 -232 q 241 -151 211 -183 q 290 -76 271 -118 q 310 18 310 -35 q 272 140 310 97 q 182 183 235 183 q 145 178 164 183 q 111 160 126 172 q 86 130 96 149 q 76 85 76 111 q 86 40 76 58 q 110 10 96 21 q 141 -7 124 -1 q 172 -12 158 -12 q 203 -10 188 -12 q 231 0 218 -7 q 244 -19 238 -6 q 251 -56 251 -33 q 211 -145 251 -106 q 103 -232 171 -185 z "},"-":{"ha":514,"x_min":126,"x_max":388,"o":"m 126 367 l 126 231 l 388 231 l 388 367 l 126 367 z "},".":{"ha":386,"x_min":94,"x_max":292,"o":"m 94 85 q 124 16 94 44 q 193 -12 153 -12 q 263 16 233 -12 q 292 85 292 44 q 263 154 292 125 q 193 183 233 183 q 124 154 153 183 q 94 85 94 125 z "},"/":{"ha":411,"x_min":4,"x_max":407,"o":"m 379 997 l 4 0 l 32 -7 l 407 989 l 379 997 z "},":":{"ha":386,"x_min":94,"x_max":292,"o":"m 94 85 q 124 16 94 44 q 193 -12 153 -12 q 263 16 233 -12 q 292 85 292 44 q 263 154 292 125 q 193 183 233 183 q 124 154 153 183 q 94 85 94 125 m 94 517 q 124 447 94 476 q 193 418 153 418 q 263 447 233 418 q 292 517 292 476 q 263 586 292 557 q 193 615 233 615 q 124 586 153 615 q 94 517 94 557 z "},";":{"ha":386,"x_min":76,"x_max":310,"o":"m 94 517 q 124 447 94 476 q 193 418 153 418 q 263 447 233 418 q 292 517 292 476 q 263 586 292 557 q 193 615 233 615 q 124 586 153 615 q 94 517 94 557 m 103 -232 l 113 -250 q 176 -208 142 -232 q 241 -151 211 -183 q 290 -76 271 -118 q 310 18 310 -35 q 272 140 310 97 q 182 183 235 183 q 145 178 164 183 q 111 160 126 172 q 86 130 96 149 q 76 85 76 111 q 86 40 76 58 q 110 10 96 21 q 141 -7 124 -1 q 172 -12 158 -12 q 203 -10 188 -12 q 231 0 218 -7 q 244 -19 238 -6 q 251 -56 251 -33 q 211 -145 251 -106 q 103 -232 171 -185 z "},"<":{"ha":824,"x_min":17,"x_max":806,"o":"m 806 0 l 806 28 l 63 333 l 806 639 l 806 667 l 17 339 l 17 328 l 806 0 z "},"=":{"ha":824,"x_min":78,"x_max":744,"o":"m 78 226 l 78 201 l 744 201 l 744 226 l 78 226 m 78 465 l 78 440 l 744 440 l 744 465 l 78 465 z "},">":{"ha":824,"x_min":17,"x_max":806,"o":"m 17 667 l 17 639 l 761 333 l 17 28 l 17 0 l 806 328 l 806 339 l 17 667 z "},"?":{"ha":617,"x_min":83,"x_max":543,"o":"m 83 85 q 113 16 83 44 q 182 -12 142 -12 q 251 16 222 -12 q 281 85 281 44 q 251 154 281 125 q 182 183 222 183 q 113 154 142 183 q 83 85 83 125 m 171 593 l 171 267 l 194 267 l 194 551 l 197 551 q 234 520 208 536 q 308 504 260 504 q 376 518 336 504 q 453 562 415 532 q 517 640 490 592 q 543 758 543 689 q 527 856 543 810 q 480 936 511 901 q 401 991 449 971 q 293 1011 354 1011 q 223 1002 258 1011 q 158 975 188 993 q 111 928 129 957 q 93 861 93 900 q 117 810 93 825 q 168 796 140 796 q 226 809 208 796 q 244 858 244 822 q 240 883 244 874 q 230 901 235 893 q 220 918 225 910 q 215 939 215 926 q 233 975 215 958 q 288 992 250 992 q 329 981 313 992 q 356 946 346 971 q 369 880 365 921 q 374 778 374 839 q 356 592 374 656 q 283 528 338 528 q 232 548 253 528 q 194 593 211 568 l 171 593 z "},"@":{"ha":1157,"x_min":60,"x_max":1097,"o":"m 742 617 q 735 565 742 596 q 719 500 729 533 q 699 435 710 467 q 681 385 689 404 q 657 335 669 358 q 628 293 644 311 q 592 265 613 275 q 543 254 571 254 q 490 271 508 254 q 462 309 471 288 q 451 353 453 331 q 450 385 450 375 q 466 501 450 443 q 509 607 482 560 q 574 684 536 654 q 653 714 611 714 q 682 710 667 714 q 710 694 697 706 q 733 665 724 683 q 742 617 742 646 m 910 733 l 792 733 l 767 646 q 758 674 764 657 q 738 708 751 692 q 699 737 724 725 q 635 749 675 749 q 526 722 581 749 q 426 649 471 694 q 354 542 382 603 q 326 411 326 481 q 348 315 326 353 q 399 256 369 278 q 463 226 429 235 q 519 218 496 218 q 590 231 561 218 q 640 264 619 244 q 674 305 661 283 q 696 342 688 326 q 701 308 697 329 q 717 267 704 288 q 753 233 729 247 q 818 218 776 218 q 921 251 871 218 q 1010 337 971 283 q 1074 460 1050 390 q 1097 603 1097 529 q 1065 763 1097 689 q 972 893 1032 838 q 826 980 911 949 q 638 1011 742 1011 q 414 969 519 1011 q 230 853 308 926 q 106 681 151 779 q 60 469 60 582 q 102 269 60 360 q 217 115 144 179 q 388 17 290 51 q 596 -18 486 -18 q 807 16 706 -18 q 996 117 908 50 l 978 140 q 789 39 886 69 q 604 8 692 8 q 406 44 496 8 q 251 141 315 79 q 150 286 186 203 q 114 467 114 369 q 152 656 114 564 q 260 822 190 749 q 426 939 329 894 q 642 983 524 983 q 822 952 743 983 q 956 868 901 921 q 1040 746 1011 815 q 1068 600 1068 676 q 1049 477 1068 536 q 999 373 1029 418 q 933 301 969 328 q 864 275 897 275 q 818 292 833 275 q 803 336 803 308 q 807 374 803 354 q 815 410 811 394 l 910 733 z "},"A":{"ha":1054,"x_min":-35,"x_max":1090,"o":"m 421 790 l 585 411 l 265 411 l 421 790 m -35 19 l -35 0 l 228 0 l 228 19 l 104 19 l 258 392 l 592 392 l 753 19 l 624 19 l 624 0 l 1090 0 l 1090 19 l 971 19 l 533 1028 l 496 1028 l 82 19 l -35 19 z "},"B":{"ha":951,"x_min":49,"x_max":876,"o":"m 378 540 l 378 969 q 408 972 393 971 q 439 974 424 974 q 526 960 492 974 q 579 917 560 946 q 607 845 599 889 q 615 740 615 801 q 610 667 615 703 q 588 602 606 631 q 533 557 569 574 q 435 540 497 540 l 378 540 m 378 19 l 378 521 l 458 521 q 566 492 528 521 q 623 425 604 464 q 646 347 642 386 q 650 283 650 307 q 637 147 650 199 q 599 65 624 94 q 538 26 574 36 q 458 15 503 15 q 378 19 415 15 m 176 969 l 176 19 l 49 19 l 49 0 l 258 0 q 374 -1 317 0 q 490 -3 432 -3 q 610 9 543 -3 q 735 51 676 21 q 835 135 794 82 q 876 268 876 188 q 844 390 876 342 q 764 469 813 439 q 657 513 715 499 q 544 531 599 526 l 544 536 q 626 554 578 540 q 718 594 674 568 q 794 662 763 621 q 825 763 825 703 q 793 874 825 829 q 712 944 761 918 q 603 982 663 971 q 489 993 543 993 q 374 991 431 993 q 258 989 317 989 l 49 989 l 49 969 l 176 969 z "},"C":{"ha":1003,"x_min":71,"x_max":921,"o":"m 913 706 l 913 989 l 890 989 q 876 965 886 969 q 847 960 867 960 q 803 968 829 960 q 744 985 776 976 q 673 1003 711 994 q 590 1011 635 1011 q 409 974 501 1011 q 242 869 317 938 q 119 706 167 801 q 71 492 71 610 q 114 290 71 383 q 228 128 157 197 q 394 20 300 60 q 590 -19 489 -19 q 675 -12 635 -19 q 749 5 715 -4 q 810 22 783 14 q 853 29 836 29 q 882 23 872 29 q 899 0 892 17 l 921 0 l 921 294 l 899 294 q 860 185 886 238 q 794 91 833 132 q 705 25 756 50 q 592 0 654 0 q 458 22 514 0 q 366 100 401 44 q 314 250 331 156 q 297 489 297 344 q 306 691 297 599 q 344 850 314 783 q 432 954 374 917 q 592 992 490 992 q 717 965 667 992 q 802 895 768 938 q 858 802 836 853 q 894 706 879 751 l 913 706 z "},"D":{"ha":1132,"x_min":44,"x_max":1065,"o":"m 374 19 l 374 969 q 410 973 388 972 q 460 974 432 974 q 655 939 581 974 q 770 840 729 904 q 825 684 811 775 q 839 481 839 593 q 835 383 839 435 q 817 278 831 331 q 778 179 804 226 q 709 95 753 132 q 601 37 665 58 q 447 15 538 15 q 374 19 414 15 m 172 969 l 172 19 l 44 19 l 44 0 l 172 0 q 330 -1 251 0 q 488 -3 408 -3 q 605 6 542 -3 q 733 35 668 14 q 857 93 797 57 q 963 185 917 129 q 1038 317 1010 240 q 1065 494 1065 393 q 1038 674 1065 597 q 963 806 1010 750 q 854 897 915 861 q 725 955 793 933 q 588 985 657 976 q 456 993 518 993 q 314 991 385 993 q 172 989 243 989 l 44 989 l 44 969 l 172 969 z "},"E":{"ha":1003,"x_min":51,"x_max":939,"o":"m 51 989 l 51 969 l 179 969 l 179 19 l 51 19 l 51 0 l 939 0 l 939 304 l 921 304 q 881 192 907 244 q 815 101 854 140 q 724 41 775 63 q 608 19 672 19 l 381 19 l 381 521 l 474 521 q 555 504 522 521 q 610 459 588 488 q 645 393 632 431 q 668 315 658 356 l 686 315 l 686 747 l 668 747 q 643 662 658 700 q 604 597 628 624 q 545 555 581 569 q 458 540 510 540 l 381 540 l 381 969 l 601 969 q 717 944 669 969 q 794 883 764 918 q 840 812 824 849 q 864 751 857 775 l 882 751 l 882 989 l 51 989 z "},"F":{"ha":951,"x_min":51,"x_max":872,"o":"m 179 969 l 179 19 l 51 19 l 51 0 l 510 0 l 510 19 l 381 19 l 381 503 l 474 503 q 555 486 522 503 q 610 441 588 469 q 645 375 632 413 q 668 297 658 338 l 686 297 l 686 729 l 668 729 q 643 644 658 682 q 604 578 628 606 q 545 537 581 551 q 458 522 510 522 l 381 522 l 381 969 l 590 969 q 687 954 646 969 q 758 910 728 939 q 812 842 789 882 q 854 751 835 801 l 872 751 l 872 989 l 51 989 l 51 969 l 179 969 z "},"G":{"ha":1081,"x_min":65,"x_max":1063,"o":"m 908 706 l 908 989 l 885 989 q 869 966 878 972 q 842 960 861 960 q 797 968 824 960 q 738 985 771 976 q 665 1003 704 994 q 585 1011 626 1011 q 403 974 496 1011 q 236 869 311 938 q 113 706 161 801 q 65 492 65 610 q 108 290 65 383 q 223 128 151 197 q 389 20 294 60 q 585 -19 483 -19 q 694 -6 649 -19 q 774 22 739 7 q 838 51 808 38 q 901 64 868 64 q 931 56 918 64 q 947 32 944 49 l 972 32 l 972 350 l 1063 350 l 1063 369 l 633 369 l 633 350 l 776 350 l 776 297 q 771 179 776 233 q 745 85 765 125 q 688 23 725 46 q 586 0 650 0 q 452 23 508 0 q 360 99 396 46 q 308 238 325 151 q 292 450 292 324 l 292 571 q 301 724 292 649 q 342 859 311 800 q 432 955 374 918 q 586 992 490 992 q 779 917 707 993 q 888 706 851 842 l 908 706 z "},"H":{"ha":1157,"x_min":49,"x_max":1108,"o":"m 49 989 l 49 969 l 176 969 l 176 19 l 49 19 l 49 0 l 506 0 l 506 19 l 378 19 l 378 494 l 779 494 l 779 19 l 651 19 l 651 0 l 1108 0 l 1108 19 l 981 19 l 981 969 l 1108 969 l 1108 989 l 651 989 l 651 969 l 779 969 l 779 514 l 378 514 l 378 969 l 506 969 l 506 989 l 49 989 z "},"I":{"ha":565,"x_min":54,"x_max":511,"o":"m 54 989 l 54 969 l 182 969 l 182 19 l 54 19 l 54 0 l 511 0 l 511 19 l 383 19 l 383 969 l 511 969 l 511 989 l 54 989 z "},"J":{"ha":694,"x_min":31,"x_max":656,"o":"m 528 283 l 528 969 l 656 969 l 656 989 l 199 989 l 199 969 l 326 969 l 326 90 q 326 62 326 78 q 319 32 325 46 q 302 9 314 18 q 267 0 290 0 q 251 1 261 0 q 231 6 240 1 q 213 22 221 11 q 206 54 206 33 q 208 74 206 60 q 215 104 211 88 q 222 136 219 121 q 225 161 225 151 q 216 197 225 183 q 194 217 207 210 q 166 226 181 224 q 140 228 151 228 q 76 215 99 228 q 44 185 54 201 q 32 152 33 168 q 31 129 31 136 q 51 56 31 85 q 104 10 72 26 q 175 -13 136 -7 q 250 -19 214 -19 q 409 15 353 -19 q 492 98 465 50 q 523 197 518 146 q 528 283 528 249 z "},"K":{"ha":1081,"x_min":58,"x_max":1107,"o":"m 58 989 l 58 969 l 186 969 l 186 19 l 58 19 l 58 0 l 515 0 l 515 19 l 388 19 l 388 506 l 399 506 l 768 19 l 643 19 l 643 0 l 1107 0 l 1107 19 l 1021 19 l 540 644 l 850 969 l 961 969 l 961 989 l 683 989 l 683 969 l 824 969 l 399 525 l 388 525 l 388 969 l 515 969 l 515 989 l 58 989 z "},"L":{"ha":1003,"x_min":64,"x_max":944,"o":"m 64 989 l 64 969 l 192 969 l 192 19 l 64 19 l 64 0 l 944 0 l 944 314 l 926 314 q 876 177 908 233 q 802 85 843 121 q 715 35 761 50 q 622 19 668 19 l 393 19 l 393 969 l 521 969 l 521 989 l 64 989 z "},"M":{"ha":1286,"x_min":47,"x_max":1239,"o":"m 47 989 l 47 969 l 175 969 l 175 19 l 47 19 l 47 0 l 325 0 l 325 19 l 197 19 l 197 969 l 200 969 l 543 0 l 565 0 l 907 969 l 910 969 l 910 19 l 783 19 l 783 0 l 1239 0 l 1239 19 l 1111 19 l 1111 969 l 1239 969 l 1239 989 l 892 989 l 647 297 l 644 297 l 404 989 l 47 989 z "},"N":{"ha":1029,"x_min":47,"x_max":990,"o":"m 47 989 l 47 969 l 175 969 l 175 19 l 47 19 l 47 0 l 325 0 l 325 19 l 197 19 l 197 890 l 200 890 l 825 0 l 863 0 l 863 969 l 990 969 l 990 989 l 713 989 l 713 969 l 840 969 l 840 328 l 838 328 l 375 989 l 47 989 z "},"O":{"ha":1157,"x_min":58,"x_max":1099,"o":"m 285 492 q 294 693 285 601 q 335 851 304 785 q 424 955 365 918 q 579 992 482 992 q 742 952 683 992 q 831 845 801 913 q 866 690 860 778 q 872 504 872 601 q 865 303 872 396 q 828 144 857 211 q 740 38 799 76 q 579 0 682 0 q 445 22 501 0 q 353 101 389 44 q 301 252 318 157 q 285 492 285 347 m 58 492 q 101 290 58 383 q 216 128 144 197 q 382 20 288 60 q 579 -19 476 -19 q 777 22 683 -19 q 942 133 871 63 q 1056 298 1014 204 q 1099 496 1099 392 q 1053 710 1099 615 q 935 872 1008 806 q 769 975 863 939 q 579 1011 675 1011 q 397 974 490 1011 q 229 869 304 938 q 106 706 154 801 q 58 492 58 610 z "},"P":{"ha":900,"x_min":47,"x_max":869,"o":"m 376 490 l 376 969 q 401 972 388 971 q 431 974 415 974 q 597 910 551 974 q 643 725 643 846 q 590 544 643 597 q 419 490 538 490 l 376 490 m 376 19 l 376 471 l 433 471 q 626 492 544 471 q 763 548 708 513 q 843 631 817 583 q 869 733 869 679 q 828 865 869 814 q 726 944 788 915 q 593 983 665 972 q 458 993 521 993 q 317 991 388 993 q 175 989 246 989 l 47 989 l 47 969 l 175 969 l 175 19 l 47 19 l 47 0 l 504 0 l 504 19 l 376 19 z "},"Q":{"ha":1157,"x_min":58,"x_max":1099,"o":"m 285 492 q 294 693 285 601 q 335 851 304 785 q 424 955 365 918 q 579 992 482 992 q 742 952 683 992 q 831 845 801 913 q 866 690 860 778 q 872 504 872 601 q 865 303 872 396 q 828 144 857 211 q 740 38 799 76 q 579 0 682 0 q 445 22 501 0 q 353 101 389 44 q 301 252 318 157 q 285 492 285 347 m 1021 -296 l 1021 -276 q 963 -273 985 -276 q 927 -260 942 -269 q 902 -234 913 -250 q 878 -193 892 -218 q 816 -114 851 -146 q 711 -75 781 -82 q 640 -67 668 -71 q 592 -56 613 -62 q 559 -40 572 -50 q 532 -15 546 -31 q 579 -19 553 -19 q 777 22 683 -19 q 942 133 871 63 q 1056 298 1014 204 q 1099 496 1099 392 q 1053 710 1099 615 q 935 872 1008 806 q 769 975 863 939 q 579 1011 675 1011 q 397 974 490 1011 q 229 869 304 938 q 106 706 154 801 q 58 492 58 610 q 93 310 58 396 q 188 157 128 224 q 328 46 249 90 q 499 -11 408 1 q 539 -59 517 -31 q 581 -119 561 -87 q 642 -206 611 -174 q 719 -256 672 -237 q 837 -282 765 -274 q 1021 -296 908 -290 z "},"R":{"ha":1003,"x_min":49,"x_max":1033,"o":"m 378 540 l 378 969 q 408 972 393 971 q 439 974 424 974 q 526 960 492 974 q 579 917 560 946 q 607 845 599 889 q 615 740 615 801 q 610 667 615 703 q 588 602 606 631 q 533 557 569 574 q 435 540 497 540 l 378 540 m 176 969 l 176 19 l 49 19 l 49 0 l 506 0 l 506 19 l 378 19 l 378 521 l 469 521 q 571 496 535 521 q 625 429 607 471 q 648 334 643 388 q 656 224 653 281 q 662 144 657 186 q 688 65 667 101 q 751 5 708 29 q 871 -19 794 -19 q 933 -15 908 -19 q 976 -1 958 -10 q 1006 19 993 7 q 1033 44 1019 31 l 1019 57 q 988 27 1006 43 q 942 11 969 11 q 903 21 917 11 q 883 60 890 31 q 871 142 875 89 q 860 282 867 194 q 831 401 854 357 q 769 471 808 446 q 677 508 731 496 q 556 533 624 521 l 556 540 q 651 558 603 544 q 740 596 700 571 q 804 660 779 621 q 829 756 829 700 q 797 871 829 825 q 714 944 764 917 q 603 982 664 971 q 489 993 543 993 q 374 991 431 993 q 258 989 317 989 l 49 989 l 49 969 l 176 969 z "},"S":{"ha":900,"x_min":88,"x_max":808,"o":"m 88 308 l 88 0 l 110 0 q 125 26 117 19 q 153 32 133 32 q 195 24 167 32 q 260 6 224 15 q 340 -11 297 -3 q 425 -19 382 -19 q 581 8 511 -19 q 702 81 651 35 q 781 188 753 126 q 808 317 808 249 q 783 433 808 386 q 715 514 757 481 q 620 569 674 547 q 510 608 567 590 q 401 643 454 626 q 306 683 347 660 q 238 738 264 706 q 213 818 213 769 q 228 881 213 850 q 272 936 243 911 q 344 976 301 961 q 442 992 386 992 q 554 968 510 992 q 628 906 599 944 q 676 821 657 868 q 711 725 694 774 l 729 725 l 729 989 l 707 989 q 694 966 700 972 q 668 960 688 960 q 631 968 651 960 q 585 985 611 976 q 524 1003 558 994 q 443 1011 489 1011 q 309 987 371 1011 q 203 923 247 963 q 133 832 158 883 q 108 725 108 781 q 133 600 108 650 q 197 516 157 550 q 289 460 238 482 q 394 423 340 439 q 500 392 449 407 q 592 354 551 376 q 656 299 632 332 q 681 214 681 265 q 669 149 681 186 q 631 79 658 113 q 557 23 604 46 q 436 0 510 0 q 391 1 415 0 q 340 9 367 1 q 283 33 313 17 q 221 82 253 50 q 172 142 192 110 q 138 206 151 175 q 118 265 125 238 q 108 308 111 292 l 88 308 z "},"T":{"ha":979,"x_min":54,"x_max":925,"o":"m 389 969 l 389 19 l 261 19 l 261 0 l 718 0 l 718 19 l 590 19 l 590 969 l 640 969 q 732 959 692 969 q 804 923 772 949 q 861 851 836 897 q 907 735 886 806 l 925 735 l 925 989 l 54 989 l 54 735 l 72 735 q 118 851 93 806 q 175 923 143 897 q 247 959 207 949 q 339 969 288 969 l 389 969 z "},"U":{"ha":1081,"x_min":44,"x_max":1050,"o":"m 44 989 l 44 969 l 174 969 l 174 321 q 188 197 174 258 q 245 88 201 136 q 371 10 289 40 q 588 -19 453 -19 q 728 -1 671 -19 q 822 48 785 18 q 879 115 860 78 q 908 190 899 153 q 919 262 918 228 q 921 318 921 296 l 921 969 l 1050 969 l 1050 989 l 772 989 l 772 969 l 899 969 l 899 317 q 897 265 899 296 q 888 198 896 233 q 861 127 879 163 q 810 63 843 92 q 726 17 776 35 q 600 0 675 0 q 478 30 524 0 q 410 108 433 60 q 381 219 388 157 q 375 346 375 281 l 375 969 l 503 969 l 503 989 l 44 989 z "},"V":{"ha":1003,"x_min":-24,"x_max":1028,"o":"m -24 989 l -24 969 l 93 969 l 476 -37 l 517 -37 l 908 969 l 1028 969 l 1028 989 l 763 989 l 763 969 l 888 969 l 594 217 l 307 969 l 440 969 l 440 989 l -24 989 z "},"W":{"ha":1440,"x_min":-15,"x_max":1457,"o":"m -15 989 l -15 969 l 99 969 l 443 -37 l 483 -37 l 717 619 l 719 619 l 947 -37 l 988 -37 l 1344 969 l 1457 969 l 1457 989 l 1201 989 l 1201 969 l 1321 969 l 1064 236 l 1061 236 l 810 969 l 939 969 l 939 989 l 524 989 l 524 969 l 599 969 l 707 651 l 561 238 l 558 238 l 308 969 l 410 969 l 410 989 l -15 989 z "},"X":{"ha":1054,"x_min":14,"x_max":1054,"o":"m 14 989 l 14 969 l 125 969 l 436 458 l 165 19 l 51 19 l 51 0 l 315 0 l 315 19 l 190 19 l 449 438 l 701 19 l 578 19 l 578 0 l 1054 0 l 1054 19 l 939 19 l 581 606 l 808 969 l 917 969 l 917 989 l 665 989 l 665 969 l 785 969 l 568 625 l 365 969 l 479 969 l 479 989 l 14 989 z "},"Y":{"ha":978,"x_min":-21,"x_max":1000,"o":"m -21 989 l -21 969 l 88 969 l 410 407 l 410 19 l 282 19 l 282 0 l 740 0 l 740 19 l 611 19 l 611 460 l 879 969 l 1000 969 l 1000 989 l 735 989 l 735 969 l 856 969 l 600 485 l 317 969 l 426 969 l 426 989 l -21 989 z "},"Z":{"ha":951,"x_min":47,"x_max":882,"o":"m 606 969 l 47 0 l 882 0 l 882 314 l 864 314 q 813 177 846 233 q 737 85 781 121 q 642 35 693 50 q 535 19 590 19 l 283 19 l 844 989 l 125 989 l 125 757 l 143 757 q 188 844 164 806 q 242 911 211 883 q 315 954 274 939 q 413 969 357 969 l 606 969 z "},"[":{"ha":360,"x_min":135,"x_max":304,"o":"m 135 989 l 135 -387 l 304 -387 l 304 -360 l 163 -360 l 163 961 l 304 961 l 304 989 l 135 989 z "},"\\":{"ha":411,"x_min":4,"x_max":407,"o":"m 407 0 l 32 997 l 4 989 l 379 -7 l 407 0 z "},"]":{"ha":360,"x_min":56,"x_max":225,"o":"m 225 -387 l 225 989 l 56 989 l 56 961 l 197 961 l 197 -360 l 56 -360 l 56 -387 l 225 -387 z "},"^":{"ha":824,"x_min":165,"x_max":657,"o":"m 406 989 l 165 424 l 196 424 l 411 936 l 628 424 l 657 424 l 418 989 l 406 989 z "},"_":{"ha":694,"x_min":0,"x_max":694,"o":"m 0 -103 l 0 -146 l 694 -146 l 694 -103 l 0 -103 z "},"`":{"ha":386,"x_min":26,"x_max":253,"o":"m 253 735 l 131 979 q 112 1008 124 994 q 72 1022 100 1022 q 44 1012 61 1022 q 26 981 26 1001 q 28 964 26 975 q 39 943 31 953 l 235 735 l 253 735 z "},"a":{"ha":721,"x_min":58,"x_max":704,"o":"m 424 344 l 424 161 q 415 92 424 121 q 393 47 407 64 q 362 21 379 29 q 326 13 344 13 q 276 27 294 13 q 249 63 258 42 q 238 106 240 83 q 236 144 236 128 q 249 213 236 186 q 283 257 263 239 q 331 287 304 275 q 383 311 357 299 q 410 328 403 321 q 421 344 418 336 l 424 344 m 704 22 l 692 35 q 669 15 681 22 q 639 8 657 8 q 601 28 608 8 q 593 75 593 49 l 593 419 q 573 516 593 478 q 519 576 553 554 q 438 607 485 599 q 339 615 392 615 q 251 606 293 615 q 175 577 208 596 q 122 530 142 558 q 101 465 101 501 q 109 428 101 442 q 128 406 117 414 q 153 397 139 399 q 182 394 168 394 q 206 395 192 394 q 234 401 221 396 q 257 419 247 407 q 267 451 267 431 q 265 467 267 456 q 263 490 264 478 q 260 513 261 503 q 258 528 258 524 q 282 581 258 567 q 338 596 306 596 q 406 565 388 596 q 424 497 424 535 l 424 413 q 416 369 424 386 q 389 340 408 353 q 334 315 369 326 q 242 286 299 303 q 174 263 207 275 q 116 233 142 251 q 74 187 90 214 q 58 119 58 160 q 76 53 58 81 q 124 11 94 26 q 188 -11 153 -4 q 256 -18 222 -18 q 368 1 329 -18 q 429 76 407 21 l 432 76 q 474 7 440 32 q 579 -18 508 -18 q 648 -12 611 -18 q 704 22 685 -7 z "},"b":{"ha":824,"x_min":43,"x_max":771,"o":"m 304 297 q 309 396 304 343 q 329 493 314 449 q 375 567 344 538 q 457 596 406 596 q 517 581 493 596 q 556 531 540 565 q 577 438 571 496 q 583 297 583 381 q 580 174 583 229 q 565 81 576 119 q 530 21 553 42 q 468 0 507 0 q 377 30 410 0 q 328 105 344 60 q 308 202 311 150 q 304 297 304 254 m 135 982 l 135 19 l 43 19 l 43 0 l 301 0 l 301 103 l 304 103 q 366 13 326 44 q 468 -18 406 -18 q 592 8 536 -18 q 687 78 647 35 q 749 179 726 122 q 771 299 771 236 q 753 403 771 347 q 699 506 736 458 q 606 584 663 553 q 468 615 549 615 q 367 586 406 615 q 307 499 328 557 l 304 499 l 304 1001 l 43 1001 l 43 982 l 135 982 z "},"c":{"ha":668,"x_min":49,"x_max":638,"o":"m 49 299 q 69 176 49 228 q 122 90 89 125 q 193 33 154 54 q 270 1 232 13 q 341 -15 308 -11 q 392 -18 374 -18 q 502 0 458 -18 q 574 44 546 18 q 616 99 601 69 q 638 154 631 129 l 618 161 q 603 122 615 149 q 568 67 592 94 q 506 20 544 40 q 410 0 467 0 q 315 28 350 0 q 263 100 281 56 q 240 199 244 144 q 236 307 236 253 q 241 417 236 365 q 262 509 246 469 q 307 572 278 549 q 386 596 336 596 q 447 580 422 596 q 471 536 471 564 q 467 517 471 531 q 460 488 464 503 q 453 458 457 472 q 450 439 450 444 q 477 390 450 401 q 536 378 504 378 q 603 397 579 378 q 626 461 626 415 q 609 524 626 496 q 560 573 592 553 q 486 604 529 593 q 390 615 443 615 q 244 585 307 615 q 137 508 181 554 q 71 406 93 461 q 49 299 49 350 z "},"d":{"ha":824,"x_min":53,"x_max":781,"o":"m 519 297 q 516 202 519 254 q 496 105 513 150 q 447 30 479 60 q 356 0 414 0 q 294 21 317 0 q 259 81 271 42 q 244 174 247 119 q 240 297 240 229 q 247 438 240 381 q 268 531 253 496 q 308 581 283 565 q 367 596 332 596 q 449 567 418 596 q 494 493 479 538 q 515 396 510 449 q 519 297 519 343 m 689 19 l 689 1001 l 425 1001 l 425 982 l 519 982 l 519 499 l 517 499 q 457 586 496 557 q 356 615 418 615 q 218 584 275 615 q 124 506 161 553 q 70 403 88 458 q 53 299 53 347 q 75 179 53 236 q 137 78 97 122 q 232 8 176 35 q 356 -18 288 -18 q 458 13 418 -18 q 519 103 497 44 l 522 103 l 522 0 l 781 0 l 781 19 l 689 19 z "},"e":{"ha":694,"x_min":49,"x_max":646,"o":"m 458 368 l 236 368 q 241 444 238 404 q 257 517 244 483 q 295 574 269 551 q 368 596 321 596 q 420 581 401 596 q 447 543 439 565 q 457 499 456 521 q 458 461 458 476 l 458 368 m 236 349 l 646 349 q 621 470 646 419 q 557 553 596 521 q 469 600 518 585 q 372 615 421 615 q 245 588 304 615 q 142 517 186 561 q 74 417 99 474 q 49 300 49 360 q 75 166 49 225 q 148 66 101 107 q 257 3 194 25 q 392 -18 319 -18 q 496 -1 453 -18 q 568 42 539 17 q 614 98 597 68 q 638 154 631 128 l 618 161 q 605 122 617 149 q 569 69 593 96 q 506 21 544 42 q 413 0 468 0 q 315 26 350 0 q 263 94 281 53 q 240 185 244 135 q 236 286 236 236 l 236 349 z "},"f":{"ha":489,"x_min":53,"x_max":594,"o":"m 53 596 l 53 576 l 144 576 l 144 19 l 53 19 l 53 0 l 421 0 l 421 19 l 314 19 l 314 576 l 429 576 l 429 596 l 314 596 l 314 811 q 315 880 314 847 q 324 938 317 913 q 347 977 331 963 q 393 992 364 992 q 435 980 417 992 q 453 943 453 968 q 451 929 453 939 q 448 908 450 919 q 444 885 446 896 q 442 871 442 875 q 515 800 442 800 q 571 822 547 800 q 594 876 594 844 q 579 938 594 913 q 539 980 564 964 q 483 1003 514 996 q 421 1011 453 1011 q 304 993 351 1011 q 226 944 257 975 q 179 872 196 913 q 155 785 163 831 q 146 690 147 739 q 144 596 144 642 l 53 596 z "},"g":{"ha":746,"x_min":53,"x_max":764,"o":"m 194 -217 q 217 -128 194 -161 q 282 -61 240 -94 l 426 -61 q 472 -67 447 -61 q 518 -87 497 -72 q 553 -128 539 -103 q 567 -196 567 -154 q 550 -272 567 -237 q 506 -332 533 -307 q 443 -371 479 -357 q 367 -385 407 -385 q 281 -368 314 -385 q 228 -326 247 -351 q 201 -271 208 -300 q 194 -217 194 -242 m 356 232 q 311 238 332 232 q 276 263 290 243 q 253 322 261 283 q 244 426 244 361 q 249 489 244 458 q 265 543 253 519 q 299 581 276 567 q 356 596 321 596 q 414 582 393 596 q 446 543 435 568 q 460 484 457 518 q 463 410 463 450 q 455 317 463 353 q 433 263 447 282 q 400 238 419 244 q 356 232 381 232 m 397 99 l 244 99 q 169 115 197 99 q 142 167 142 132 q 149 201 142 182 q 196 246 156 219 q 267 224 224 235 q 365 213 310 213 q 482 230 435 213 q 559 275 529 247 q 602 337 589 303 q 615 406 615 371 q 596 492 615 463 q 560 540 576 522 q 599 566 588 560 q 618 572 610 572 q 636 563 633 572 q 642 533 639 553 q 645 519 643 528 q 653 502 647 510 q 672 489 660 494 q 703 483 683 483 q 747 499 731 483 q 764 543 764 515 q 744 595 764 575 q 683 615 724 615 q 610 599 638 615 q 547 551 582 583 q 470 596 515 576 q 363 615 425 615 q 249 599 300 615 q 164 553 199 582 q 110 487 129 525 q 92 406 92 449 q 101 352 92 375 q 123 312 110 329 q 151 281 136 294 q 179 258 167 268 q 110 208 136 235 q 72 158 85 182 q 56 115 60 133 q 53 90 53 97 q 74 18 53 47 q 125 -28 94 -11 q 191 -51 156 -44 q 254 -58 226 -58 l 254 -61 q 190 -85 222 -69 q 130 -122 157 -100 q 86 -172 103 -143 q 69 -239 69 -201 q 78 -287 69 -258 q 114 -342 86 -315 q 194 -389 142 -369 q 333 -408 246 -408 q 472 -383 411 -408 q 575 -318 532 -358 q 640 -226 618 -278 q 663 -121 663 -175 q 640 -15 663 -57 q 582 53 618 28 q 498 88 546 78 q 397 99 450 99 z "},"h":{"ha":875,"x_min":51,"x_max":831,"o":"m 51 19 l 51 0 l 400 0 l 400 19 l 313 19 l 313 317 q 326 428 313 381 q 363 507 340 475 q 417 555 386 539 q 481 571 447 571 q 544 544 521 571 q 568 458 568 517 l 568 19 l 482 19 l 482 0 l 831 0 l 831 19 l 738 19 l 738 411 q 687 556 738 503 q 544 608 636 608 q 441 590 482 608 q 374 548 400 572 q 334 499 347 524 q 315 463 321 475 l 313 463 l 313 1001 l 51 1001 l 51 982 l 143 982 l 143 19 l 51 19 z "},"i":{"ha":438,"x_min":50,"x_max":406,"o":"m 129 894 q 158 825 129 854 q 228 796 188 796 q 297 825 268 796 q 326 894 326 854 q 297 964 326 935 q 228 993 268 993 q 158 964 188 993 q 129 894 129 935 m 50 596 l 50 576 l 143 576 l 143 19 l 50 19 l 50 0 l 406 0 l 406 19 l 313 19 l 313 596 l 50 596 z "},"j":{"ha":463,"x_min":-68,"x_max":349,"o":"m 151 894 q 181 825 151 854 q 250 796 210 796 q 319 825 290 796 q 349 894 349 854 q 319 964 349 935 q 250 993 290 993 q 181 964 210 993 q 151 894 151 935 m 165 576 l 165 -293 q 153 -362 165 -347 q 115 -378 140 -378 q 76 -362 82 -378 q 71 -333 71 -347 q 76 -298 71 -318 q 82 -262 82 -278 q 63 -217 82 -233 q 8 -201 43 -201 q -44 -218 -21 -201 q -68 -279 -68 -235 q -20 -366 -68 -335 q 103 -397 28 -397 q 213 -372 168 -397 q 284 -300 257 -346 q 323 -192 311 -254 q 335 -58 335 -131 l 335 596 l 72 596 l 72 576 l 165 576 z "},"k":{"ha":824,"x_min":49,"x_max":819,"o":"m 49 1001 l 49 982 l 140 982 l 140 19 l 49 19 l 49 0 l 396 0 l 396 19 l 310 19 l 310 319 l 317 319 l 551 19 l 451 19 l 451 0 l 819 0 l 819 19 l 765 19 l 447 429 l 603 576 l 692 576 l 692 596 l 474 596 l 474 576 l 575 576 l 317 339 l 310 339 l 310 1001 l 49 1001 z "},"l":{"ha":438,"x_min":50,"x_max":406,"o":"m 50 1001 l 50 982 l 143 982 l 143 19 l 50 19 l 50 0 l 406 0 l 406 19 l 313 19 l 313 1001 l 50 1001 z "},"m":{"ha":1235,"x_min":58,"x_max":1197,"o":"m 58 596 l 58 576 l 150 576 l 150 19 l 58 19 l 58 0 l 401 0 l 401 19 l 319 19 l 319 358 q 322 417 319 393 q 328 460 324 442 q 342 494 333 479 q 361 522 350 508 q 458 571 403 571 q 517 547 490 571 q 543 461 543 522 l 543 19 l 460 19 l 460 0 l 794 0 l 794 19 l 713 19 l 713 429 q 727 494 713 467 q 763 538 742 521 q 806 563 783 554 q 843 571 828 571 q 915 540 893 571 q 936 450 936 508 l 936 19 l 854 19 l 854 0 l 1197 0 l 1197 19 l 1106 19 l 1106 399 q 1102 460 1106 424 q 1079 528 1099 496 q 1017 585 1060 561 q 894 608 974 608 q 856 605 879 608 q 806 590 832 601 q 753 556 779 578 q 707 497 728 535 q 683 536 696 517 q 648 572 669 556 q 594 598 626 588 q 513 608 561 608 q 434 596 467 608 q 378 566 401 583 q 342 530 356 549 q 319 497 328 511 l 317 497 l 317 596 l 58 596 z "},"n":{"ha":875,"x_min":58,"x_max":838,"o":"m 58 19 l 58 0 l 407 0 l 407 19 l 319 19 l 319 317 q 333 428 319 381 q 370 507 347 475 q 424 555 393 539 q 488 571 454 571 q 551 544 528 571 q 575 458 575 517 l 575 19 l 489 19 l 489 0 l 838 0 l 838 19 l 744 19 l 744 411 q 694 556 744 503 q 551 608 643 608 q 447 590 489 608 q 379 546 406 571 q 339 495 353 521 q 319 457 325 469 l 317 457 l 317 596 l 58 596 l 58 576 l 150 576 l 150 19 l 58 19 z "},"o":{"ha":772,"x_min":47,"x_max":725,"o":"m 386 0 q 301 26 332 0 q 256 93 271 51 q 238 189 242 135 q 235 299 235 243 q 238 408 235 354 q 256 503 242 461 q 301 570 271 544 q 386 596 332 596 q 471 570 440 596 q 516 503 501 544 q 534 408 531 461 q 538 299 538 354 q 534 189 538 243 q 516 93 531 135 q 471 26 501 51 q 386 0 440 0 m 386 615 q 252 590 314 615 q 144 521 190 564 q 73 420 99 478 q 47 299 47 363 q 73 176 47 233 q 144 75 99 118 q 252 7 190 32 q 386 -18 314 -18 q 520 7 458 -18 q 628 75 582 32 q 699 176 674 118 q 725 299 725 233 q 699 420 725 363 q 628 521 674 478 q 520 590 582 564 q 386 615 458 615 z "},"p":{"ha":824,"x_min":43,"x_max":771,"o":"m 304 297 q 309 396 304 343 q 329 493 314 449 q 375 567 344 538 q 457 596 406 596 q 517 581 493 596 q 556 531 540 565 q 577 438 571 496 q 583 297 583 381 q 580 174 583 229 q 565 81 576 119 q 530 21 553 42 q 468 0 507 0 q 377 30 410 0 q 328 105 344 60 q 308 202 311 150 q 304 297 304 254 m 135 576 l 135 -368 l 43 -368 l 43 -387 l 399 -387 l 399 -368 l 304 -368 l 304 100 l 307 100 q 365 17 326 51 q 468 -18 404 -18 q 592 8 536 -18 q 687 78 647 35 q 749 179 726 122 q 771 299 771 236 q 753 403 771 347 q 699 506 736 458 q 606 584 663 553 q 468 615 549 615 q 304 493 347 615 l 301 493 l 301 596 l 43 596 l 43 576 l 135 576 z "},"q":{"ha":824,"x_min":53,"x_max":781,"o":"m 519 297 q 516 202 519 254 q 496 105 513 150 q 447 30 479 60 q 356 0 414 0 q 294 21 317 0 q 259 81 271 42 q 244 174 247 119 q 240 297 240 229 q 247 438 240 381 q 268 531 253 496 q 308 581 283 565 q 367 596 332 596 q 449 567 418 596 q 494 493 479 538 q 515 396 510 449 q 519 297 519 343 m 689 -368 l 689 576 l 781 576 l 781 596 l 522 596 l 522 493 l 519 493 q 356 615 476 615 q 218 584 275 615 q 124 506 161 553 q 70 403 88 458 q 53 299 53 347 q 75 179 53 236 q 137 78 97 122 q 232 8 176 35 q 356 -18 288 -18 q 458 17 419 -18 q 517 100 497 51 l 519 100 l 519 -368 l 425 -368 l 425 -387 l 781 -387 l 781 -368 l 689 -368 z "},"r":{"ha":617,"x_min":57,"x_max":626,"o":"m 57 596 l 57 576 l 147 576 l 147 19 l 57 19 l 57 0 l 426 0 l 426 19 l 317 19 l 317 375 q 330 455 317 419 q 361 515 343 490 q 400 553 379 540 q 435 567 421 567 q 453 562 447 567 q 463 551 460 557 q 466 539 465 544 q 467 533 467 533 q 465 522 467 532 q 462 501 464 513 q 458 478 460 489 q 457 464 457 468 q 483 415 457 428 q 542 401 510 401 q 606 425 586 401 q 626 490 626 449 q 590 577 626 546 q 496 608 554 608 q 384 570 426 608 q 317 479 342 532 l 314 479 l 314 596 l 57 596 z "},"s":{"ha":592,"x_min":61,"x_max":538,"o":"m 61 201 l 61 0 l 81 0 q 90 15 85 11 q 106 19 94 19 q 140 14 118 19 q 190 1 163 8 q 246 -12 217 -7 q 300 -18 275 -18 q 389 -4 346 -18 q 465 35 432 10 q 517 98 497 61 q 538 181 538 135 q 499 290 538 247 q 385 360 460 333 l 267 400 q 211 426 232 413 q 181 452 190 439 q 168 478 171 465 q 165 500 165 490 q 203 572 165 547 q 288 596 242 596 q 360 583 331 596 q 409 547 389 569 q 444 493 429 524 q 472 429 458 463 l 490 429 l 490 599 l 471 599 q 464 586 468 592 q 444 581 460 581 q 422 586 436 581 q 388 598 407 592 q 347 610 369 604 q 297 615 324 615 q 205 599 247 615 q 133 556 163 583 q 86 493 103 529 q 69 417 69 457 q 82 352 69 379 q 113 306 94 325 q 154 274 132 286 q 196 256 176 263 l 308 214 q 367 187 346 200 q 400 160 389 174 q 415 133 411 146 q 418 107 418 119 q 403 45 418 67 q 369 13 389 24 q 328 1 349 3 q 294 0 307 0 q 213 17 246 0 q 156 63 179 35 q 115 126 132 90 q 81 201 97 163 l 61 201 z "},"t":{"ha":514,"x_min":47,"x_max":519,"o":"m 140 775 l 140 596 l 47 596 l 47 576 l 140 576 l 140 149 q 143 94 140 124 q 165 40 146 65 q 223 -1 183 15 q 335 -18 263 -18 q 390 -13 361 -18 q 445 7 419 -8 q 491 51 471 22 q 519 126 511 79 l 499 131 q 484 88 493 110 q 461 48 475 65 q 428 19 447 31 q 383 8 410 8 q 345 17 360 8 q 323 40 331 25 q 313 72 315 54 q 310 111 310 90 l 310 576 l 472 576 l 472 596 l 310 596 l 310 775 q 267 761 289 767 q 225 756 246 756 q 183 761 204 756 q 140 775 161 767 z "},"u":{"ha":849,"x_min":38,"x_max":799,"o":"m 38 596 l 38 576 l 131 576 l 131 175 q 182 31 131 74 q 331 -11 233 -11 q 393 -3 361 -11 q 453 20 425 4 q 504 59 482 36 q 538 113 526 82 l 540 113 l 540 0 l 799 0 l 799 19 l 707 19 l 707 596 l 446 596 l 446 576 l 538 576 l 538 218 q 527 146 538 181 q 498 85 517 111 q 453 44 479 60 q 394 29 426 29 q 321 66 342 29 q 300 156 300 103 l 300 596 l 38 596 z "},"v":{"ha":643,"x_min":-18,"x_max":654,"o":"m -18 596 l -18 576 l 57 576 l 333 -37 l 344 -37 l 590 576 l 654 576 l 654 596 l 460 596 l 460 576 l 567 576 l 415 192 l 244 576 l 344 576 l 344 596 l -18 596 z "},"w":{"ha":1029,"x_min":-7,"x_max":1031,"o":"m 75 576 l 317 -37 l 326 -37 l 519 482 l 725 -37 l 735 -37 l 963 576 l 1031 576 l 1031 596 l 843 596 l 843 576 l 940 576 l 807 215 l 664 576 l 757 576 l 757 596 l 410 596 l 410 576 l 481 576 l 508 511 l 399 215 l 256 576 l 346 576 l 346 596 l -7 596 l -7 576 l 75 576 z "},"x":{"ha":694,"x_min":4,"x_max":690,"o":"m 4 596 l 4 576 l 75 576 l 282 253 l 114 19 l 21 19 l 21 0 l 247 0 l 247 19 l 140 19 l 294 235 l 432 19 l 336 19 l 336 0 l 690 0 l 690 19 l 633 19 l 415 364 l 568 576 l 646 576 l 646 596 l 450 596 l 450 576 l 543 576 l 401 382 l 283 576 l 368 576 l 368 596 l 4 596 z "},"y":{"ha":668,"x_min":-44,"x_max":678,"o":"m 415 175 l 246 576 l 343 576 l 343 596 l -10 596 l -10 576 l 64 576 l 325 -49 l 265 -197 q 242 -253 256 -222 q 212 -310 229 -283 q 173 -356 194 -337 q 126 -374 151 -374 q 107 -366 115 -374 q 99 -343 99 -358 q 108 -307 99 -322 q 117 -267 117 -292 q 93 -223 117 -237 q 43 -208 69 -208 q -19 -226 7 -208 q -44 -285 -44 -244 q -5 -367 -44 -337 q 97 -397 35 -397 q 190 -368 156 -397 q 253 -276 225 -339 q 312 -138 281 -217 q 384 43 343 -60 q 481 278 425 146 q 614 576 536 410 l 678 576 l 678 596 l 476 596 l 476 576 l 592 576 l 415 175 z "},"z":{"ha":643,"x_min":47,"x_max":606,"o":"m 385 576 l 47 0 l 590 0 l 606 192 l 590 192 q 567 130 579 161 q 537 74 556 99 q 490 35 518 50 q 418 19 461 19 l 249 19 l 585 596 l 89 596 l 68 431 l 83 431 q 115 494 100 467 q 151 540 131 522 q 197 567 171 558 q 261 576 224 576 l 385 576 z "},"{":{"ha":514,"x_min":47,"x_max":468,"o":"m 468 964 l 468 989 q 438 986 456 988 q 399 981 419 985 q 358 967 379 976 q 318 943 336 958 q 271 892 288 919 q 247 831 254 864 q 238 758 239 797 q 236 669 236 718 l 236 521 q 229 435 236 471 q 202 375 222 400 q 145 333 182 350 q 47 304 108 317 l 47 296 q 145 267 108 283 q 202 225 182 250 q 229 165 222 200 q 236 79 236 129 l 236 -68 q 238 -156 236 -117 q 247 -229 239 -196 q 271 -290 254 -262 q 318 -342 288 -318 q 358 -366 336 -357 q 399 -379 379 -375 q 438 -385 419 -383 q 468 -387 456 -386 l 468 -362 q 351 -333 392 -358 q 290 -272 310 -308 q 267 -192 271 -235 q 264 -108 264 -149 l 264 0 q 263 98 264 58 q 256 166 261 138 q 242 213 251 194 q 217 247 232 232 q 181 274 200 264 q 144 289 163 283 q 111 297 126 294 q 86 300 96 299 q 111 303 96 301 q 144 311 126 306 q 181 326 163 317 q 217 353 200 336 q 242 388 232 368 q 256 435 251 407 q 263 503 261 463 q 264 601 264 543 l 264 710 q 267 793 264 750 q 290 873 271 836 q 351 935 310 910 q 468 964 392 960 z "},"|":{"ha":308,"x_min":140,"x_max":168,"o":"m 140 1042 l 140 -346 l 168 -346 l 168 1042 l 140 1042 z "},"}":{"ha":514,"x_min":47,"x_max":468,"o":"m 47 -362 l 47 -387 q 78 -384 60 -386 q 116 -378 96 -382 q 157 -365 136 -374 q 197 -342 178 -357 q 244 -290 228 -318 q 269 -229 261 -262 q 278 -156 276 -196 q 279 -68 279 -117 l 279 79 q 286 165 279 129 q 313 225 293 200 q 371 267 333 250 q 468 296 408 283 l 468 304 q 371 333 408 317 q 313 375 333 350 q 286 435 293 400 q 279 521 279 471 l 279 669 q 278 758 279 718 q 269 831 276 797 q 244 892 261 864 q 197 943 228 919 q 157 967 178 958 q 116 979 136 975 q 78 985 96 983 q 47 989 60 988 l 47 964 q 165 935 124 960 q 225 873 206 910 q 248 793 244 836 q 251 710 251 750 l 251 601 q 253 503 251 543 q 259 435 254 463 q 274 388 264 407 q 299 353 283 368 q 334 326 315 336 q 371 311 353 317 q 404 303 389 306 q 429 300 419 301 q 404 297 419 299 q 371 289 389 294 q 334 274 353 283 q 299 247 315 264 q 274 213 283 232 q 259 166 264 194 q 253 98 254 138 q 251 0 251 58 l 251 -108 q 248 -192 251 -149 q 225 -272 244 -235 q 165 -333 206 -308 q 47 -362 124 -358 z "},"~":{"ha":824,"x_min":22,"x_max":801,"o":"m 801 444 l 776 444 q 717 331 754 378 q 619 285 681 285 q 575 292 599 285 q 506 317 551 299 l 333 382 q 313 390 326 385 q 282 399 299 394 q 247 408 265 404 q 213 411 229 411 q 128 391 163 411 q 74 342 94 371 q 41 281 53 313 q 22 225 29 249 l 47 225 q 65 272 54 244 q 92 324 75 299 q 137 366 110 349 q 204 383 164 383 q 269 373 236 383 q 325 353 301 363 l 494 288 q 575 261 551 265 q 614 257 599 257 q 695 278 663 257 q 749 328 728 299 q 783 390 771 358 q 801 444 794 422 z "},"":{"ha":386,"x_min":0,"x_max":0,"o":""},"":{"ha":411,"x_min":107,"x_max":304,"o":"m 304 517 q 275 586 304 557 q 206 615 246 615 q 136 586 165 615 q 107 517 107 557 q 136 447 107 476 q 206 418 165 418 q 275 447 246 418 q 304 517 304 476 m 286 -228 l 219 322 l 192 322 l 125 -228 q 118 -283 121 -262 q 115 -314 115 -304 q 140 -382 115 -356 q 206 -408 165 -408 q 271 -382 246 -408 q 296 -314 296 -356 q 293 -283 296 -304 q 286 -228 290 -262 z "},"":{"ha":722,"x_min":67,"x_max":656,"o":"m 450 586 l 301 61 q 262 173 269 106 q 254 307 254 240 q 259 417 254 365 q 280 509 264 469 q 325 572 296 549 q 404 596 354 596 q 450 586 436 596 m 285 1 l 247 -126 l 267 -131 l 303 -3 q 365 -15 338 -12 q 410 -18 393 -18 q 520 0 476 -18 q 592 44 564 18 q 634 99 619 69 q 656 154 649 129 l 636 161 q 622 122 633 149 q 586 67 610 94 q 524 20 563 40 q 428 0 485 0 q 363 11 390 0 q 317 42 336 22 l 468 578 q 489 536 489 561 q 485 517 489 531 q 478 488 482 503 q 472 458 475 472 q 468 439 468 444 q 495 390 468 401 q 554 378 522 378 q 621 397 597 378 q 644 461 644 415 q 599 558 644 519 q 478 610 553 596 l 510 724 l 490 728 l 457 611 q 433 615 446 614 q 408 615 421 615 q 262 585 325 615 q 155 508 199 554 q 89 406 111 461 q 67 299 67 350 q 87 185 67 235 q 138 98 107 135 q 208 38 169 61 q 285 1 247 14 z "},"":{"ha":822,"x_min":53,"x_max":769,"o":"m 300 93 q 248 39 274 58 q 171 19 222 19 q 108 39 135 19 q 82 90 82 58 q 106 146 82 126 q 161 165 129 165 q 190 163 176 165 q 219 152 204 160 q 254 131 235 144 q 300 93 274 117 m 53 543 l 53 524 l 197 524 q 254 414 231 460 q 293 331 278 368 q 315 263 308 294 q 322 197 322 232 q 318 164 322 181 q 250 178 278 172 q 185 185 222 185 q 144 181 165 185 q 104 167 122 178 q 74 139 86 157 q 63 92 63 121 q 72 49 63 67 q 97 20 82 31 q 132 5 113 10 q 171 0 151 0 q 256 22 226 0 q 314 81 286 44 q 364 44 339 63 q 416 13 389 26 q 473 -10 443 -1 q 538 -18 503 -18 q 628 5 590 -18 q 694 61 667 28 q 739 132 721 94 q 769 200 757 169 l 751 206 q 728 174 739 186 q 700 153 718 161 q 653 143 682 146 q 571 140 624 140 q 500 142 532 140 q 441 147 468 143 q 389 153 414 150 q 339 161 364 157 q 346 213 343 189 q 349 258 349 238 q 346 318 349 279 q 340 398 343 357 q 334 474 338 439 q 329 524 331 510 l 544 524 l 544 543 l 331 543 q 328 567 329 550 q 325 604 326 583 q 324 647 324 625 q 324 689 324 671 l 324 726 q 330 819 324 772 q 353 905 336 867 q 403 967 371 943 q 490 992 436 992 q 553 971 532 992 q 574 926 574 950 q 567 870 574 899 q 561 826 561 842 q 571 790 561 803 q 594 772 581 778 q 621 765 607 765 q 642 764 635 764 q 703 778 681 764 q 726 836 726 793 q 713 892 726 861 q 668 949 699 922 q 592 993 638 975 q 481 1011 546 1011 q 356 990 418 1011 q 246 931 294 969 q 167 837 197 892 q 136 715 136 782 q 144 645 136 692 q 186 543 153 599 l 53 543 z "},"":{"ha":772,"x_min":89,"x_max":683,"o":"m 132 496 q 152 595 132 549 q 206 676 172 642 q 287 730 240 710 q 386 750 333 750 q 485 730 439 750 q 566 676 532 710 q 620 595 600 642 q 640 496 640 549 q 620 397 640 443 q 566 316 600 350 q 485 262 532 282 q 386 242 439 242 q 287 262 333 242 q 206 316 240 282 q 152 397 172 350 q 132 496 132 443 m 176 306 l 89 217 l 107 199 l 196 288 q 222 267 206 279 q 263 242 239 254 q 317 222 286 231 q 385 214 347 214 q 482 231 431 214 q 575 288 533 247 l 665 199 l 683 217 l 594 306 q 635 363 621 335 q 658 417 650 392 q 667 464 665 443 q 668 496 668 485 q 667 526 668 507 q 658 572 665 546 q 635 628 650 599 q 594 686 621 657 l 683 775 l 665 793 l 575 704 q 487 758 535 739 q 386 778 439 778 q 196 704 278 778 l 107 793 l 89 775 l 178 686 q 123 597 142 647 q 104 496 104 546 q 117 410 104 463 q 176 306 131 358 z "},"":{"ha":772,"x_min":-46,"x_max":819,"o":"m 314 390 l 314 19 l 186 19 l 186 0 l 638 0 l 638 19 l 508 19 l 508 390 l 757 390 l 757 414 l 510 414 l 561 560 l 757 560 l 757 583 l 568 583 l 703 969 l 819 969 l 819 989 l 558 989 l 558 969 l 679 969 l 492 446 l 274 969 l 383 969 l 383 989 l -46 989 l -46 969 l 61 969 l 233 583 l 67 583 l 67 560 l 243 560 l 308 414 l 67 414 l 67 390 l 314 390 z "},"":{"ha":308,"x_min":140,"x_max":168,"o":"m 140 938 l 140 451 l 168 451 l 168 938 l 140 938 m 140 243 l 140 -242 l 168 -242 l 168 243 l 140 243 z "},"":{"ha":772,"x_min":89,"x_max":683,"o":"m 161 440 q 185 508 161 481 q 238 561 208 535 q 366 475 297 517 q 501 392 435 433 q 572 330 544 364 q 600 247 600 296 q 592 200 600 221 q 574 164 585 179 q 551 138 564 149 q 531 119 539 126 l 453 171 l 286 275 q 243 305 265 288 q 203 343 221 322 q 173 389 185 364 q 161 440 161 414 m 564 551 l 378 668 q 335 698 357 681 q 297 736 314 715 q 269 781 281 757 q 258 833 258 806 q 265 875 258 849 q 290 928 271 901 q 342 973 308 954 q 431 992 376 992 q 465 989 447 992 q 497 978 482 986 q 522 959 513 971 q 532 928 532 947 q 527 901 532 913 q 517 879 522 890 q 506 857 511 868 q 501 831 501 846 q 510 798 501 810 q 533 781 519 786 q 559 774 546 775 q 581 774 572 774 q 625 782 610 774 q 647 803 640 790 q 656 829 654 815 q 657 854 657 843 q 640 921 657 892 q 594 970 624 950 q 524 1001 564 990 q 439 1011 485 1011 q 308 988 364 1011 q 214 926 251 964 q 158 843 176 889 q 139 753 139 797 q 165 642 139 683 q 222 572 192 601 q 184 541 207 561 q 140 491 161 521 q 104 423 119 461 q 89 339 89 385 q 121 211 89 261 q 222 118 153 161 l 411 4 q 503 -69 469 -29 q 538 -174 538 -108 q 528 -238 538 -204 q 497 -301 518 -272 q 441 -349 475 -331 q 358 -368 407 -368 q 269 -344 307 -368 q 231 -279 231 -321 q 235 -253 231 -265 q 247 -231 240 -242 q 258 -208 253 -219 q 263 -181 263 -196 q 238 -137 263 -149 q 188 -125 213 -125 q 100 -203 100 -125 q 110 -258 100 -226 q 149 -318 121 -289 q 227 -367 178 -347 q 354 -387 276 -387 q 487 -360 429 -387 q 583 -290 544 -332 q 641 -199 621 -249 q 661 -107 661 -150 q 652 -35 661 -67 q 628 22 643 -4 q 592 68 613 47 q 547 108 571 89 q 593 153 569 128 q 637 209 617 178 q 670 278 657 240 q 683 360 683 315 q 671 433 683 401 q 640 487 658 464 q 601 525 622 510 q 564 551 581 540 z "},"":{"ha":386,"x_min":-15,"x_max":403,"o":"m 225 894 q 251 832 225 858 q 314 806 278 806 q 376 832 350 806 q 403 894 403 858 q 376 957 403 931 q 314 983 350 983 q 251 957 278 983 q 225 894 225 931 m -15 894 q 10 832 -15 858 q 72 806 36 806 q 135 832 108 806 q 161 894 161 858 q 135 957 161 931 q 72 983 108 983 q 10 957 36 983 q -15 894 -15 931 z "},"":{"ha":1157,"x_min":63,"x_max":1093,"o":"m 793 208 l 793 383 l 779 383 q 757 318 772 350 q 718 262 742 286 q 664 222 694 238 q 597 207 633 207 q 517 221 550 207 q 462 266 483 235 q 431 349 440 297 q 421 476 421 400 q 427 621 421 560 q 452 722 433 682 q 506 781 471 761 q 597 800 540 800 q 672 784 642 800 q 723 743 703 768 q 756 688 743 718 q 776 629 768 657 l 788 629 l 788 797 l 774 797 q 766 783 771 786 q 750 781 761 781 q 688 796 726 781 q 596 811 649 811 q 488 789 543 811 q 387 726 432 767 q 313 629 342 686 q 285 501 285 572 q 310 382 285 438 q 379 285 336 326 q 478 219 422 243 q 596 196 535 196 q 647 201 622 196 q 692 211 671 206 q 728 222 713 217 q 753 226 743 226 q 779 208 774 226 l 793 208 m 90 496 q 128 685 90 596 q 233 840 167 774 q 388 945 299 907 q 578 983 476 983 q 767 945 678 983 q 922 840 856 907 q 1027 685 989 774 q 1065 496 1065 596 q 1027 307 1065 396 q 922 151 989 218 q 767 47 856 85 q 578 8 678 8 q 388 47 476 8 q 233 151 299 85 q 128 307 167 218 q 90 496 90 396 m 63 496 q 103 295 63 389 q 213 132 143 201 q 377 22 283 63 q 578 -18 471 -18 q 778 22 685 -18 q 942 132 872 63 q 1052 295 1011 201 q 1093 496 1093 389 q 1052 697 1093 603 q 942 860 1011 790 q 778 970 872 929 q 578 1011 685 1011 q 377 970 471 1011 q 213 860 283 929 q 103 697 143 790 q 63 496 63 603 z "},"":{"ha":432,"x_min":31,"x_max":440,"o":"m 257 836 l 257 719 q 243 666 257 688 q 200 644 229 644 q 157 671 164 644 q 150 731 150 697 q 170 792 150 776 q 213 817 190 808 q 240 827 231 824 q 257 836 250 831 m 369 688 l 369 894 q 367 926 369 907 q 349 965 364 946 q 303 997 335 983 q 214 1011 272 1011 q 97 983 135 1011 q 58 917 58 956 q 72 884 58 896 q 107 872 85 872 q 149 878 131 872 q 168 917 168 885 q 165 937 168 921 q 163 958 163 953 q 180 990 163 985 q 210 996 197 996 q 260 949 260 996 l 260 889 q 222 838 260 849 l 154 818 q 90 795 114 807 q 52 770 65 783 q 35 743 39 757 q 31 714 31 729 q 43 670 31 688 q 76 643 56 653 q 121 629 96 633 q 171 625 146 625 q 240 645 219 625 q 265 679 260 665 q 290 644 269 664 q 357 625 310 625 q 392 628 378 625 q 415 635 406 631 q 429 645 424 639 q 440 658 435 651 l 428 671 q 415 654 424 664 q 394 644 407 644 q 374 660 379 644 q 369 688 369 676 z "},"":{"ha":617,"x_min":65,"x_max":551,"o":"m 551 478 l 547 494 q 481 478 521 489 q 403 445 440 467 q 338 388 365 424 q 311 299 311 353 q 337 210 311 246 q 400 153 363 175 q 478 120 438 132 q 547 103 518 108 l 551 119 q 505 136 525 126 q 471 165 485 146 q 449 217 457 185 q 442 299 442 249 q 451 388 442 356 q 477 439 461 421 q 513 465 493 457 q 551 478 532 472 m 306 478 l 301 494 q 235 478 275 489 q 157 445 194 467 q 92 388 119 424 q 65 299 65 353 q 91 210 65 246 q 154 153 117 175 q 232 120 192 132 q 301 103 272 108 l 306 119 q 259 136 279 126 q 225 165 239 146 q 203 217 211 185 q 196 299 196 249 q 206 388 196 356 q 231 439 215 421 q 267 465 247 457 q 306 478 286 472 z "},"":{"ha":824,"x_min":78,"x_max":744,"o":"m 717 440 l 717 201 l 744 201 l 744 465 l 78 465 l 78 440 l 717 440 z "},"":{"ha":514,"x_min":126,"x_max":388,"o":"m 126 367 l 126 231 l 388 231 l 388 367 l 126 367 z "},"":{"ha":681,"x_min":83,"x_max":599,"o":"m 315 772 l 315 890 q 324 891 319 890 q 332 892 328 892 q 371 876 361 892 q 381 828 381 861 q 373 789 381 806 q 331 772 365 772 l 315 772 m 97 753 q 116 847 97 803 q 168 925 135 892 q 246 978 201 958 q 340 997 290 997 q 435 978 390 997 q 513 925 479 958 q 565 847 546 892 q 585 753 585 803 q 565 658 585 703 q 513 581 546 614 q 435 529 479 549 q 340 510 390 510 q 246 529 290 510 q 168 581 201 549 q 116 658 135 614 q 97 753 97 703 m 260 890 l 260 629 l 224 629 l 224 624 l 350 624 l 350 629 l 315 629 l 315 767 l 340 767 q 368 760 358 767 q 383 741 378 753 q 389 715 388 729 q 392 685 390 700 q 393 663 392 675 q 400 642 394 651 q 417 625 406 632 q 450 618 429 618 q 479 623 471 618 q 496 636 488 628 l 492 639 q 483 631 488 636 q 469 626 478 626 q 454 640 457 626 q 447 701 451 653 q 423 753 444 743 q 364 771 401 764 l 364 772 q 415 788 390 775 q 439 832 439 800 q 430 864 439 851 q 408 883 421 876 q 378 894 394 890 q 346 897 361 897 q 314 897 331 897 q 282 896 297 896 l 224 896 l 224 890 l 260 890 m 83 753 q 103 653 83 700 q 158 571 124 606 q 240 516 193 536 q 340 496 288 496 q 440 516 393 496 q 523 571 488 536 q 578 653 558 606 q 599 753 599 700 q 578 853 599 806 q 523 935 558 900 q 440 991 488 971 q 340 1011 393 1011 q 240 991 288 1011 q 158 935 193 971 q 103 853 124 900 q 83 753 83 806 z "},"":{"ha":386,"x_min":-29,"x_max":417,"o":"m -29 892 l -29 850 l 417 850 l 417 892 l -29 892 z "},"":{"ha":556,"x_min":90,"x_max":465,"o":"m 118 824 q 131 886 118 857 q 165 937 143 915 q 215 971 186 958 q 278 983 244 983 q 340 971 311 983 q 391 937 369 958 q 425 886 413 915 q 438 824 438 857 q 425 761 438 790 q 391 710 413 732 q 340 676 369 689 q 278 664 311 664 q 215 676 244 664 q 165 710 186 689 q 131 761 143 732 q 118 824 118 790 m 90 824 q 105 751 90 785 q 145 691 119 717 q 205 651 171 665 q 278 636 239 636 q 351 651 317 636 q 410 691 385 665 q 451 751 436 717 q 465 824 465 785 q 451 897 465 863 q 410 956 436 931 q 351 997 385 982 q 278 1011 317 1011 q 205 997 239 1011 q 145 956 171 982 q 105 897 119 931 q 90 824 90 863 z "},"":{"ha":824,"x_min":78,"x_max":744,"o":"m 78 25 l 78 0 l 744 0 l 744 25 l 78 25 m 397 365 l 397 92 l 425 92 l 425 365 l 744 365 l 744 390 l 425 390 l 425 667 l 397 667 l 397 390 l 78 390 l 78 365 l 397 365 z "},"":{"ha":463,"x_min":28,"x_max":428,"o":"m 271 496 l 143 496 l 325 672 q 378 734 360 706 q 406 784 397 763 q 417 822 415 806 q 418 846 418 838 q 402 917 418 886 q 360 968 386 947 q 300 1000 335 989 q 228 1011 265 1011 q 170 1003 201 1011 q 113 980 139 996 q 69 940 86 964 q 51 885 51 917 q 69 854 51 864 q 106 844 88 844 q 145 856 128 844 q 163 888 163 868 q 158 910 163 893 q 154 933 154 928 q 155 951 154 940 q 162 970 156 961 q 182 985 168 979 q 221 992 196 992 q 245 990 232 992 q 269 974 258 988 q 286 930 279 960 q 293 846 293 900 q 282 732 293 779 q 242 641 271 685 q 165 550 214 597 q 42 436 117 503 l 28 424 l 28 404 l 428 404 l 428 579 l 408 579 q 394 531 404 549 q 367 506 383 514 q 326 497 350 499 q 271 496 303 496 z "},"":{"ha":463,"x_min":18,"x_max":439,"o":"m 92 714 l 103 696 q 136 716 119 708 q 168 727 153 724 q 195 731 183 731 q 213 732 207 732 q 272 717 251 732 q 303 681 293 701 q 314 638 313 660 q 315 603 315 617 q 313 530 315 565 q 297 468 310 494 q 258 426 283 442 q 186 410 232 410 q 94 444 133 410 q 39 528 54 479 l 18 528 q 83 424 36 457 q 204 390 129 390 q 295 405 253 390 q 369 445 338 419 q 420 506 401 471 q 439 581 439 540 q 422 650 439 621 q 376 699 404 679 q 315 731 349 719 q 249 744 282 742 l 249 747 q 307 764 276 754 q 363 789 338 774 q 403 827 388 804 q 419 885 419 850 q 402 944 419 921 q 359 983 385 968 q 303 1005 333 999 q 244 1011 272 1011 q 197 1008 228 1011 q 137 992 167 1004 q 85 959 107 981 q 63 901 63 938 q 70 874 63 883 q 88 860 78 864 q 106 855 97 856 q 115 854 114 854 q 131 856 122 854 q 150 863 140 858 q 166 877 160 868 q 172 900 172 886 q 168 924 172 906 q 164 949 164 942 q 183 984 164 976 q 219 992 201 992 q 300 896 300 992 q 298 858 300 879 q 288 818 296 838 q 267 783 281 799 q 233 763 254 768 l 139 738 q 115 728 126 735 q 92 714 103 721 z "},"":{"ha":386,"x_min":133,"x_max":360,"o":"m 256 979 l 133 735 l 151 735 l 347 943 q 358 964 356 953 q 360 981 360 975 q 342 1012 360 1001 q 314 1022 325 1022 q 274 1008 286 1022 q 256 979 263 994 z "},"":{"ha":849,"x_min":38,"x_max":799,"o":"m 131 576 l 131 -387 l 300 -387 l 300 24 q 335 0 317 7 q 378 -7 353 -7 q 467 26 421 -7 q 538 113 514 60 l 540 113 l 540 0 l 799 0 l 799 19 l 707 19 l 707 596 l 446 596 l 446 576 l 538 576 l 538 218 q 527 146 538 181 q 498 85 517 111 q 453 44 479 60 q 394 29 426 29 q 321 66 342 29 q 300 156 300 103 l 300 596 l 38 596 l 38 576 l 131 576 z "},"":{"ha":824,"x_min":36,"x_max":775,"o":"m 533 969 l 533 204 q 524 38 533 104 q 501 -69 515 -28 q 470 -135 488 -111 q 436 -174 453 -158 q 390 -208 413 -196 q 346 -227 367 -221 q 308 -235 325 -233 q 278 -236 290 -236 q 364 -191 332 -224 q 412 -104 396 -158 q 432 26 428 -50 q 436 204 436 103 l 436 969 l 533 969 m 775 989 l 436 989 q 308 981 367 989 q 181 942 250 972 q 77 848 118 914 q 36 699 36 782 q 49 611 36 653 q 86 535 63 569 q 141 474 110 500 q 208 435 172 449 q 319 408 267 413 q 415 401 371 403 l 415 204 q 415 133 415 175 q 411 45 414 90 q 403 -42 408 0 q 386 -111 397 -85 q 358 -165 374 -144 q 327 -195 342 -185 q 301 -209 313 -206 q 286 -212 290 -212 q 276 -208 278 -212 q 274 -201 274 -203 q 277 -187 274 -199 q 282 -174 281 -176 q 292 -137 290 -150 q 294 -117 294 -124 q 285 -88 294 -99 q 265 -73 276 -78 q 240 -67 253 -68 q 221 -65 228 -65 q 159 -83 186 -65 q 132 -143 132 -101 q 136 -172 132 -153 q 155 -209 140 -190 q 199 -242 169 -228 q 278 -256 228 -256 q 325 -253 296 -256 q 389 -242 354 -250 q 462 -217 424 -233 q 538 -172 500 -200 q 651 -17 619 -111 q 682 204 682 76 l 682 969 l 775 969 l 775 989 z "},"":{"ha":386,"x_min":94,"x_max":292,"o":"m 94 392 q 124 322 94 351 q 193 293 153 293 q 263 322 233 293 q 292 392 292 351 q 263 461 292 432 q 193 490 233 490 q 124 461 153 490 q 94 392 94 432 z "},"":{"ha":386,"x_min":79,"x_max":347,"o":"m 215 0 l 114 -108 l 133 -128 q 185 -114 156 -114 q 215 -123 204 -114 q 231 -145 225 -132 q 237 -175 236 -158 q 238 -206 238 -192 q 235 -240 238 -222 q 225 -272 232 -257 q 206 -295 218 -286 q 172 -304 193 -304 q 129 -297 144 -304 q 92 -274 114 -289 l 79 -290 q 131 -322 107 -311 q 190 -332 154 -332 q 248 -324 219 -332 q 299 -299 276 -315 q 334 -258 321 -282 q 347 -200 347 -233 q 337 -153 347 -175 q 308 -115 326 -131 q 268 -91 290 -100 q 221 -82 246 -82 q 183 -88 203 -82 q 149 -101 164 -94 l 146 -99 l 243 0 l 215 0 z "},"":{"ha":463,"x_min":83,"x_max":396,"o":"m 204 924 l 204 424 l 124 424 l 124 404 l 396 404 l 396 424 l 317 424 l 317 1011 l 278 1011 q 185 940 235 968 q 83 883 136 911 l 93 865 q 116 876 106 871 q 138 886 126 881 q 165 901 150 892 q 204 924 181 910 z "},"":{"ha":464,"x_min":18,"x_max":446,"o":"m 232 640 q 180 655 199 640 q 153 694 161 669 q 143 751 144 719 q 142 818 142 783 q 143 885 142 853 q 153 942 144 917 q 180 981 161 967 q 232 996 199 996 q 284 981 265 996 q 311 942 303 967 q 321 885 319 917 q 322 818 322 853 q 321 751 322 783 q 311 694 319 719 q 284 655 303 669 q 232 640 265 640 m 446 818 q 428 894 446 858 q 381 955 411 929 q 313 996 351 981 q 232 1011 274 1011 q 151 996 190 1011 q 83 955 113 981 q 35 894 53 929 q 18 818 18 858 q 35 742 18 778 q 83 681 53 707 q 151 640 113 656 q 232 625 190 625 q 313 640 274 625 q 381 681 351 656 q 428 742 411 707 q 446 818 446 778 z "},"":{"ha":617,"x_min":65,"x_max":551,"o":"m 65 119 l 69 103 q 136 119 96 108 q 214 152 176 131 q 278 209 251 174 q 306 299 306 244 q 280 388 306 353 q 217 444 254 422 q 139 476 179 465 q 69 494 99 488 l 65 478 q 112 461 92 471 q 146 432 132 451 q 167 381 160 413 q 175 299 175 349 q 165 210 175 243 q 140 158 156 176 q 104 133 124 140 q 65 119 85 125 m 311 119 l 315 103 q 382 119 342 108 q 460 152 422 131 q 524 209 497 174 q 551 299 551 244 q 526 388 551 353 q 463 444 500 422 q 385 476 425 465 q 315 494 344 488 l 311 478 q 358 461 338 471 q 392 432 378 451 q 413 381 406 413 q 421 299 421 349 q 411 210 421 243 q 385 158 401 176 q 350 133 369 140 q 311 119 331 125 z "},"":{"ha":1158,"x_min":83,"x_max":1025,"o":"m 788 1011 l 265 -6 l 293 -18 l 815 999 l 788 1011 m 204 924 l 204 424 l 124 424 l 124 404 l 396 404 l 396 424 l 317 424 l 317 1011 l 278 1011 q 185 940 235 968 q 83 883 136 911 l 93 865 q 116 876 106 871 q 138 886 126 881 q 165 901 150 892 q 204 924 181 910 m 950 150 l 950 357 l 838 357 l 838 150 l 619 150 q 698 284 658 225 q 770 384 738 343 q 826 449 803 425 q 854 478 849 472 l 922 540 q 944 562 940 557 q 949 576 949 567 q 942 594 949 588 q 926 603 935 600 q 908 606 917 606 q 894 607 899 607 q 826 576 858 607 q 749 467 793 546 q 729 429 744 458 q 692 356 714 400 q 643 253 669 311 q 590 131 617 196 l 838 131 l 838 19 l 760 19 l 760 0 l 1025 0 l 1025 19 l 950 19 l 950 131 l 1025 131 l 1025 150 l 950 150 z "},"":{"ha":1158,"x_min":83,"x_max":1021,"o":"m 864 92 l 736 92 l 918 268 q 972 330 953 301 q 999 380 990 358 q 1010 417 1008 401 q 1011 442 1011 433 q 995 513 1011 482 q 953 564 979 543 q 893 596 928 585 q 821 607 858 607 q 763 599 794 607 q 706 576 732 592 q 662 536 679 560 q 644 481 644 513 q 663 450 644 460 q 699 440 681 440 q 738 452 721 440 q 756 483 756 464 q 751 506 756 489 q 747 529 747 524 q 748 547 747 536 q 755 566 749 557 q 775 581 761 575 q 814 588 789 588 q 838 585 825 588 q 862 569 851 583 q 879 526 872 556 q 886 442 886 496 q 875 328 886 375 q 835 237 864 281 q 758 146 807 193 q 635 32 710 99 l 621 19 l 621 0 l 1021 0 l 1021 175 l 1001 175 q 987 127 997 144 q 960 102 976 110 q 919 93 943 94 q 864 92 896 92 m 204 924 l 204 424 l 124 424 l 124 404 l 396 404 l 396 424 l 317 424 l 317 1011 l 278 1011 q 185 940 235 968 q 83 883 136 911 l 93 865 q 116 876 106 871 q 138 886 126 881 q 165 901 150 892 q 204 924 181 910 m 788 1011 l 265 -6 l 293 -18 l 815 999 l 788 1011 z "},"":{"ha":1158,"x_min":57,"x_max":1064,"o":"m 826 1011 l 304 -6 l 332 -18 l 854 999 l 826 1011 m 989 150 l 989 357 l 876 357 l 876 150 l 658 150 q 737 284 697 225 q 809 384 776 343 q 865 449 842 425 q 893 478 888 472 l 961 540 q 983 562 979 557 q 988 576 988 567 q 981 594 988 588 q 965 603 974 600 q 947 606 956 606 q 933 607 938 607 q 865 576 897 607 q 788 467 832 546 q 768 429 783 458 q 731 356 753 400 q 682 253 708 311 q 629 131 656 196 l 876 131 l 876 19 l 799 19 l 799 0 l 1064 0 l 1064 19 l 989 19 l 989 131 l 1064 131 l 1064 150 l 989 150 m 131 714 l 142 696 q 175 716 158 708 q 207 727 192 724 q 234 731 222 731 q 251 732 246 732 q 311 717 290 732 q 342 681 332 701 q 353 638 351 660 q 354 603 354 617 q 351 530 354 565 q 335 468 349 494 q 297 426 322 442 q 225 410 271 410 q 133 444 172 410 q 78 528 93 479 l 57 528 q 122 424 75 457 q 243 390 168 390 q 334 405 292 390 q 408 445 376 419 q 459 506 440 471 q 478 581 478 540 q 460 650 478 621 q 415 699 443 679 q 354 731 388 719 q 288 744 321 742 l 288 747 q 346 764 315 754 q 401 789 376 774 q 442 827 426 804 q 458 885 458 850 q 441 944 458 921 q 398 983 424 968 q 342 1005 372 999 q 283 1011 311 1011 q 236 1008 267 1011 q 176 992 206 1004 q 124 959 146 981 q 101 901 101 938 q 109 874 101 883 q 126 860 117 864 q 144 855 136 856 q 154 854 153 854 q 170 856 161 854 q 189 863 179 858 q 205 877 199 868 q 211 900 211 886 q 207 924 211 906 q 203 949 203 942 q 222 984 203 976 q 258 992 240 992 q 339 896 339 992 q 337 858 339 879 q 327 818 335 838 q 306 783 319 799 q 272 763 293 768 l 178 738 q 153 728 165 735 q 131 714 142 721 z "},"":{"ha":617,"x_min":74,"x_max":533,"o":"m 533 517 q 504 586 533 557 q 435 615 475 615 q 365 586 394 615 q 336 517 336 557 q 365 447 336 476 q 435 418 394 418 q 504 447 475 418 q 533 517 533 476 m 446 8 l 446 335 l 422 335 l 422 50 l 419 50 q 383 81 408 65 q 308 97 357 97 q 242 83 282 97 q 164 40 201 69 q 100 -39 126 10 q 74 -156 74 -87 q 90 -253 74 -207 q 137 -333 106 -299 q 215 -388 168 -368 q 324 -408 263 -408 q 394 -399 358 -408 q 458 -372 429 -390 q 506 -326 488 -354 q 524 -258 524 -297 q 500 -208 524 -222 q 449 -193 476 -193 q 390 -206 408 -193 q 372 -256 372 -219 q 377 -281 372 -271 q 387 -299 382 -290 q 397 -315 392 -307 q 401 -336 401 -324 q 384 -372 401 -356 q 329 -389 367 -389 q 288 -378 304 -389 q 261 -343 271 -368 q 247 -277 251 -318 q 243 -175 243 -236 q 261 10 243 -53 q 333 74 279 74 q 385 53 364 74 q 422 8 406 33 l 446 8 z "},"":{"ha":1054,"x_min":-35,"x_max":1090,"o":"m 576 1058 l 454 1303 q 435 1332 447 1318 q 396 1346 424 1346 q 367 1335 385 1346 q 350 1304 350 1325 q 352 1288 350 1299 q 363 1267 354 1276 l 558 1058 l 576 1058 m 421 790 l 585 411 l 265 411 l 421 790 m -35 19 l -35 0 l 228 0 l 228 19 l 104 19 l 258 392 l 592 392 l 753 19 l 624 19 l 624 0 l 1090 0 l 1090 19 l 971 19 l 533 1028 l 496 1028 l 82 19 l -35 19 z "},"":{"ha":1054,"x_min":-35,"x_max":1090,"o":"m 579 1303 l 457 1058 l 475 1058 l 671 1267 q 681 1288 679 1276 q 683 1304 683 1299 q 666 1335 683 1325 q 638 1346 649 1346 q 598 1332 610 1346 q 579 1303 586 1318 m 421 790 l 585 411 l 265 411 l 421 790 m -35 19 l -35 0 l 228 0 l 228 19 l 104 19 l 258 392 l 592 392 l 753 19 l 624 19 l 624 0 l 1090 0 l 1090 19 l 971 19 l 533 1028 l 496 1028 l 82 19 l -35 19 z "},"":{"ha":1054,"x_min":-35,"x_max":1090,"o":"m 467 1332 l 315 1058 l 332 1058 l 517 1235 l 701 1058 l 718 1058 l 568 1332 l 467 1332 m 421 790 l 585 411 l 265 411 l 421 790 m -35 19 l -35 0 l 228 0 l 228 19 l 104 19 l 258 392 l 592 392 l 753 19 l 624 19 l 624 0 l 1090 0 l 1090 19 l 971 19 l 533 1028 l 496 1028 l 82 19 l -35 19 z "},"":{"ha":1054,"x_min":-35,"x_max":1090,"o":"m 319 1114 l 336 1151 q 354 1173 343 1167 q 375 1179 365 1179 q 421 1170 392 1179 q 483 1151 450 1161 q 548 1131 517 1140 q 600 1122 579 1122 q 655 1140 632 1122 q 694 1184 678 1158 q 719 1238 710 1210 q 733 1283 729 1265 l 714 1283 q 710 1270 714 1281 q 700 1249 707 1260 q 683 1228 693 1238 q 658 1219 672 1219 q 621 1228 653 1219 q 551 1248 589 1238 q 481 1267 514 1258 q 438 1275 447 1275 q 401 1268 422 1275 q 367 1250 379 1261 q 349 1231 357 1242 q 335 1206 342 1221 q 319 1168 328 1190 q 300 1114 311 1146 l 319 1114 m 421 790 l 585 411 l 265 411 l 421 790 m -35 19 l -35 0 l 228 0 l 228 19 l 104 19 l 258 392 l 592 392 l 753 19 l 624 19 l 624 0 l 1090 0 l 1090 19 l 971 19 l 533 1028 l 496 1028 l 82 19 l -35 19 z "},"":{"ha":1054,"x_min":-35,"x_max":1090,"o":"m 549 1190 q 575 1128 549 1154 q 638 1101 601 1101 q 700 1128 674 1101 q 726 1190 726 1154 q 700 1253 726 1226 q 638 1279 674 1279 q 575 1253 601 1279 q 549 1190 549 1226 m 307 1190 q 333 1128 307 1154 q 396 1101 360 1101 q 458 1128 432 1101 q 485 1190 485 1154 q 458 1253 485 1226 q 396 1279 432 1279 q 333 1253 360 1279 q 307 1190 307 1226 m 421 790 l 585 411 l 265 411 l 421 790 m -35 19 l -35 0 l 228 0 l 228 19 l 104 19 l 258 392 l 592 392 l 753 19 l 624 19 l 624 0 l 1090 0 l 1090 19 l 971 19 l 533 1028 l 496 1028 l 82 19 l -35 19 z "},"":{"ha":1054,"x_min":-35,"x_max":1090,"o":"m 507 1313 q 560 1281 547 1313 q 572 1190 572 1249 q 560 1100 572 1132 q 507 1068 547 1068 q 454 1100 467 1068 q 442 1190 442 1132 q 454 1281 442 1249 q 507 1313 467 1313 m 653 1190 q 644 1237 653 1213 q 617 1281 635 1261 q 572 1315 599 1301 q 507 1328 544 1328 q 442 1315 469 1328 q 397 1281 415 1301 q 370 1237 379 1261 q 361 1190 361 1213 q 370 1144 361 1168 q 397 1099 379 1119 q 442 1066 415 1079 q 507 1053 469 1053 q 572 1066 544 1053 q 617 1099 599 1079 q 644 1144 635 1119 q 653 1190 653 1168 m 421 790 l 585 411 l 265 411 l 421 790 m -35 19 l -35 0 l 228 0 l 228 19 l 104 19 l 258 392 l 592 392 l 753 19 l 624 19 l 624 0 l 1090 0 l 1090 19 l 971 19 l 533 1028 l 496 1028 l 82 19 l -35 19 z "},"":{"ha":1363,"x_min":-42,"x_max":1279,"o":"m 365 540 l 613 969 l 615 969 l 615 540 l 365 540 m -42 19 l -42 0 l 201 0 l 201 19 l 64 19 l 354 521 l 615 521 l 615 19 l 488 19 l 488 0 l 1279 0 l 1279 304 l 1261 304 q 1221 192 1247 244 q 1155 101 1194 140 q 1064 41 1115 63 q 949 19 1013 19 l 817 19 l 817 521 l 858 521 q 940 504 907 521 q 994 459 972 488 q 1030 393 1017 431 q 1053 315 1043 356 l 1071 315 l 1071 747 l 1053 747 q 1028 662 1043 700 q 989 597 1013 624 q 930 555 965 569 q 843 540 894 540 l 817 540 l 817 969 l 965 969 q 1081 944 1033 969 q 1158 883 1128 918 q 1204 812 1188 849 q 1228 751 1221 775 l 1246 751 l 1246 989 l 460 989 l 460 969 l 589 969 l 40 19 l -42 19 z "},"":{"ha":1003,"x_min":71,"x_max":921,"o":"m 921 0 l 921 294 l 899 294 q 860 185 886 238 q 794 91 833 132 q 705 25 756 50 q 592 0 654 0 q 458 23 514 0 q 366 99 401 46 q 314 238 331 151 q 297 450 297 324 l 297 571 q 307 724 297 649 q 348 859 317 800 q 438 955 379 918 q 592 992 496 992 q 717 965 667 992 q 802 895 768 938 q 858 802 836 853 q 894 706 879 751 l 913 706 l 913 989 l 890 989 q 876 965 886 969 q 847 960 867 960 q 803 968 829 960 q 744 985 776 976 q 673 1003 711 994 q 590 1011 635 1011 q 409 974 501 1011 q 242 869 317 938 q 119 706 167 801 q 71 492 71 610 q 108 304 71 392 q 209 149 146 217 q 356 38 272 81 q 533 -15 440 -6 l 447 -108 l 467 -128 q 518 -114 489 -114 q 548 -123 538 -114 q 564 -145 558 -132 q 570 -175 569 -158 q 571 -206 571 -192 q 568 -240 571 -222 q 558 -272 565 -257 q 539 -295 551 -286 q 506 -304 526 -304 q 463 -297 478 -304 q 425 -274 447 -289 l 413 -290 q 464 -322 440 -311 q 524 -332 488 -332 q 581 -324 553 -332 q 632 -299 610 -315 q 667 -258 654 -282 q 681 -200 681 -233 q 670 -153 681 -175 q 642 -115 660 -131 q 601 -91 624 -100 q 554 -82 579 -82 q 517 -88 536 -82 q 482 -101 497 -94 l 479 -99 l 558 -19 l 590 -19 q 675 -12 635 -19 q 749 5 715 -4 q 810 22 783 14 q 853 29 836 29 q 882 23 872 29 q 899 0 892 17 l 921 0 z "},"":{"ha":1003,"x_min":51,"x_max":939,"o":"m 572 1058 l 450 1303 q 431 1332 443 1318 q 392 1346 419 1346 q 363 1335 381 1346 q 346 1304 346 1325 q 348 1288 346 1299 q 358 1267 350 1276 l 554 1058 l 572 1058 m 51 989 l 51 969 l 179 969 l 179 19 l 51 19 l 51 0 l 939 0 l 939 304 l 921 304 q 881 192 907 244 q 815 101 854 140 q 724 41 775 63 q 608 19 672 19 l 381 19 l 381 521 l 474 521 q 555 504 522 521 q 610 459 588 488 q 645 393 632 431 q 668 315 658 356 l 686 315 l 686 747 l 668 747 q 643 662 658 700 q 604 597 628 624 q 545 555 581 569 q 458 540 510 540 l 381 540 l 381 969 l 601 969 q 717 944 669 969 q 794 883 764 918 q 840 812 824 849 q 864 751 857 775 l 882 751 l 882 989 l 51 989 z "},"":{"ha":1003,"x_min":51,"x_max":939,"o":"m 575 1303 l 453 1058 l 471 1058 l 667 1267 q 677 1288 675 1276 q 679 1304 679 1299 q 662 1335 679 1325 q 633 1346 644 1346 q 594 1332 606 1346 q 575 1303 582 1318 m 51 989 l 51 969 l 179 969 l 179 19 l 51 19 l 51 0 l 939 0 l 939 304 l 921 304 q 881 192 907 244 q 815 101 854 140 q 724 41 775 63 q 608 19 672 19 l 381 19 l 381 521 l 474 521 q 555 504 522 521 q 610 459 588 488 q 645 393 632 431 q 668 315 658 356 l 686 315 l 686 747 l 668 747 q 643 662 658 700 q 604 597 628 624 q 545 555 581 569 q 458 540 510 540 l 381 540 l 381 969 l 601 969 q 717 944 669 969 q 794 883 764 918 q 840 812 824 849 q 864 751 857 775 l 882 751 l 882 989 l 51 989 z "},"":{"ha":1003,"x_min":51,"x_max":939,"o":"m 463 1332 l 311 1058 l 328 1058 l 513 1235 l 697 1058 l 714 1058 l 564 1332 l 463 1332 m 51 989 l 51 969 l 179 969 l 179 19 l 51 19 l 51 0 l 939 0 l 939 304 l 921 304 q 881 192 907 244 q 815 101 854 140 q 724 41 775 63 q 608 19 672 19 l 381 19 l 381 521 l 474 521 q 555 504 522 521 q 610 459 588 488 q 645 393 632 431 q 668 315 658 356 l 686 315 l 686 747 l 668 747 q 643 662 658 700 q 604 597 628 624 q 545 555 581 569 q 458 540 510 540 l 381 540 l 381 969 l 601 969 q 717 944 669 969 q 794 883 764 918 q 840 812 824 849 q 864 751 857 775 l 882 751 l 882 989 l 51 989 z "},"":{"ha":1003,"x_min":51,"x_max":939,"o":"m 544 1190 q 571 1128 544 1154 q 633 1101 597 1101 q 696 1128 669 1101 q 722 1190 722 1154 q 696 1253 722 1226 q 633 1279 669 1279 q 571 1253 597 1279 q 544 1190 544 1226 m 303 1190 q 329 1128 303 1154 q 392 1101 356 1101 q 454 1128 428 1101 q 481 1190 481 1154 q 454 1253 481 1226 q 392 1279 428 1279 q 329 1253 356 1279 q 303 1190 303 1226 m 51 989 l 51 969 l 179 969 l 179 19 l 51 19 l 51 0 l 939 0 l 939 304 l 921 304 q 881 192 907 244 q 815 101 854 140 q 724 41 775 63 q 608 19 672 19 l 381 19 l 381 521 l 474 521 q 555 504 522 521 q 610 459 588 488 q 645 393 632 431 q 668 315 658 356 l 686 315 l 686 747 l 668 747 q 643 662 658 700 q 604 597 628 624 q 545 555 581 569 q 458 540 510 540 l 381 540 l 381 969 l 601 969 q 717 944 669 969 q 794 883 764 918 q 840 812 824 849 q 864 751 857 775 l 882 751 l 882 989 l 51 989 z "},"":{"ha":565,"x_min":54,"x_max":511,"o":"m 343 1058 l 221 1303 q 202 1332 214 1318 q 163 1346 190 1346 q 134 1335 151 1346 q 117 1304 117 1325 q 119 1288 117 1299 q 129 1267 121 1276 l 325 1058 l 343 1058 m 54 989 l 54 969 l 182 969 l 182 19 l 54 19 l 54 0 l 511 0 l 511 19 l 383 19 l 383 969 l 511 969 l 511 989 l 54 989 z "},"":{"ha":565,"x_min":54,"x_max":511,"o":"m 346 1303 l 224 1058 l 242 1058 l 438 1267 q 448 1288 446 1276 q 450 1304 450 1299 q 433 1335 450 1325 q 404 1346 415 1346 q 365 1332 376 1346 q 346 1303 353 1318 m 54 989 l 54 969 l 182 969 l 182 19 l 54 19 l 54 0 l 511 0 l 511 19 l 383 19 l 383 969 l 511 969 l 511 989 l 54 989 z "},"":{"ha":565,"x_min":54,"x_max":511,"o":"m 233 1332 l 82 1058 l 99 1058 l 283 1235 l 468 1058 l 485 1058 l 335 1332 l 233 1332 m 54 989 l 54 969 l 182 969 l 182 19 l 54 19 l 54 0 l 511 0 l 511 19 l 383 19 l 383 969 l 511 969 l 511 989 l 54 989 z "},"":{"ha":565,"x_min":54,"x_max":511,"o":"m 315 1190 q 342 1128 315 1154 q 404 1101 368 1101 q 467 1128 440 1101 q 493 1190 493 1154 q 467 1253 493 1226 q 404 1279 440 1279 q 342 1253 368 1279 q 315 1190 315 1226 m 74 1190 q 100 1128 74 1154 q 163 1101 126 1101 q 225 1128 199 1101 q 251 1190 251 1154 q 225 1253 251 1226 q 163 1279 199 1279 q 100 1253 126 1279 q 74 1190 74 1226 m 54 989 l 54 969 l 182 969 l 182 19 l 54 19 l 54 0 l 511 0 l 511 19 l 383 19 l 383 969 l 511 969 l 511 989 l 54 989 z "},"":{"ha":1132,"x_min":44,"x_max":1065,"o":"m 374 540 l 374 969 q 410 973 388 972 q 460 974 432 974 q 655 939 581 974 q 770 840 729 904 q 825 684 811 775 q 839 481 839 593 q 835 383 839 435 q 817 278 831 331 q 778 179 804 226 q 709 95 753 132 q 601 37 665 58 q 447 15 538 15 q 374 19 414 15 l 374 517 l 579 517 l 579 540 l 374 540 m 172 517 l 172 19 l 44 19 l 44 0 l 172 0 q 330 -1 251 0 q 488 -3 408 -3 q 605 6 542 -3 q 733 35 668 14 q 857 93 797 57 q 963 185 917 129 q 1038 317 1010 240 q 1065 494 1065 393 q 1038 674 1065 597 q 963 806 1010 750 q 854 897 915 861 q 725 955 793 933 q 588 985 657 976 q 456 993 518 993 q 314 991 385 993 q 172 989 243 989 l 44 989 l 44 969 l 172 969 l 172 540 l 44 540 l 44 517 l 172 517 z "},"":{"ha":1029,"x_min":47,"x_max":990,"o":"m 318 1114 l 335 1151 q 353 1173 342 1167 q 374 1179 364 1179 q 419 1170 390 1179 q 482 1151 449 1161 q 547 1131 515 1140 q 599 1122 578 1122 q 653 1140 631 1122 q 692 1184 676 1158 q 718 1238 708 1210 q 732 1283 728 1265 l 713 1283 q 709 1270 713 1281 q 699 1249 706 1260 q 681 1228 692 1238 q 657 1219 671 1219 q 619 1228 651 1219 q 550 1248 588 1238 q 479 1267 513 1258 q 436 1275 446 1275 q 399 1268 421 1275 q 365 1250 378 1261 q 348 1231 356 1242 q 333 1206 340 1221 q 318 1168 326 1190 q 299 1114 310 1146 l 318 1114 m 47 989 l 47 969 l 175 969 l 175 19 l 47 19 l 47 0 l 325 0 l 325 19 l 197 19 l 197 890 l 200 890 l 825 0 l 863 0 l 863 969 l 990 969 l 990 989 l 713 989 l 713 969 l 840 969 l 840 328 l 838 328 l 375 989 l 47 989 z "},"":{"ha":1157,"x_min":58,"x_max":1099,"o":"m 639 1058 l 517 1303 q 498 1332 510 1318 q 458 1346 486 1346 q 430 1335 447 1346 q 413 1304 413 1325 q 415 1288 413 1299 q 425 1267 417 1276 l 621 1058 l 639 1058 m 285 492 q 294 693 285 601 q 335 851 304 785 q 424 955 365 918 q 579 992 482 992 q 742 952 683 992 q 831 845 801 913 q 866 690 860 778 q 872 504 872 601 q 865 303 872 396 q 828 144 857 211 q 740 38 799 76 q 579 0 682 0 q 445 22 501 0 q 353 101 389 44 q 301 252 318 157 q 285 492 285 347 m 58 492 q 101 290 58 383 q 216 128 144 197 q 382 20 288 60 q 579 -19 476 -19 q 777 22 683 -19 q 942 133 871 63 q 1056 298 1014 204 q 1099 496 1099 392 q 1053 710 1099 615 q 935 872 1008 806 q 769 975 863 939 q 579 1011 675 1011 q 397 974 490 1011 q 229 869 304 938 q 106 706 154 801 q 58 492 58 610 z "},"":{"ha":1157,"x_min":58,"x_max":1099,"o":"m 642 1303 l 519 1058 l 538 1058 l 733 1267 q 744 1288 742 1276 q 746 1304 746 1299 q 728 1335 746 1325 q 700 1346 711 1346 q 660 1332 672 1346 q 642 1303 649 1318 m 285 492 q 294 693 285 601 q 335 851 304 785 q 424 955 365 918 q 579 992 482 992 q 742 952 683 992 q 831 845 801 913 q 866 690 860 778 q 872 504 872 601 q 865 303 872 396 q 828 144 857 211 q 740 38 799 76 q 579 0 682 0 q 445 22 501 0 q 353 101 389 44 q 301 252 318 157 q 285 492 285 347 m 58 492 q 101 290 58 383 q 216 128 144 197 q 382 20 288 60 q 579 -19 476 -19 q 777 22 683 -19 q 942 133 871 63 q 1056 298 1014 204 q 1099 496 1099 392 q 1053 710 1099 615 q 935 872 1008 806 q 769 975 863 939 q 579 1011 675 1011 q 397 974 490 1011 q 229 869 304 938 q 106 706 154 801 q 58 492 58 610 z "},"":{"ha":1157,"x_min":58,"x_max":1099,"o":"m 529 1332 l 378 1058 l 394 1058 l 579 1235 l 764 1058 l 781 1058 l 631 1332 l 529 1332 m 285 492 q 294 693 285 601 q 335 851 304 785 q 424 955 365 918 q 579 992 482 992 q 742 952 683 992 q 831 845 801 913 q 866 690 860 778 q 872 504 872 601 q 865 303 872 396 q 828 144 857 211 q 740 38 799 76 q 579 0 682 0 q 445 22 501 0 q 353 101 389 44 q 301 252 318 157 q 285 492 285 347 m 58 492 q 101 290 58 383 q 216 128 144 197 q 382 20 288 60 q 579 -19 476 -19 q 777 22 683 -19 q 942 133 871 63 q 1056 298 1014 204 q 1099 496 1099 392 q 1053 710 1099 615 q 935 872 1008 806 q 769 975 863 939 q 579 1011 675 1011 q 397 974 490 1011 q 229 869 304 938 q 106 706 154 801 q 58 492 58 610 z "},"":{"ha":1157,"x_min":58,"x_max":1099,"o":"m 382 1114 l 399 1151 q 417 1173 406 1167 q 438 1179 428 1179 q 483 1170 454 1179 q 546 1151 513 1161 q 610 1131 579 1140 q 663 1122 642 1122 q 717 1140 694 1122 q 756 1184 740 1158 q 782 1238 772 1210 q 796 1283 792 1265 l 776 1283 q 773 1270 776 1281 q 763 1249 769 1260 q 745 1228 756 1238 q 721 1219 735 1219 q 683 1228 715 1219 q 614 1248 651 1238 q 543 1267 576 1258 q 500 1275 510 1275 q 463 1268 485 1275 q 429 1250 442 1261 q 412 1231 419 1242 q 397 1206 404 1221 q 382 1168 390 1190 q 363 1114 374 1146 l 382 1114 m 285 492 q 294 693 285 601 q 335 851 304 785 q 424 955 365 918 q 579 992 482 992 q 742 952 683 992 q 831 845 801 913 q 866 690 860 778 q 872 504 872 601 q 865 303 872 396 q 828 144 857 211 q 740 38 799 76 q 579 0 682 0 q 445 22 501 0 q 353 101 389 44 q 301 252 318 157 q 285 492 285 347 m 58 492 q 101 290 58 383 q 216 128 144 197 q 382 20 288 60 q 579 -19 476 -19 q 777 22 683 -19 q 942 133 871 63 q 1056 298 1014 204 q 1099 496 1099 392 q 1053 710 1099 615 q 935 872 1008 806 q 769 975 863 939 q 579 1011 675 1011 q 397 974 490 1011 q 229 869 304 938 q 106 706 154 801 q 58 492 58 610 z "},"":{"ha":1157,"x_min":58,"x_max":1099,"o":"m 611 1190 q 638 1128 611 1154 q 700 1101 664 1101 q 763 1128 736 1101 q 789 1190 789 1154 q 763 1253 789 1226 q 700 1279 736 1279 q 638 1253 664 1279 q 611 1190 611 1226 m 369 1190 q 396 1128 369 1154 q 458 1101 422 1101 q 521 1128 494 1101 q 547 1190 547 1154 q 521 1253 547 1226 q 458 1279 494 1279 q 396 1253 422 1279 q 369 1190 369 1226 m 285 492 q 294 693 285 601 q 335 851 304 785 q 424 955 365 918 q 579 992 482 992 q 742 952 683 992 q 831 845 801 913 q 866 690 860 778 q 872 504 872 601 q 865 303 872 396 q 828 144 857 211 q 740 38 799 76 q 579 0 682 0 q 445 22 501 0 q 353 101 389 44 q 301 252 318 157 q 285 492 285 347 m 58 492 q 101 290 58 383 q 216 128 144 197 q 382 20 288 60 q 579 -19 476 -19 q 777 22 683 -19 q 942 133 871 63 q 1056 298 1014 204 q 1099 496 1099 392 q 1053 710 1099 615 q 935 872 1008 806 q 769 975 863 939 q 579 1011 675 1011 q 397 974 490 1011 q 229 869 304 938 q 106 706 154 801 q 58 492 58 610 z "},"":{"ha":824,"x_min":104,"x_max":718,"o":"m 411 315 l 700 26 l 718 46 l 431 333 l 718 621 l 700 640 l 411 351 l 122 640 l 104 621 l 392 333 l 104 46 l 122 26 l 411 315 z "},"":{"ha":1157,"x_min":58,"x_max":1099,"o":"m 331 46 l 258 -93 l 278 -103 l 349 35 q 579 -19 457 -19 q 777 22 683 -19 q 942 133 871 63 q 1056 298 1014 204 q 1099 496 1099 392 q 1077 647 1099 578 q 1018 774 1056 717 q 930 876 981 832 q 821 951 879 921 l 889 1085 l 869 1094 l 801 960 q 579 1011 693 1011 q 397 974 490 1011 q 229 869 304 938 q 106 706 154 801 q 58 492 58 610 q 78 351 58 418 q 135 227 99 285 q 221 124 171 169 q 331 46 271 78 m 371 78 l 796 904 q 838 827 822 871 q 860 732 853 783 q 870 623 868 681 q 872 504 872 565 q 865 303 872 396 q 828 144 857 211 q 740 38 799 76 q 579 0 682 0 q 458 17 508 0 q 371 78 407 33 m 781 921 l 357 97 q 302 250 319 156 q 285 492 285 344 q 294 693 285 601 q 335 851 304 785 q 424 955 365 918 q 579 992 482 992 q 699 974 650 992 q 781 921 747 956 z "},"":{"ha":1081,"x_min":44,"x_max":1050,"o":"m 642 1058 l 519 1303 q 501 1332 513 1318 q 461 1346 489 1346 q 433 1335 450 1346 q 415 1304 415 1325 q 417 1288 415 1299 q 428 1267 419 1276 l 624 1058 l 642 1058 m 44 989 l 44 969 l 174 969 l 174 321 q 188 197 174 258 q 245 88 201 136 q 371 10 289 40 q 588 -19 453 -19 q 728 -1 671 -19 q 822 48 785 18 q 879 115 860 78 q 908 190 899 153 q 919 262 918 228 q 921 318 921 296 l 921 969 l 1050 969 l 1050 989 l 772 989 l 772 969 l 899 969 l 899 317 q 897 265 899 296 q 888 198 896 233 q 861 127 879 163 q 810 63 843 92 q 726 17 776 35 q 600 0 675 0 q 478 30 524 0 q 410 108 433 60 q 381 219 388 157 q 375 346 375 281 l 375 969 l 503 969 l 503 989 l 44 989 z "},"":{"ha":1081,"x_min":44,"x_max":1050,"o":"m 644 1303 l 522 1058 l 540 1058 l 736 1267 q 747 1288 744 1276 q 749 1304 749 1299 q 731 1335 749 1325 q 703 1346 714 1346 q 663 1332 675 1346 q 644 1303 651 1318 m 44 989 l 44 969 l 174 969 l 174 321 q 188 197 174 258 q 245 88 201 136 q 371 10 289 40 q 588 -19 453 -19 q 728 -1 671 -19 q 822 48 785 18 q 879 115 860 78 q 908 190 899 153 q 919 262 918 228 q 921 318 921 296 l 921 969 l 1050 969 l 1050 989 l 772 989 l 772 969 l 899 969 l 899 317 q 897 265 899 296 q 888 198 896 233 q 861 127 879 163 q 810 63 843 92 q 726 17 776 35 q 600 0 675 0 q 478 30 524 0 q 410 108 433 60 q 381 219 388 157 q 375 346 375 281 l 375 969 l 503 969 l 503 989 l 44 989 z "},"":{"ha":1081,"x_min":44,"x_max":1050,"o":"m 532 1332 l 381 1058 l 397 1058 l 582 1235 l 767 1058 l 783 1058 l 633 1332 l 532 1332 m 44 989 l 44 969 l 174 969 l 174 321 q 188 197 174 258 q 245 88 201 136 q 371 10 289 40 q 588 -19 453 -19 q 728 -1 671 -19 q 822 48 785 18 q 879 115 860 78 q 908 190 899 153 q 919 262 918 228 q 921 318 921 296 l 921 969 l 1050 969 l 1050 989 l 772 989 l 772 969 l 899 969 l 899 317 q 897 265 899 296 q 888 198 896 233 q 861 127 879 163 q 810 63 843 92 q 726 17 776 35 q 600 0 675 0 q 478 30 524 0 q 410 108 433 60 q 381 219 388 157 q 375 346 375 281 l 375 969 l 503 969 l 503 989 l 44 989 z "},"":{"ha":1081,"x_min":44,"x_max":1050,"o":"m 614 1190 q 640 1128 614 1154 q 703 1101 667 1101 q 765 1128 739 1101 q 792 1190 792 1154 q 765 1253 792 1226 q 703 1279 739 1279 q 640 1253 667 1279 q 614 1190 614 1226 m 372 1190 q 399 1128 372 1154 q 461 1101 425 1101 q 524 1128 497 1101 q 550 1190 550 1154 q 524 1253 550 1226 q 461 1279 497 1279 q 399 1253 425 1279 q 372 1190 372 1226 m 44 989 l 44 969 l 174 969 l 174 321 q 188 197 174 258 q 245 88 201 136 q 371 10 289 40 q 588 -19 453 -19 q 728 -1 671 -19 q 822 48 785 18 q 879 115 860 78 q 908 190 899 153 q 919 262 918 228 q 921 318 921 296 l 921 969 l 1050 969 l 1050 989 l 772 989 l 772 969 l 899 969 l 899 317 q 897 265 899 296 q 888 198 896 233 q 861 127 879 163 q 810 63 843 92 q 726 17 776 35 q 600 0 675 0 q 478 30 524 0 q 410 108 433 60 q 381 219 388 157 q 375 346 375 281 l 375 969 l 503 969 l 503 989 l 44 989 z "},"":{"ha":978,"x_min":-21,"x_max":1000,"o":"m 593 1303 l 471 1058 l 489 1058 l 685 1267 q 695 1288 693 1276 q 697 1304 697 1299 q 680 1335 697 1325 q 651 1346 663 1346 q 612 1332 624 1346 q 593 1303 600 1318 m -21 989 l -21 969 l 88 969 l 410 407 l 410 19 l 282 19 l 282 0 l 740 0 l 740 19 l 611 19 l 611 460 l 879 969 l 1000 969 l 1000 989 l 735 989 l 735 969 l 856 969 l 600 485 l 317 969 l 426 969 l 426 989 l -21 989 z "},"":{"ha":900,"x_min":47,"x_max":869,"o":"m 376 325 l 376 804 q 401 807 388 806 q 431 808 415 808 q 597 744 551 808 q 643 560 643 681 q 590 378 643 432 q 419 325 538 325 l 376 325 m 376 19 l 376 306 l 433 306 q 626 326 544 306 q 763 383 708 347 q 843 466 817 418 q 869 568 869 514 q 828 699 869 649 q 726 778 788 750 q 593 817 665 807 q 458 828 521 828 l 376 828 l 376 969 l 504 969 l 504 989 l 47 989 l 47 969 l 175 969 l 175 19 l 47 19 l 47 0 l 504 0 l 504 19 l 376 19 z "},"":{"ha":900,"x_min":47,"x_max":840,"o":"m 47 19 l 47 0 l 310 0 l 310 753 q 317 838 310 796 q 344 911 324 879 q 403 963 365 943 q 501 983 440 983 q 549 976 524 983 q 594 951 574 968 q 629 905 615 933 q 643 835 643 876 q 611 733 643 774 q 540 657 579 692 q 469 588 501 622 q 438 506 438 553 q 458 437 438 468 q 510 376 479 406 q 576 319 540 347 q 643 262 613 292 q 694 198 674 232 q 715 124 715 164 q 710 88 715 110 q 689 47 704 67 q 647 14 674 28 q 578 0 621 0 q 538 9 556 0 q 519 43 519 18 q 527 85 519 58 q 535 129 535 113 q 511 169 535 157 q 464 182 488 182 q 404 163 431 182 q 378 107 378 143 q 397 45 378 69 q 443 7 415 21 q 505 -12 471 -7 q 568 -18 539 -18 q 674 -1 625 -18 q 760 48 724 17 q 819 122 797 79 q 840 213 840 164 q 820 299 840 261 q 770 367 800 336 q 705 425 740 399 q 640 478 669 451 q 590 532 610 504 q 569 594 569 560 q 585 646 569 622 q 620 697 601 669 q 655 760 639 725 q 671 844 671 794 q 664 892 671 864 q 634 947 657 921 q 569 992 611 974 q 458 1011 528 1011 q 330 990 392 1011 q 219 922 268 969 q 156 822 171 874 q 140 704 140 771 l 140 19 l 47 19 z "},"":{"ha":721,"x_min":58,"x_max":704,"o":"m 421 735 l 299 979 q 280 1008 292 994 q 240 1022 268 1022 q 212 1012 229 1022 q 194 981 194 1001 q 197 964 194 975 q 207 943 199 953 l 403 735 l 421 735 m 424 344 l 424 161 q 415 92 424 121 q 393 47 407 64 q 362 21 379 29 q 326 13 344 13 q 276 27 294 13 q 249 63 258 42 q 238 106 240 83 q 236 144 236 128 q 249 213 236 186 q 283 257 263 239 q 331 287 304 275 q 383 311 357 299 q 410 328 403 321 q 421 344 418 336 l 424 344 m 704 22 l 692 35 q 669 15 681 22 q 639 8 657 8 q 601 28 608 8 q 593 75 593 49 l 593 419 q 573 516 593 478 q 519 576 553 554 q 438 607 485 599 q 339 615 392 615 q 251 606 293 615 q 175 577 208 596 q 122 530 142 558 q 101 465 101 501 q 109 428 101 442 q 128 406 117 414 q 153 397 139 399 q 182 394 168 394 q 206 395 192 394 q 234 401 221 396 q 257 419 247 407 q 267 451 267 431 q 265 467 267 456 q 263 490 264 478 q 260 513 261 503 q 258 528 258 524 q 282 581 258 567 q 338 596 306 596 q 406 565 388 596 q 424 497 424 535 l 424 413 q 416 369 424 386 q 389 340 408 353 q 334 315 369 326 q 242 286 299 303 q 174 263 207 275 q 116 233 142 251 q 74 187 90 214 q 58 119 58 160 q 76 53 58 81 q 124 11 94 26 q 188 -11 153 -4 q 256 -18 222 -18 q 368 1 329 -18 q 429 76 407 21 l 432 76 q 474 7 440 32 q 579 -18 508 -18 q 648 -12 611 -18 q 704 22 685 -7 z "},"":{"ha":721,"x_min":58,"x_max":704,"o":"m 424 979 l 301 735 l 319 735 l 515 943 q 526 964 524 953 q 528 981 528 975 q 510 1012 528 1001 q 482 1022 493 1022 q 442 1008 454 1022 q 424 979 431 994 m 424 344 l 424 161 q 415 92 424 121 q 393 47 407 64 q 362 21 379 29 q 326 13 344 13 q 276 27 294 13 q 249 63 258 42 q 238 106 240 83 q 236 144 236 128 q 249 213 236 186 q 283 257 263 239 q 331 287 304 275 q 383 311 357 299 q 410 328 403 321 q 421 344 418 336 l 424 344 m 704 22 l 692 35 q 669 15 681 22 q 639 8 657 8 q 601 28 608 8 q 593 75 593 49 l 593 419 q 573 516 593 478 q 519 576 553 554 q 438 607 485 599 q 339 615 392 615 q 251 606 293 615 q 175 577 208 596 q 122 530 142 558 q 101 465 101 501 q 109 428 101 442 q 128 406 117 414 q 153 397 139 399 q 182 394 168 394 q 206 395 192 394 q 234 401 221 396 q 257 419 247 407 q 267 451 267 431 q 265 467 267 456 q 263 490 264 478 q 260 513 261 503 q 258 528 258 524 q 282 581 258 567 q 338 596 306 596 q 406 565 388 596 q 424 497 424 535 l 424 413 q 416 369 424 386 q 389 340 408 353 q 334 315 369 326 q 242 286 299 303 q 174 263 207 275 q 116 233 142 251 q 74 187 90 214 q 58 119 58 160 q 76 53 58 81 q 124 11 94 26 q 188 -11 153 -4 q 256 -18 222 -18 q 368 1 329 -18 q 429 76 407 21 l 432 76 q 474 7 440 32 q 579 -18 508 -18 q 648 -12 611 -18 q 704 22 685 -7 z "},"":{"ha":721,"x_min":58,"x_max":704,"o":"m 311 1008 l 160 735 l 176 735 l 361 911 l 546 735 l 563 735 l 413 1008 l 311 1008 m 424 344 l 424 161 q 415 92 424 121 q 393 47 407 64 q 362 21 379 29 q 326 13 344 13 q 276 27 294 13 q 249 63 258 42 q 238 106 240 83 q 236 144 236 128 q 249 213 236 186 q 283 257 263 239 q 331 287 304 275 q 383 311 357 299 q 410 328 403 321 q 421 344 418 336 l 424 344 m 704 22 l 692 35 q 669 15 681 22 q 639 8 657 8 q 601 28 608 8 q 593 75 593 49 l 593 419 q 573 516 593 478 q 519 576 553 554 q 438 607 485 599 q 339 615 392 615 q 251 606 293 615 q 175 577 208 596 q 122 530 142 558 q 101 465 101 501 q 109 428 101 442 q 128 406 117 414 q 153 397 139 399 q 182 394 168 394 q 206 395 192 394 q 234 401 221 396 q 257 419 247 407 q 267 451 267 431 q 265 467 267 456 q 263 490 264 478 q 260 513 261 503 q 258 528 258 524 q 282 581 258 567 q 338 596 306 596 q 406 565 388 596 q 424 497 424 535 l 424 413 q 416 369 424 386 q 389 340 408 353 q 334 315 369 326 q 242 286 299 303 q 174 263 207 275 q 116 233 142 251 q 74 187 90 214 q 58 119 58 160 q 76 53 58 81 q 124 11 94 26 q 188 -11 153 -4 q 256 -18 222 -18 q 368 1 329 -18 q 429 76 407 21 l 432 76 q 474 7 440 32 q 579 -18 508 -18 q 648 -12 611 -18 q 704 22 685 -7 z "},"":{"ha":721,"x_min":58,"x_max":704,"o":"m 164 790 l 181 828 q 199 849 188 843 q 219 856 210 856 q 265 847 236 856 q 328 827 294 838 q 392 808 361 817 q 444 799 424 799 q 499 817 476 799 q 538 860 522 835 q 564 914 554 886 q 578 960 574 942 l 558 960 q 555 947 558 957 q 544 925 551 936 q 527 905 538 914 q 503 896 517 896 q 465 905 497 896 q 396 924 433 914 q 325 943 358 935 q 282 951 292 951 q 245 944 267 951 q 211 926 224 938 q 194 908 201 918 q 179 882 186 897 q 164 844 172 867 q 144 790 156 822 l 164 790 m 424 344 l 424 161 q 415 92 424 121 q 393 47 407 64 q 362 21 379 29 q 326 13 344 13 q 276 27 294 13 q 249 63 258 42 q 238 106 240 83 q 236 144 236 128 q 249 213 236 186 q 283 257 263 239 q 331 287 304 275 q 383 311 357 299 q 410 328 403 321 q 421 344 418 336 l 424 344 m 704 22 l 692 35 q 669 15 681 22 q 639 8 657 8 q 601 28 608 8 q 593 75 593 49 l 593 419 q 573 516 593 478 q 519 576 553 554 q 438 607 485 599 q 339 615 392 615 q 251 606 293 615 q 175 577 208 596 q 122 530 142 558 q 101 465 101 501 q 109 428 101 442 q 128 406 117 414 q 153 397 139 399 q 182 394 168 394 q 206 395 192 394 q 234 401 221 396 q 257 419 247 407 q 267 451 267 431 q 265 467 267 456 q 263 490 264 478 q 260 513 261 503 q 258 528 258 524 q 282 581 258 567 q 338 596 306 596 q 406 565 388 596 q 424 497 424 535 l 424 413 q 416 369 424 386 q 389 340 408 353 q 334 315 369 326 q 242 286 299 303 q 174 263 207 275 q 116 233 142 251 q 74 187 90 214 q 58 119 58 160 q 76 53 58 81 q 124 11 94 26 q 188 -11 153 -4 q 256 -18 222 -18 q 368 1 329 -18 q 429 76 407 21 l 432 76 q 474 7 440 32 q 579 -18 508 -18 q 648 -12 611 -18 q 704 22 685 -7 z "},"":{"ha":721,"x_min":58,"x_max":704,"o":"m 393 894 q 419 832 393 858 q 482 806 446 806 q 544 832 518 806 q 571 894 571 858 q 544 957 571 931 q 482 983 518 983 q 419 957 446 983 q 393 894 393 931 m 151 894 q 178 832 151 858 q 240 806 204 806 q 303 832 276 806 q 329 894 329 858 q 303 957 329 931 q 240 983 276 983 q 178 957 204 983 q 151 894 151 931 m 424 344 l 424 161 q 415 92 424 121 q 393 47 407 64 q 362 21 379 29 q 326 13 344 13 q 276 27 294 13 q 249 63 258 42 q 238 106 240 83 q 236 144 236 128 q 249 213 236 186 q 283 257 263 239 q 331 287 304 275 q 383 311 357 299 q 410 328 403 321 q 421 344 418 336 l 424 344 m 704 22 l 692 35 q 669 15 681 22 q 639 8 657 8 q 601 28 608 8 q 593 75 593 49 l 593 419 q 573 516 593 478 q 519 576 553 554 q 438 607 485 599 q 339 615 392 615 q 251 606 293 615 q 175 577 208 596 q 122 530 142 558 q 101 465 101 501 q 109 428 101 442 q 128 406 117 414 q 153 397 139 399 q 182 394 168 394 q 206 395 192 394 q 234 401 221 396 q 257 419 247 407 q 267 451 267 431 q 265 467 267 456 q 263 490 264 478 q 260 513 261 503 q 258 528 258 524 q 282 581 258 567 q 338 596 306 596 q 406 565 388 596 q 424 497 424 535 l 424 413 q 416 369 424 386 q 389 340 408 353 q 334 315 369 326 q 242 286 299 303 q 174 263 207 275 q 116 233 142 251 q 74 187 90 214 q 58 119 58 160 q 76 53 58 81 q 124 11 94 26 q 188 -11 153 -4 q 256 -18 222 -18 q 368 1 329 -18 q 429 76 407 21 l 432 76 q 474 7 440 32 q 579 -18 508 -18 q 648 -12 611 -18 q 704 22 685 -7 z "},"":{"ha":721,"x_min":58,"x_max":704,"o":"m 361 996 q 414 964 401 996 q 426 874 426 932 q 414 783 426 815 q 361 751 401 751 q 308 783 321 751 q 296 874 296 815 q 308 964 296 932 q 361 996 321 996 m 507 874 q 498 920 507 896 q 471 965 489 944 q 426 998 453 985 q 361 1011 399 1011 q 297 998 324 1011 q 251 965 269 985 q 224 920 233 944 q 215 874 215 896 q 224 827 215 851 q 251 783 233 803 q 297 749 269 763 q 361 736 324 736 q 426 749 399 736 q 471 783 453 763 q 498 827 489 803 q 507 874 507 851 m 424 344 l 424 161 q 415 92 424 121 q 393 47 407 64 q 362 21 379 29 q 326 13 344 13 q 276 27 294 13 q 249 63 258 42 q 238 106 240 83 q 236 144 236 128 q 249 213 236 186 q 283 257 263 239 q 331 287 304 275 q 383 311 357 299 q 410 328 403 321 q 421 344 418 336 l 424 344 m 704 22 l 692 35 q 669 15 681 22 q 639 8 657 8 q 601 28 608 8 q 593 75 593 49 l 593 419 q 573 516 593 478 q 519 576 553 554 q 438 607 485 599 q 339 615 392 615 q 251 606 293 615 q 175 577 208 596 q 122 530 142 558 q 101 465 101 501 q 109 428 101 442 q 128 406 117 414 q 153 397 139 399 q 182 394 168 394 q 206 395 192 394 q 234 401 221 396 q 257 419 247 407 q 267 451 267 431 q 265 467 267 456 q 263 490 264 478 q 260 513 261 503 q 258 528 258 524 q 282 581 258 567 q 338 596 306 596 q 406 565 388 596 q 424 497 424 535 l 424 413 q 416 369 424 386 q 389 340 408 353 q 334 315 369 326 q 242 286 299 303 q 174 263 207 275 q 116 233 142 251 q 74 187 90 214 q 58 119 58 160 q 76 53 58 81 q 124 11 94 26 q 188 -11 153 -4 q 256 -18 222 -18 q 368 1 329 -18 q 429 76 407 21 l 432 76 q 474 7 440 32 q 579 -18 508 -18 q 648 -12 611 -18 q 704 22 685 -7 z "},"":{"ha":1029,"x_min":43,"x_max":974,"o":"m 786 368 l 586 368 q 590 444 588 404 q 603 517 593 483 q 635 574 614 551 q 696 596 657 596 q 748 581 729 596 q 775 543 767 565 q 785 499 783 521 q 786 461 786 476 l 786 368 m 417 344 l 417 161 q 407 92 417 121 q 382 47 397 64 q 348 21 367 29 q 311 13 329 13 q 261 27 279 13 q 234 63 243 42 q 223 106 225 83 q 221 144 221 128 q 235 215 221 189 q 272 257 249 240 q 324 287 294 274 q 382 319 353 300 q 401 331 390 325 q 414 344 411 336 l 417 344 m 43 119 q 61 53 43 81 q 108 11 79 26 q 172 -11 138 -4 q 240 -18 207 -18 q 335 -4 299 -18 q 393 31 372 10 q 422 81 414 53 q 433 136 431 108 l 436 136 q 546 17 472 51 q 719 -18 619 -18 q 824 -1 781 -18 q 896 42 867 17 q 942 98 925 68 q 965 154 958 128 l 946 161 q 933 122 944 149 q 897 69 921 96 q 834 21 872 42 q 740 0 796 0 q 656 26 686 0 q 610 94 625 53 q 590 185 594 135 q 586 286 586 236 l 586 349 l 974 349 q 949 470 974 419 q 885 553 924 521 q 799 600 847 585 q 706 615 751 615 q 617 599 660 615 q 540 554 575 582 q 505 578 524 567 q 462 597 486 589 q 406 610 438 606 q 332 615 375 615 q 244 606 286 615 q 168 577 201 596 q 115 530 135 558 q 94 465 94 501 q 102 428 94 442 q 121 406 110 414 q 147 397 132 399 q 175 394 161 394 q 199 395 185 394 q 227 401 214 396 q 250 419 240 407 q 260 451 260 431 q 258 467 260 456 q 256 490 257 478 q 253 513 254 503 q 251 528 251 524 q 275 581 251 567 q 331 596 299 596 q 378 586 361 596 q 404 563 396 576 q 415 536 413 550 q 417 514 417 522 l 417 413 q 409 369 417 386 q 381 340 401 353 q 323 315 360 326 q 226 286 286 303 q 159 263 192 275 q 101 233 126 251 q 59 187 75 214 q 43 119 43 160 z "},"":{"ha":668,"x_min":49,"x_max":638,"o":"m 264 -108 l 283 -128 q 335 -114 306 -114 q 365 -123 354 -114 q 381 -145 375 -132 q 387 -175 386 -158 q 388 -206 388 -192 q 385 -240 388 -222 q 375 -272 382 -257 q 356 -295 368 -286 q 322 -304 343 -304 q 279 -297 294 -304 q 242 -274 264 -289 l 229 -290 q 281 -322 257 -311 q 340 -332 304 -332 q 398 -324 369 -332 q 449 -299 426 -315 q 484 -258 471 -282 q 497 -200 497 -233 q 487 -153 497 -175 q 458 -115 476 -131 q 418 -91 440 -100 q 371 -82 396 -82 q 333 -88 353 -82 q 299 -101 314 -94 l 296 -99 l 376 -18 l 392 -18 q 502 0 458 -18 q 574 44 546 18 q 616 99 601 69 q 638 154 631 129 l 618 161 q 603 122 615 149 q 568 67 592 94 q 506 20 544 40 q 410 0 467 0 q 315 28 350 0 q 263 100 281 56 q 240 199 244 144 q 236 307 236 253 q 241 417 236 365 q 262 509 246 469 q 307 572 278 549 q 386 596 336 596 q 447 580 422 596 q 471 536 471 564 q 467 517 471 531 q 460 488 464 503 q 453 458 457 472 q 450 439 450 444 q 477 390 450 401 q 536 378 504 378 q 603 397 579 378 q 626 461 626 415 q 609 524 626 496 q 560 573 592 553 q 486 604 529 593 q 390 615 443 615 q 241 584 306 615 q 134 506 176 553 q 70 404 92 460 q 49 299 49 349 q 82 147 49 207 q 163 53 115 88 q 262 3 210 18 q 351 -14 314 -11 l 264 -108 z "},"":{"ha":694,"x_min":49,"x_max":646,"o":"m 407 735 l 285 979 q 266 1008 278 994 q 226 1022 254 1022 q 198 1012 215 1022 q 181 981 181 1001 q 183 964 181 975 q 193 943 185 953 l 389 735 l 407 735 m 458 368 l 236 368 q 241 444 238 404 q 257 517 244 483 q 295 574 269 551 q 368 596 321 596 q 420 581 401 596 q 447 543 439 565 q 457 499 456 521 q 458 461 458 476 l 458 368 m 236 349 l 646 349 q 621 470 646 419 q 557 553 596 521 q 469 600 518 585 q 372 615 421 615 q 245 588 304 615 q 142 517 186 561 q 74 417 99 474 q 49 300 49 360 q 75 166 49 225 q 148 66 101 107 q 257 3 194 25 q 392 -18 319 -18 q 496 -1 453 -18 q 568 42 539 17 q 614 98 597 68 q 638 154 631 128 l 618 161 q 605 122 617 149 q 569 69 593 96 q 506 21 544 42 q 413 0 468 0 q 315 26 350 0 q 263 94 281 53 q 240 185 244 135 q 236 286 236 236 l 236 349 z "},"":{"ha":694,"x_min":49,"x_max":646,"o":"m 410 979 l 288 735 l 306 735 l 501 943 q 512 964 510 953 q 514 981 514 975 q 497 1012 514 1001 q 468 1022 479 1022 q 428 1008 440 1022 q 410 979 417 994 m 458 368 l 236 368 q 241 444 238 404 q 257 517 244 483 q 295 574 269 551 q 368 596 321 596 q 420 581 401 596 q 447 543 439 565 q 457 499 456 521 q 458 461 458 476 l 458 368 m 236 349 l 646 349 q 621 470 646 419 q 557 553 596 521 q 469 600 518 585 q 372 615 421 615 q 245 588 304 615 q 142 517 186 561 q 74 417 99 474 q 49 300 49 360 q 75 166 49 225 q 148 66 101 107 q 257 3 194 25 q 392 -18 319 -18 q 496 -1 453 -18 q 568 42 539 17 q 614 98 597 68 q 638 154 631 128 l 618 161 q 605 122 617 149 q 569 69 593 96 q 506 21 544 42 q 413 0 468 0 q 315 26 350 0 q 263 94 281 53 q 240 185 244 135 q 236 286 236 236 l 236 349 z "},"":{"ha":694,"x_min":49,"x_max":646,"o":"m 297 1008 l 146 735 l 163 735 l 347 911 l 532 735 l 549 735 l 399 1008 l 297 1008 m 458 368 l 236 368 q 241 444 238 404 q 257 517 244 483 q 295 574 269 551 q 368 596 321 596 q 420 581 401 596 q 447 543 439 565 q 457 499 456 521 q 458 461 458 476 l 458 368 m 236 349 l 646 349 q 621 470 646 419 q 557 553 596 521 q 469 600 518 585 q 372 615 421 615 q 245 588 304 615 q 142 517 186 561 q 74 417 99 474 q 49 300 49 360 q 75 166 49 225 q 148 66 101 107 q 257 3 194 25 q 392 -18 319 -18 q 496 -1 453 -18 q 568 42 539 17 q 614 98 597 68 q 638 154 631 128 l 618 161 q 605 122 617 149 q 569 69 593 96 q 506 21 544 42 q 413 0 468 0 q 315 26 350 0 q 263 94 281 53 q 240 185 244 135 q 236 286 236 236 l 236 349 z "},"":{"ha":694,"x_min":49,"x_max":646,"o":"m 379 894 q 406 832 379 858 q 468 806 432 806 q 531 832 504 806 q 557 894 557 858 q 531 957 557 931 q 468 983 504 983 q 406 957 432 983 q 379 894 379 931 m 138 894 q 164 832 138 858 q 226 806 190 806 q 289 832 263 806 q 315 894 315 858 q 289 957 315 931 q 226 983 263 983 q 164 957 190 983 q 138 894 138 931 m 458 368 l 236 368 q 241 444 238 404 q 257 517 244 483 q 295 574 269 551 q 368 596 321 596 q 420 581 401 596 q 447 543 439 565 q 457 499 456 521 q 458 461 458 476 l 458 368 m 236 349 l 646 349 q 621 470 646 419 q 557 553 596 521 q 469 600 518 585 q 372 615 421 615 q 245 588 304 615 q 142 517 186 561 q 74 417 99 474 q 49 300 49 360 q 75 166 49 225 q 148 66 101 107 q 257 3 194 25 q 392 -18 319 -18 q 496 -1 453 -18 q 568 42 539 17 q 614 98 597 68 q 638 154 631 128 l 618 161 q 605 122 617 149 q 569 69 593 96 q 506 21 544 42 q 413 0 468 0 q 315 26 350 0 q 263 94 281 53 q 240 185 244 135 q 236 286 236 236 l 236 349 z "},"":{"ha":438,"x_min":50,"x_max":406,"o":"m 279 735 l 157 979 q 138 1008 150 994 q 99 1022 126 1022 q 70 1012 88 1022 q 53 981 53 1001 q 55 964 53 975 q 65 943 57 953 l 261 735 l 279 735 m 50 596 l 50 576 l 143 576 l 143 19 l 50 19 l 50 0 l 406 0 l 406 19 l 313 19 l 313 596 l 50 596 z "},"":{"ha":438,"x_min":50,"x_max":406,"o":"m 282 979 l 160 735 l 178 735 l 374 943 q 384 964 382 953 q 386 981 386 975 q 369 1012 386 1001 q 340 1022 351 1022 q 301 1008 313 1022 q 282 979 289 994 m 50 596 l 50 576 l 143 576 l 143 19 l 50 19 l 50 0 l 406 0 l 406 19 l 313 19 l 313 596 l 50 596 z "},"":{"ha":438,"x_min":18,"x_max":421,"o":"m 169 1008 l 18 735 l 35 735 l 219 911 l 404 735 l 421 735 l 271 1008 l 169 1008 m 50 596 l 50 576 l 143 576 l 143 19 l 50 19 l 50 0 l 406 0 l 406 19 l 313 19 l 313 596 l 50 596 z "},"":{"ha":438,"x_min":10,"x_max":429,"o":"m 251 894 q 278 832 251 858 q 340 806 304 806 q 403 832 376 806 q 429 894 429 858 q 403 957 429 931 q 340 983 376 983 q 278 957 304 983 q 251 894 251 931 m 10 894 q 36 832 10 858 q 99 806 63 806 q 161 832 135 806 q 188 894 188 858 q 161 957 188 931 q 99 983 135 983 q 36 957 63 983 q 10 894 10 931 m 50 596 l 50 576 l 143 576 l 143 19 l 50 19 l 50 0 l 406 0 l 406 19 l 313 19 l 313 596 l 50 596 z "},"":{"ha":772,"x_min":47,"x_max":725,"o":"m 235 299 q 238 408 235 354 q 256 503 242 461 q 301 570 271 544 q 386 596 332 596 q 471 570 440 596 q 516 503 501 544 q 534 408 531 461 q 538 299 538 354 q 534 189 538 243 q 516 93 531 135 q 471 26 501 51 q 386 0 440 0 q 301 26 332 0 q 256 93 271 51 q 238 189 242 135 q 235 299 235 243 m 343 851 l 185 747 l 196 732 l 356 838 q 417 757 392 799 q 461 679 443 715 q 489 616 479 643 q 501 578 499 589 q 450 605 474 594 q 386 615 426 615 q 252 590 314 615 q 144 521 190 564 q 73 420 99 478 q 47 299 47 363 q 73 176 47 233 q 144 75 99 118 q 252 7 190 32 q 386 -18 314 -18 q 435 -15 403 -18 q 504 1 467 -11 q 581 36 542 13 q 653 99 621 60 q 705 198 685 139 q 725 340 725 257 q 648 629 725 500 q 408 871 571 758 l 564 974 l 553 989 l 392 883 q 349 910 369 897 q 303 935 328 922 q 250 960 279 947 q 183 989 221 974 l 172 969 q 269 914 228 942 q 343 851 310 886 z "},"":{"ha":875,"x_min":58,"x_max":838,"o":"m 240 790 l 257 828 q 275 849 264 843 q 296 856 286 856 q 342 847 313 856 q 404 827 371 838 q 469 808 438 817 q 521 799 500 799 q 576 817 553 799 q 615 860 599 835 q 640 914 631 886 q 654 960 650 942 l 635 960 q 631 947 635 957 q 621 925 628 936 q 603 905 614 914 q 579 896 593 896 q 542 905 574 896 q 472 924 510 914 q 401 943 435 935 q 358 951 368 951 q 322 944 343 951 q 288 926 300 938 q 270 908 278 918 q 256 882 263 897 q 240 844 249 867 q 221 790 232 822 l 240 790 m 58 19 l 58 0 l 407 0 l 407 19 l 319 19 l 319 317 q 333 428 319 381 q 370 507 347 475 q 424 555 393 539 q 488 571 454 571 q 551 544 528 571 q 575 458 575 517 l 575 19 l 489 19 l 489 0 l 838 0 l 838 19 l 744 19 l 744 411 q 694 556 744 503 q 551 608 643 608 q 447 590 489 608 q 379 546 406 571 q 339 495 353 521 q 319 457 325 469 l 317 457 l 317 596 l 58 596 l 58 576 l 150 576 l 150 19 l 58 19 z "},"":{"ha":772,"x_min":47,"x_max":725,"o":"m 446 735 l 324 979 q 305 1008 317 994 q 265 1022 293 1022 q 237 1012 254 1022 q 219 981 219 1001 q 222 964 219 975 q 232 943 224 953 l 428 735 l 446 735 m 386 0 q 301 26 332 0 q 256 93 271 51 q 238 189 242 135 q 235 299 235 243 q 238 408 235 354 q 256 503 242 461 q 301 570 271 544 q 386 596 332 596 q 471 570 440 596 q 516 503 501 544 q 534 408 531 461 q 538 299 538 354 q 534 189 538 243 q 516 93 531 135 q 471 26 501 51 q 386 0 440 0 m 386 615 q 252 590 314 615 q 144 521 190 564 q 73 420 99 478 q 47 299 47 363 q 73 176 47 233 q 144 75 99 118 q 252 7 190 32 q 386 -18 314 -18 q 520 7 458 -18 q 628 75 582 32 q 699 176 674 118 q 725 299 725 233 q 699 420 725 363 q 628 521 674 478 q 520 590 582 564 q 386 615 458 615 z "},"":{"ha":772,"x_min":47,"x_max":725,"o":"m 449 979 l 326 735 l 344 735 l 540 943 q 551 964 549 953 q 553 981 553 975 q 535 1012 553 1001 q 507 1022 518 1022 q 467 1008 479 1022 q 449 979 456 994 m 386 0 q 301 26 332 0 q 256 93 271 51 q 238 189 242 135 q 235 299 235 243 q 238 408 235 354 q 256 503 242 461 q 301 570 271 544 q 386 596 332 596 q 471 570 440 596 q 516 503 501 544 q 534 408 531 461 q 538 299 538 354 q 534 189 538 243 q 516 93 531 135 q 471 26 501 51 q 386 0 440 0 m 386 615 q 252 590 314 615 q 144 521 190 564 q 73 420 99 478 q 47 299 47 363 q 73 176 47 233 q 144 75 99 118 q 252 7 190 32 q 386 -18 314 -18 q 520 7 458 -18 q 628 75 582 32 q 699 176 674 118 q 725 299 725 233 q 699 420 725 363 q 628 521 674 478 q 520 590 582 564 q 386 615 458 615 z "},"":{"ha":772,"x_min":47,"x_max":725,"o":"m 336 1008 l 185 735 l 201 735 l 386 911 l 571 735 l 588 735 l 438 1008 l 336 1008 m 386 0 q 301 26 332 0 q 256 93 271 51 q 238 189 242 135 q 235 299 235 243 q 238 408 235 354 q 256 503 242 461 q 301 570 271 544 q 386 596 332 596 q 471 570 440 596 q 516 503 501 544 q 534 408 531 461 q 538 299 538 354 q 534 189 538 243 q 516 93 531 135 q 471 26 501 51 q 386 0 440 0 m 386 615 q 252 590 314 615 q 144 521 190 564 q 73 420 99 478 q 47 299 47 363 q 73 176 47 233 q 144 75 99 118 q 252 7 190 32 q 386 -18 314 -18 q 520 7 458 -18 q 628 75 582 32 q 699 176 674 118 q 725 299 725 233 q 699 420 725 363 q 628 521 674 478 q 520 590 582 564 q 386 615 458 615 z "},"":{"ha":772,"x_min":47,"x_max":725,"o":"m 189 790 l 206 828 q 224 849 213 843 q 244 856 235 856 q 290 847 261 856 q 353 827 319 838 q 417 808 386 817 q 469 799 449 799 q 524 817 501 799 q 563 860 547 835 q 589 914 579 886 q 603 960 599 942 l 583 960 q 580 947 583 957 q 569 925 576 936 q 552 905 563 914 q 528 896 542 896 q 490 905 522 896 q 421 924 458 914 q 350 943 383 935 q 307 951 317 951 q 270 944 292 951 q 236 926 249 938 q 219 908 226 918 q 204 882 211 897 q 189 844 197 867 q 169 790 181 822 l 189 790 m 386 0 q 301 26 332 0 q 256 93 271 51 q 238 189 242 135 q 235 299 235 243 q 238 408 235 354 q 256 503 242 461 q 301 570 271 544 q 386 596 332 596 q 471 570 440 596 q 516 503 501 544 q 534 408 531 461 q 538 299 538 354 q 534 189 538 243 q 516 93 531 135 q 471 26 501 51 q 386 0 440 0 m 386 615 q 252 590 314 615 q 144 521 190 564 q 73 420 99 478 q 47 299 47 363 q 73 176 47 233 q 144 75 99 118 q 252 7 190 32 q 386 -18 314 -18 q 520 7 458 -18 q 628 75 582 32 q 699 176 674 118 q 725 299 725 233 q 699 420 725 363 q 628 521 674 478 q 520 590 582 564 q 386 615 458 615 z "},"":{"ha":772,"x_min":47,"x_max":725,"o":"m 418 894 q 444 832 418 858 q 507 806 471 806 q 569 832 543 806 q 596 894 596 858 q 569 957 596 931 q 507 983 543 983 q 444 957 471 983 q 418 894 418 931 m 176 894 q 203 832 176 858 q 265 806 229 806 q 328 832 301 806 q 354 894 354 858 q 328 957 354 931 q 265 983 301 983 q 203 957 229 983 q 176 894 176 931 m 386 0 q 301 26 332 0 q 256 93 271 51 q 238 189 242 135 q 235 299 235 243 q 238 408 235 354 q 256 503 242 461 q 301 570 271 544 q 386 596 332 596 q 471 570 440 596 q 516 503 501 544 q 534 408 531 461 q 538 299 538 354 q 534 189 538 243 q 516 93 531 135 q 471 26 501 51 q 386 0 440 0 m 386 615 q 252 590 314 615 q 144 521 190 564 q 73 420 99 478 q 47 299 47 363 q 73 176 47 233 q 144 75 99 118 q 252 7 190 32 q 386 -18 314 -18 q 520 7 458 -18 q 628 75 582 32 q 699 176 674 118 q 725 299 725 233 q 699 420 725 363 q 628 521 674 478 q 520 590 582 564 q 386 615 458 615 z "},"":{"ha":824,"x_min":78,"x_max":744,"o":"m 313 553 q 342 483 313 513 q 411 454 371 454 q 481 483 451 454 q 510 553 510 513 q 481 622 510 593 q 411 651 451 651 q 342 622 371 651 q 313 553 313 593 m 313 114 q 342 44 313 74 q 411 15 371 15 q 481 44 451 15 q 510 114 510 74 q 481 183 510 154 q 411 213 451 213 q 342 183 371 213 q 313 114 313 154 m 78 346 l 78 321 l 744 321 l 744 346 l 78 346 z "},"":{"ha":772,"x_min":47,"x_max":725,"o":"m 222 22 l 163 -92 l 182 -100 l 240 13 q 386 -18 303 -18 q 520 7 458 -18 q 628 75 582 32 q 699 176 674 118 q 725 299 725 233 q 674 468 725 392 q 535 582 622 544 l 592 692 l 572 700 l 515 590 q 386 615 456 615 q 252 590 314 615 q 144 521 190 564 q 73 420 99 478 q 47 299 47 363 q 95 136 47 210 q 222 22 143 63 m 493 546 l 260 94 q 239 188 243 135 q 235 299 235 240 q 238 408 235 354 q 256 503 242 461 q 301 570 271 544 q 386 596 332 596 q 451 583 425 596 q 493 546 476 569 m 269 68 l 506 525 q 533 422 528 482 q 538 299 538 363 q 534 189 538 243 q 516 93 531 135 q 471 26 501 51 q 386 0 440 0 q 313 18 340 0 q 269 68 285 36 z "},"":{"ha":849,"x_min":38,"x_max":799,"o":"m 485 735 l 363 979 q 344 1008 356 994 q 304 1022 332 1022 q 276 1012 293 1022 q 258 981 258 1001 q 260 964 258 975 q 271 943 263 953 l 467 735 l 485 735 m 38 596 l 38 576 l 131 576 l 131 175 q 182 31 131 74 q 331 -11 233 -11 q 393 -3 361 -11 q 453 20 425 4 q 504 59 482 36 q 538 113 526 82 l 540 113 l 540 0 l 799 0 l 799 19 l 707 19 l 707 596 l 446 596 l 446 576 l 538 576 l 538 218 q 527 146 538 181 q 498 85 517 111 q 453 44 479 60 q 394 29 426 29 q 321 66 342 29 q 300 156 300 103 l 300 596 l 38 596 z "},"":{"ha":849,"x_min":38,"x_max":799,"o":"m 488 979 l 365 735 l 383 735 l 579 943 q 590 964 588 953 q 592 981 592 975 q 574 1012 592 1001 q 546 1022 557 1022 q 506 1008 518 1022 q 488 979 494 994 m 38 596 l 38 576 l 131 576 l 131 175 q 182 31 131 74 q 331 -11 233 -11 q 393 -3 361 -11 q 453 20 425 4 q 504 59 482 36 q 538 113 526 82 l 540 113 l 540 0 l 799 0 l 799 19 l 707 19 l 707 596 l 446 596 l 446 576 l 538 576 l 538 218 q 527 146 538 181 q 498 85 517 111 q 453 44 479 60 q 394 29 426 29 q 321 66 342 29 q 300 156 300 103 l 300 596 l 38 596 z "},"":{"ha":849,"x_min":38,"x_max":799,"o":"m 375 1008 l 224 735 l 240 735 l 425 911 l 610 735 l 626 735 l 476 1008 l 375 1008 m 38 596 l 38 576 l 131 576 l 131 175 q 182 31 131 74 q 331 -11 233 -11 q 393 -3 361 -11 q 453 20 425 4 q 504 59 482 36 q 538 113 526 82 l 540 113 l 540 0 l 799 0 l 799 19 l 707 19 l 707 596 l 446 596 l 446 576 l 538 576 l 538 218 q 527 146 538 181 q 498 85 517 111 q 453 44 479 60 q 394 29 426 29 q 321 66 342 29 q 300 156 300 103 l 300 596 l 38 596 z "},"":{"ha":849,"x_min":38,"x_max":799,"o":"m 451 894 q 478 832 451 858 q 540 806 504 806 q 603 832 576 806 q 629 894 629 858 q 603 957 629 931 q 540 983 576 983 q 478 957 504 983 q 451 894 451 931 m 210 894 q 236 832 210 858 q 299 806 263 806 q 361 832 335 806 q 388 894 388 858 q 361 957 388 931 q 299 983 335 983 q 236 957 263 983 q 210 894 210 931 m 38 596 l 38 576 l 131 576 l 131 175 q 182 31 131 74 q 331 -11 233 -11 q 393 -3 361 -11 q 453 20 425 4 q 504 59 482 36 q 538 113 526 82 l 540 113 l 540 0 l 799 0 l 799 19 l 707 19 l 707 596 l 446 596 l 446 576 l 538 576 l 538 218 q 527 146 538 181 q 498 85 517 111 q 453 44 479 60 q 394 29 426 29 q 321 66 342 29 q 300 156 300 103 l 300 596 l 38 596 z "},"":{"ha":668,"x_min":-44,"x_max":678,"o":"m 431 979 l 308 735 l 326 735 l 522 943 q 533 964 531 953 q 535 981 535 975 q 517 1012 535 1001 q 489 1022 500 1022 q 449 1008 461 1022 q 431 979 438 994 m 415 175 l 246 576 l 343 576 l 343 596 l -10 596 l -10 576 l 64 576 l 325 -49 l 265 -197 q 242 -253 256 -222 q 212 -310 229 -283 q 173 -356 194 -337 q 126 -374 151 -374 q 107 -366 115 -374 q 99 -343 99 -358 q 108 -307 99 -322 q 117 -267 117 -292 q 93 -223 117 -237 q 43 -208 69 -208 q -19 -226 7 -208 q -44 -285 -44 -244 q -5 -367 -44 -337 q 97 -397 35 -397 q 190 -368 156 -397 q 253 -276 225 -339 q 312 -138 281 -217 q 384 43 343 -60 q 481 278 425 146 q 614 576 536 410 l 678 576 l 678 596 l 476 596 l 476 576 l 592 576 l 415 175 z "},"":{"ha":824,"x_min":43,"x_max":771,"o":"m 304 297 q 309 396 304 343 q 329 493 314 449 q 375 567 344 538 q 457 596 406 596 q 517 581 493 596 q 556 531 540 565 q 577 438 571 496 q 583 297 583 381 q 580 174 583 229 q 565 81 576 119 q 530 21 553 42 q 468 0 507 0 q 377 30 410 0 q 328 105 344 60 q 308 202 311 150 q 304 297 304 254 m 135 982 l 135 -368 l 43 -368 l 43 -387 l 399 -387 l 399 -368 l 304 -368 l 304 100 l 307 100 q 365 17 326 51 q 468 -18 404 -18 q 592 8 536 -18 q 687 78 647 35 q 749 179 726 122 q 771 299 771 236 q 753 403 771 347 q 699 506 736 458 q 606 584 663 553 q 468 615 549 615 q 367 586 406 615 q 307 499 328 557 l 304 499 l 304 1001 l 43 1001 l 43 982 l 135 982 z "},"":{"ha":668,"x_min":-44,"x_max":678,"o":"m 381 894 q 407 832 381 858 q 469 806 433 806 q 532 832 506 806 q 558 894 558 858 q 532 957 558 931 q 469 983 506 983 q 407 957 433 983 q 381 894 381 931 m 139 894 q 165 832 139 858 q 228 806 192 806 q 290 832 264 806 q 317 894 317 858 q 290 957 317 931 q 228 983 264 983 q 165 957 192 983 q 139 894 139 931 m 415 175 l 246 576 l 343 576 l 343 596 l -10 596 l -10 576 l 64 576 l 325 -49 l 265 -197 q 242 -253 256 -222 q 212 -310 229 -283 q 173 -356 194 -337 q 126 -374 151 -374 q 107 -366 115 -374 q 99 -343 99 -358 q 108 -307 99 -322 q 117 -267 117 -292 q 93 -223 117 -237 q 43 -208 69 -208 q -19 -226 7 -208 q -44 -285 -44 -244 q -5 -367 -44 -337 q 97 -397 35 -397 q 190 -368 156 -397 q 253 -276 225 -339 q 312 -138 281 -217 q 384 43 343 -60 q 481 278 425 146 q 614 576 536 410 l 678 576 l 678 596 l 476 596 l 476 576 l 592 576 l 415 175 z "},"":{"ha":1054,"x_min":-35,"x_max":1090,"o":"m 421 790 l 585 411 l 265 411 l 421 790 m -35 19 l -35 0 l 228 0 l 228 19 l 104 19 l 258 392 l 592 392 l 753 19 l 624 19 l 624 0 l 1090 0 l 1090 19 l 971 19 l 533 1028 l 496 1028 l 82 19 l -35 19 m 282 1215 l 282 1174 l 728 1174 l 728 1215 l 282 1215 z "},"":{"ha":721,"x_min":58,"x_max":704,"o":"m 424 344 l 424 161 q 415 92 424 121 q 393 47 407 64 q 362 21 379 29 q 326 13 344 13 q 276 27 294 13 q 249 63 258 42 q 238 106 240 83 q 236 144 236 128 q 249 213 236 186 q 283 257 263 239 q 331 287 304 275 q 383 311 357 299 q 410 328 403 321 q 421 344 418 336 l 424 344 m 704 22 l 692 35 q 669 15 681 22 q 639 8 657 8 q 601 28 608 8 q 593 75 593 49 l 593 419 q 573 516 593 478 q 519 576 553 554 q 438 607 485 599 q 339 615 392 615 q 251 606 293 615 q 175 577 208 596 q 122 530 142 558 q 101 465 101 501 q 109 428 101 442 q 128 406 117 414 q 153 397 139 399 q 182 394 168 394 q 206 395 192 394 q 234 401 221 396 q 257 419 247 407 q 267 451 267 431 q 265 467 267 456 q 263 490 264 478 q 260 513 261 503 q 258 528 258 524 q 282 581 258 567 q 338 596 306 596 q 406 565 388 596 q 424 497 424 535 l 424 413 q 416 369 424 386 q 389 340 408 353 q 334 315 369 326 q 242 286 299 303 q 174 263 207 275 q 116 233 142 251 q 74 187 90 214 q 58 119 58 160 q 76 53 58 81 q 124 11 94 26 q 188 -11 153 -4 q 256 -18 222 -18 q 368 1 329 -18 q 429 76 407 21 l 432 76 q 474 7 440 32 q 579 -18 508 -18 q 648 -12 611 -18 q 704 22 685 -7 m 160 892 l 160 850 l 606 850 l 606 892 l 160 892 z "},"":{"ha":1054,"x_min":-35,"x_max":1090,"o":"m 421 790 l 585 411 l 265 411 l 421 790 m -35 19 l -35 0 l 228 0 l 228 19 l 104 19 l 258 392 l 592 392 l 753 19 l 624 19 l 624 0 l 1090 0 l 1090 19 l 971 19 l 533 1028 l 496 1028 l 82 19 l -35 19 m 318 1313 l 303 1313 q 356 1150 301 1204 q 499 1096 410 1096 q 642 1150 588 1096 q 696 1313 697 1204 l 679 1313 q 611 1214 660 1240 q 499 1188 563 1188 q 386 1214 435 1188 q 318 1313 338 1240 z "},"":{"ha":721,"x_min":58,"x_max":704,"o":"m 424 344 l 424 161 q 415 92 424 121 q 393 47 407 64 q 362 21 379 29 q 326 13 344 13 q 276 27 294 13 q 249 63 258 42 q 238 106 240 83 q 236 144 236 128 q 249 213 236 186 q 283 257 263 239 q 331 287 304 275 q 383 311 357 299 q 410 328 403 321 q 421 344 418 336 l 424 344 m 704 22 l 692 35 q 669 15 681 22 q 639 8 657 8 q 601 28 608 8 q 593 75 593 49 l 593 419 q 573 516 593 478 q 519 576 553 554 q 438 607 485 599 q 339 615 392 615 q 251 606 293 615 q 175 577 208 596 q 122 530 142 558 q 101 465 101 501 q 109 428 101 442 q 128 406 117 414 q 153 397 139 399 q 182 394 168 394 q 206 395 192 394 q 234 401 221 396 q 257 419 247 407 q 267 451 267 431 q 265 467 267 456 q 263 490 264 478 q 260 513 261 503 q 258 528 258 524 q 282 581 258 567 q 338 596 306 596 q 406 565 388 596 q 424 497 424 535 l 424 413 q 416 369 424 386 q 389 340 408 353 q 334 315 369 326 q 242 286 299 303 q 174 263 207 275 q 116 233 142 251 q 74 187 90 214 q 58 119 58 160 q 76 53 58 81 q 124 11 94 26 q 188 -11 153 -4 q 256 -18 222 -18 q 368 1 329 -18 q 429 76 407 21 l 432 76 q 474 7 440 32 q 579 -18 508 -18 q 648 -12 611 -18 q 704 22 685 -7 m 188 989 l 172 989 q 225 826 171 881 q 368 772 279 772 q 512 826 457 772 q 565 989 567 881 l 549 989 q 481 890 529 917 q 368 864 432 864 q 256 890 304 864 q 188 989 207 917 z "},"":{"ha":1054,"x_min":-35,"x_max":1090,"o":"m 421 790 l 585 411 l 265 411 l 421 790 m -35 19 l -35 0 l 228 0 l 228 19 l 104 19 l 258 392 l 592 392 l 753 19 l 624 19 l 624 0 l 1090 0 l 1090 19 l 971 19 l 533 1028 l 496 1028 l 82 19 l -35 19 m 940 0 l 831 -57 q 774 -94 796 -76 q 742 -127 753 -111 q 727 -157 731 -143 q 724 -183 724 -171 q 751 -248 724 -219 q 842 -276 779 -276 q 876 -274 861 -276 q 906 -267 892 -272 q 935 -254 921 -262 q 969 -232 950 -246 l 960 -215 q 939 -228 951 -222 q 899 -235 926 -235 q 864 -226 876 -235 q 845 -206 851 -217 q 838 -184 839 -194 q 838 -169 838 -174 q 868 -99 838 -137 q 969 0 899 -60 l 940 0 z "},"":{"ha":721,"x_min":58,"x_max":704,"o":"m 424 344 l 424 161 q 415 92 424 121 q 393 47 407 64 q 362 21 379 29 q 326 13 344 13 q 276 27 294 13 q 249 63 258 42 q 238 106 240 83 q 236 144 236 128 q 249 213 236 186 q 283 257 263 239 q 331 287 304 275 q 383 311 357 299 q 410 328 403 321 q 421 344 418 336 l 424 344 m 704 22 l 692 35 q 669 15 681 22 q 639 8 657 8 q 601 28 608 8 q 593 75 593 49 l 593 419 q 573 516 593 478 q 519 576 553 554 q 438 607 485 599 q 339 615 392 615 q 251 606 293 615 q 175 577 208 596 q 122 530 142 558 q 101 465 101 501 q 109 428 101 442 q 128 406 117 414 q 153 397 139 399 q 182 394 168 394 q 206 395 192 394 q 234 401 221 396 q 257 419 247 407 q 267 451 267 431 q 265 467 267 456 q 263 490 264 478 q 260 513 261 503 q 258 528 258 524 q 282 581 258 567 q 338 596 306 596 q 406 565 388 596 q 424 497 424 535 l 424 413 q 416 369 424 386 q 389 340 408 353 q 334 315 369 326 q 242 286 299 303 q 174 263 207 275 q 116 233 142 251 q 74 187 90 214 q 58 119 58 160 q 76 53 58 81 q 124 11 94 26 q 188 -11 153 -4 q 256 -18 222 -18 q 368 1 329 -18 q 429 76 407 21 l 432 76 q 474 7 440 32 q 579 -18 508 -18 q 648 -12 611 -18 q 704 22 685 -7 m 657 4 l 547 -53 q 491 -90 513 -72 q 458 -123 469 -107 q 444 -153 447 -139 q 440 -179 440 -167 q 468 -244 440 -215 q 558 -272 496 -272 q 593 -270 578 -272 q 623 -263 608 -268 q 652 -250 638 -258 q 686 -228 667 -242 l 676 -211 q 656 -224 668 -218 q 615 -231 643 -231 q 581 -222 593 -231 q 562 -201 568 -212 q 555 -180 556 -190 q 554 -165 554 -169 q 585 -94 554 -133 q 686 4 615 -56 l 657 4 z "},"":{"ha":1003,"x_min":71,"x_max":921,"o":"m 913 706 l 913 989 l 890 989 q 876 965 886 969 q 847 960 867 960 q 803 968 829 960 q 744 985 776 976 q 673 1003 711 994 q 590 1011 635 1011 q 409 974 501 1011 q 242 869 317 938 q 119 706 167 801 q 71 492 71 610 q 114 290 71 383 q 228 128 157 197 q 394 20 300 60 q 590 -19 489 -19 q 675 -12 635 -19 q 749 5 715 -4 q 810 22 783 14 q 853 29 836 29 q 882 23 872 29 q 899 0 892 17 l 921 0 l 921 294 l 899 294 q 860 185 886 238 q 794 91 833 132 q 705 25 756 50 q 592 0 654 0 q 458 22 514 0 q 366 100 401 44 q 314 250 331 156 q 297 489 297 344 q 306 691 297 599 q 344 850 314 783 q 432 954 374 917 q 592 992 490 992 q 717 965 667 992 q 802 895 768 938 q 858 802 836 853 q 894 706 879 751 l 913 706 m 571 1303 l 449 1058 l 467 1058 l 663 1267 q 673 1288 671 1276 q 675 1304 675 1299 q 658 1335 675 1325 q 629 1346 640 1346 q 590 1332 601 1346 q 571 1303 578 1318 z "},"":{"ha":668,"x_min":49,"x_max":638,"o":"m 49 299 q 69 176 49 228 q 122 90 89 125 q 193 33 154 54 q 270 1 232 13 q 341 -15 308 -11 q 392 -18 374 -18 q 502 0 458 -18 q 574 44 546 18 q 616 99 601 69 q 638 154 631 129 l 618 161 q 603 122 615 149 q 568 67 592 94 q 506 20 544 40 q 410 0 467 0 q 315 28 350 0 q 263 100 281 56 q 240 199 244 144 q 236 307 236 253 q 241 417 236 365 q 262 509 246 469 q 307 572 278 549 q 386 596 336 596 q 447 580 422 596 q 471 536 471 564 q 467 517 471 531 q 460 488 464 503 q 453 458 457 472 q 450 439 450 444 q 477 390 450 401 q 536 378 504 378 q 603 397 579 378 q 626 461 626 415 q 609 524 626 496 q 560 573 592 553 q 486 604 529 593 q 390 615 443 615 q 244 585 307 615 q 137 508 181 554 q 71 406 93 461 q 49 299 49 350 m 393 979 l 271 735 l 289 735 l 485 943 q 495 964 493 953 q 497 981 497 975 q 480 1012 497 1001 q 451 1022 463 1022 q 412 1008 424 1022 q 393 979 400 994 z "},"":{"ha":1003,"x_min":71,"x_max":921,"o":"m 913 706 l 913 989 l 890 989 q 876 965 886 969 q 847 960 867 960 q 803 968 829 960 q 744 985 776 976 q 673 1003 711 994 q 590 1011 635 1011 q 409 974 501 1011 q 242 869 317 938 q 119 706 167 801 q 71 492 71 610 q 114 290 71 383 q 228 128 157 197 q 394 20 300 60 q 590 -19 489 -19 q 675 -12 635 -19 q 749 5 715 -4 q 810 22 783 14 q 853 29 836 29 q 882 23 872 29 q 899 0 892 17 l 921 0 l 921 294 l 899 294 q 860 185 886 238 q 794 91 833 132 q 705 25 756 50 q 592 0 654 0 q 458 22 514 0 q 366 100 401 44 q 314 250 331 156 q 297 489 297 344 q 306 691 297 599 q 344 850 314 783 q 432 954 374 917 q 592 992 490 992 q 717 965 667 992 q 802 895 768 938 q 858 802 836 853 q 894 706 879 751 l 913 706 m 535 1332 l 385 1058 l 400 1058 l 585 1235 l 769 1058 l 786 1058 l 636 1332 l 535 1332 z "},"":{"ha":668,"x_min":49,"x_max":638,"o":"m 49 299 q 69 176 49 228 q 122 90 89 125 q 193 33 154 54 q 270 1 232 13 q 341 -15 308 -11 q 392 -18 374 -18 q 502 0 458 -18 q 574 44 546 18 q 616 99 601 69 q 638 154 631 129 l 618 161 q 603 122 615 149 q 568 67 592 94 q 506 20 544 40 q 410 0 467 0 q 315 28 350 0 q 263 100 281 56 q 240 199 244 144 q 236 307 236 253 q 241 417 236 365 q 262 509 246 469 q 307 572 278 549 q 386 596 336 596 q 447 580 422 596 q 471 536 471 564 q 467 517 471 531 q 460 488 464 503 q 453 458 457 472 q 450 439 450 444 q 477 390 450 401 q 536 378 504 378 q 603 397 579 378 q 626 461 626 415 q 609 524 626 496 q 560 573 592 553 q 486 604 529 593 q 390 615 443 615 q 244 585 307 615 q 137 508 181 554 q 71 406 93 461 q 49 299 49 350 m 332 1008 l 182 735 l 197 735 l 382 911 l 567 735 l 583 735 l 433 1008 l 332 1008 z "},"":{"ha":1003,"x_min":71,"x_max":921,"o":"m 913 706 l 913 989 l 890 989 q 876 965 886 969 q 847 960 867 960 q 803 968 829 960 q 744 985 776 976 q 673 1003 711 994 q 590 1011 635 1011 q 409 974 501 1011 q 242 869 317 938 q 119 706 167 801 q 71 492 71 610 q 114 290 71 383 q 228 128 157 197 q 394 20 300 60 q 590 -19 489 -19 q 675 -12 635 -19 q 749 5 715 -4 q 810 22 783 14 q 853 29 836 29 q 882 23 872 29 q 899 0 892 17 l 921 0 l 921 294 l 899 294 q 860 185 886 238 q 794 91 833 132 q 705 25 756 50 q 592 0 654 0 q 458 22 514 0 q 366 100 401 44 q 314 250 331 156 q 297 489 297 344 q 306 691 297 599 q 344 850 314 783 q 432 954 374 917 q 592 992 490 992 q 717 965 667 992 q 802 895 768 938 q 858 802 836 853 q 894 706 879 751 l 913 706 m 468 1218 q 494 1156 468 1182 q 557 1129 521 1129 q 619 1156 593 1129 q 646 1218 646 1182 q 619 1281 646 1254 q 557 1307 593 1307 q 494 1281 521 1307 q 468 1218 468 1254 z "},"":{"ha":668,"x_min":49,"x_max":638,"o":"m 49 299 q 69 176 49 228 q 122 90 89 125 q 193 33 154 54 q 270 1 232 13 q 341 -15 308 -11 q 392 -18 374 -18 q 502 0 458 -18 q 574 44 546 18 q 616 99 601 69 q 638 154 631 129 l 618 161 q 603 122 615 149 q 568 67 592 94 q 506 20 544 40 q 410 0 467 0 q 315 28 350 0 q 263 100 281 56 q 240 199 244 144 q 236 307 236 253 q 241 417 236 365 q 262 509 246 469 q 307 572 278 549 q 386 596 336 596 q 447 580 422 596 q 471 536 471 564 q 467 517 471 531 q 460 488 464 503 q 453 458 457 472 q 450 439 450 444 q 477 390 450 401 q 536 378 504 378 q 603 397 579 378 q 626 461 626 415 q 609 524 626 496 q 560 573 592 553 q 486 604 529 593 q 390 615 443 615 q 244 585 307 615 q 137 508 181 554 q 71 406 93 461 q 49 299 49 350 m 293 894 q 319 832 293 858 q 382 806 346 806 q 444 832 418 806 q 471 894 471 858 q 444 957 471 931 q 382 983 418 983 q 319 957 346 983 q 293 894 293 931 z "},"":{"ha":1003,"x_min":71,"x_max":921,"o":"m 913 706 l 913 989 l 890 989 q 876 965 886 969 q 847 960 867 960 q 803 968 829 960 q 744 985 776 976 q 673 1003 711 994 q 590 1011 635 1011 q 409 974 501 1011 q 242 869 317 938 q 119 706 167 801 q 71 492 71 610 q 114 290 71 383 q 228 128 157 197 q 394 20 300 60 q 590 -19 489 -19 q 675 -12 635 -19 q 749 5 715 -4 q 810 22 783 14 q 853 29 836 29 q 882 23 872 29 q 899 0 892 17 l 921 0 l 921 294 l 899 294 q 860 185 886 238 q 794 91 833 132 q 705 25 756 50 q 592 0 654 0 q 458 22 514 0 q 366 100 401 44 q 314 250 331 156 q 297 489 297 344 q 306 691 297 599 q 344 850 314 783 q 432 954 374 917 q 592 992 490 992 q 717 965 667 992 q 802 895 768 938 q 858 802 836 853 q 894 706 879 751 l 913 706 m 619 1058 l 771 1332 l 754 1332 l 569 1156 l 385 1332 l 369 1332 l 518 1058 l 619 1058 z "},"":{"ha":668,"x_min":49,"x_max":638,"o":"m 49 299 q 69 176 49 228 q 122 90 89 125 q 193 33 154 54 q 270 1 232 13 q 341 -15 308 -11 q 392 -18 374 -18 q 502 0 458 -18 q 574 44 546 18 q 616 99 601 69 q 638 154 631 129 l 618 161 q 603 122 615 149 q 568 67 592 94 q 506 20 544 40 q 410 0 467 0 q 315 28 350 0 q 263 100 281 56 q 240 199 244 144 q 236 307 236 253 q 241 417 236 365 q 262 509 246 469 q 307 572 278 549 q 386 596 336 596 q 447 580 422 596 q 471 536 471 564 q 467 517 471 531 q 460 488 464 503 q 453 458 457 472 q 450 439 450 444 q 477 390 450 401 q 536 378 504 378 q 603 397 579 378 q 626 461 626 415 q 609 524 626 496 q 560 573 592 553 q 486 604 529 593 q 390 615 443 615 q 244 585 307 615 q 137 508 181 554 q 71 406 93 461 q 49 299 49 350 m 428 735 l 579 1008 l 563 1008 l 378 832 l 193 1008 l 178 1008 l 326 735 l 428 735 z "},"":{"ha":1132,"x_min":44,"x_max":1065,"o":"m 374 19 l 374 969 q 410 973 388 972 q 460 974 432 974 q 655 939 581 974 q 770 840 729 904 q 825 684 811 775 q 839 481 839 593 q 835 383 839 435 q 817 278 831 331 q 778 179 804 226 q 709 95 753 132 q 601 37 665 58 q 447 15 538 15 q 374 19 414 15 m 172 969 l 172 19 l 44 19 l 44 0 l 172 0 q 330 -1 251 0 q 488 -3 408 -3 q 605 6 542 -3 q 733 35 668 14 q 857 93 797 57 q 963 185 917 129 q 1038 317 1010 240 q 1065 494 1065 393 q 1038 674 1065 597 q 963 806 1010 750 q 854 897 915 861 q 725 955 793 933 q 588 985 657 976 q 456 993 518 993 q 314 991 385 993 q 172 989 243 989 l 44 989 l 44 969 l 172 969 m 569 1058 l 721 1332 l 704 1332 l 519 1156 l 335 1332 l 319 1332 l 468 1058 l 569 1058 z "},"":{"ha":1113,"x_min":53,"x_max":1060,"o":"m 519 297 q 516 202 519 254 q 496 105 513 150 q 447 30 479 60 q 356 0 414 0 q 294 21 317 0 q 259 81 271 42 q 244 174 247 119 q 240 297 240 229 q 247 438 240 381 q 268 531 253 496 q 308 581 283 565 q 367 596 332 596 q 449 567 418 596 q 494 493 479 538 q 515 396 510 449 q 519 297 519 343 m 689 19 l 689 1001 l 425 1001 l 425 982 l 519 982 l 519 499 l 517 499 q 457 586 496 557 q 356 615 418 615 q 218 584 275 615 q 124 506 161 553 q 70 403 88 458 q 53 299 53 347 q 75 179 53 236 q 137 78 97 122 q 232 8 176 35 q 356 -18 288 -18 q 458 13 418 -18 q 519 103 497 44 l 522 103 l 522 0 l 781 0 l 781 19 l 689 19 m 853 594 l 863 576 q 926 619 892 594 q 991 676 961 643 q 1040 750 1021 708 q 1060 846 1060 792 q 1022 968 1060 925 q 932 1011 985 1011 q 895 1006 914 1011 q 861 988 876 1000 q 836 958 846 976 q 826 913 826 939 q 836 867 826 886 q 860 837 846 849 q 891 819 874 825 q 922 814 908 814 q 953 817 938 814 q 981 828 968 819 q 994 807 988 821 q 1001 771 1001 793 q 961 681 1001 721 q 853 594 921 642 z "},"":{"ha":1132,"x_min":44,"x_max":1065,"o":"m 374 540 l 374 969 q 410 973 388 972 q 460 974 432 974 q 655 939 581 974 q 770 840 729 904 q 825 684 811 775 q 839 481 839 593 q 835 383 839 435 q 817 278 831 331 q 778 179 804 226 q 709 95 753 132 q 601 37 665 58 q 447 15 538 15 q 374 19 414 15 l 374 517 l 579 517 l 579 540 l 374 540 m 172 517 l 172 19 l 44 19 l 44 0 l 172 0 q 330 -1 251 0 q 488 -3 408 -3 q 605 6 542 -3 q 733 35 668 14 q 857 93 797 57 q 963 185 917 129 q 1038 317 1010 240 q 1065 494 1065 393 q 1038 674 1065 597 q 963 806 1010 750 q 854 897 915 861 q 725 955 793 933 q 588 985 657 976 q 456 993 518 993 q 314 991 385 993 q 172 989 243 989 l 44 989 l 44 969 l 172 969 l 172 540 l 44 540 l 44 517 l 172 517 z "},"":{"ha":924,"x_min":53,"x_max":781,"o":"m 519 297 q 516 202 519 254 q 496 105 513 150 q 447 30 479 60 q 356 0 414 0 q 294 21 317 0 q 259 81 271 42 q 244 174 247 119 q 240 297 240 229 q 247 438 240 381 q 268 531 253 496 q 308 581 283 565 q 367 596 332 596 q 449 567 418 596 q 494 493 479 538 q 515 396 510 449 q 519 297 519 343 m 689 19 l 689 1001 l 425 1001 l 425 982 l 519 982 l 519 499 l 517 499 q 457 586 496 557 q 356 615 418 615 q 218 584 275 615 q 124 506 161 553 q 70 403 88 458 q 53 299 53 347 q 75 179 53 236 q 137 78 97 122 q 232 8 176 35 q 356 -18 288 -18 q 458 13 418 -18 q 519 103 497 44 l 522 103 l 522 0 l 781 0 l 781 19 l 689 19 m 258 842 l 258 799 l 779 799 l 779 842 l 258 842 z "},"":{"ha":1003,"x_min":51,"x_max":939,"o":"m 51 989 l 51 969 l 179 969 l 179 19 l 51 19 l 51 0 l 939 0 l 939 304 l 921 304 q 881 192 907 244 q 815 101 854 140 q 724 41 775 63 q 608 19 672 19 l 381 19 l 381 521 l 474 521 q 555 504 522 521 q 610 459 588 488 q 645 393 632 431 q 668 315 658 356 l 686 315 l 686 747 l 668 747 q 643 662 658 700 q 604 597 628 624 q 545 555 581 569 q 458 540 510 540 l 381 540 l 381 969 l 601 969 q 717 944 669 969 q 794 883 764 918 q 840 812 824 849 q 864 751 857 775 l 882 751 l 882 989 l 51 989 m 282 1215 l 282 1174 l 728 1174 l 728 1215 l 282 1215 z "},"":{"ha":694,"x_min":49,"x_max":646,"o":"m 458 368 l 236 368 q 241 444 238 404 q 257 517 244 483 q 295 574 269 551 q 368 596 321 596 q 420 581 401 596 q 447 543 439 565 q 457 499 456 521 q 458 461 458 476 l 458 368 m 236 349 l 646 349 q 621 470 646 419 q 557 553 596 521 q 469 600 518 585 q 372 615 421 615 q 245 588 304 615 q 142 517 186 561 q 74 417 99 474 q 49 300 49 360 q 75 166 49 225 q 148 66 101 107 q 257 3 194 25 q 392 -18 319 -18 q 496 -1 453 -18 q 568 42 539 17 q 614 98 597 68 q 638 154 631 128 l 618 161 q 605 122 617 149 q 569 69 593 96 q 506 21 544 42 q 413 0 468 0 q 315 26 350 0 q 263 94 281 53 q 240 185 244 135 q 236 286 236 236 l 236 349 m 154 892 l 154 850 l 600 850 l 600 892 l 154 892 z "},"":{"ha":1003,"x_min":51,"x_max":939,"o":"m 51 989 l 51 969 l 179 969 l 179 19 l 51 19 l 51 0 l 939 0 l 939 304 l 921 304 q 881 192 907 244 q 815 101 854 140 q 724 41 775 63 q 608 19 672 19 l 381 19 l 381 521 l 474 521 q 555 504 522 521 q 610 459 588 488 q 645 393 632 431 q 668 315 658 356 l 686 315 l 686 747 l 668 747 q 643 662 658 700 q 604 597 628 624 q 545 555 581 569 q 458 540 510 540 l 381 540 l 381 969 l 601 969 q 717 944 669 969 q 794 883 764 918 q 840 812 824 849 q 864 751 857 775 l 882 751 l 882 989 l 51 989 m 338 1313 l 322 1313 q 375 1150 321 1204 q 518 1096 429 1096 q 662 1150 607 1096 q 715 1313 717 1204 l 699 1313 q 631 1214 679 1240 q 518 1188 582 1188 q 406 1214 454 1188 q 338 1313 357 1240 z "},"":{"ha":694,"x_min":49,"x_max":646,"o":"m 458 368 l 236 368 q 241 444 238 404 q 257 517 244 483 q 295 574 269 551 q 368 596 321 596 q 420 581 401 596 q 447 543 439 565 q 457 499 456 521 q 458 461 458 476 l 458 368 m 236 349 l 646 349 q 621 470 646 419 q 557 553 596 521 q 469 600 518 585 q 372 615 421 615 q 245 588 304 615 q 142 517 186 561 q 74 417 99 474 q 49 300 49 360 q 75 166 49 225 q 148 66 101 107 q 257 3 194 25 q 392 -18 319 -18 q 496 -1 453 -18 q 568 42 539 17 q 614 98 597 68 q 638 154 631 128 l 618 161 q 605 122 617 149 q 569 69 593 96 q 506 21 544 42 q 413 0 468 0 q 315 26 350 0 q 263 94 281 53 q 240 185 244 135 q 236 286 236 236 l 236 349 m 197 989 l 182 989 q 235 826 181 881 q 378 772 289 772 q 522 826 467 772 q 575 989 576 881 l 558 989 q 490 890 539 917 q 378 864 442 864 q 265 890 314 864 q 197 989 217 917 z "},"":{"ha":1003,"x_min":51,"x_max":939,"o":"m 51 989 l 51 969 l 179 969 l 179 19 l 51 19 l 51 0 l 939 0 l 939 304 l 921 304 q 881 192 907 244 q 815 101 854 140 q 724 41 775 63 q 608 19 672 19 l 381 19 l 381 521 l 474 521 q 555 504 522 521 q 610 459 588 488 q 645 393 632 431 q 668 315 658 356 l 686 315 l 686 747 l 668 747 q 643 662 658 700 q 604 597 628 624 q 545 555 581 569 q 458 540 510 540 l 381 540 l 381 969 l 601 969 q 717 944 669 969 q 794 883 764 918 q 840 812 824 849 q 864 751 857 775 l 882 751 l 882 989 l 51 989 m 431 1218 q 457 1156 431 1182 q 519 1129 483 1129 q 582 1156 556 1129 q 608 1218 608 1182 q 582 1281 608 1254 q 519 1307 556 1307 q 457 1281 483 1307 q 431 1218 431 1254 z "},"":{"ha":694,"x_min":49,"x_max":646,"o":"m 458 368 l 236 368 q 241 444 238 404 q 257 517 244 483 q 295 574 269 551 q 368 596 321 596 q 420 581 401 596 q 447 543 439 565 q 457 499 456 521 q 458 461 458 476 l 458 368 m 236 349 l 646 349 q 621 470 646 419 q 557 553 596 521 q 469 600 518 585 q 372 615 421 615 q 245 588 304 615 q 142 517 186 561 q 74 417 99 474 q 49 300 49 360 q 75 166 49 225 q 148 66 101 107 q 257 3 194 25 q 392 -18 319 -18 q 496 -1 453 -18 q 568 42 539 17 q 614 98 597 68 q 638 154 631 128 l 618 161 q 605 122 617 149 q 569 69 593 96 q 506 21 544 42 q 413 0 468 0 q 315 26 350 0 q 263 94 281 53 q 240 185 244 135 q 236 286 236 236 l 236 349 m 288 894 q 314 832 288 858 q 376 806 340 806 q 439 832 413 806 q 465 894 465 858 q 439 957 465 931 q 376 983 413 983 q 314 957 340 983 q 288 894 288 931 z "},"":{"ha":1003,"x_min":51,"x_max":939,"o":"m 51 989 l 51 969 l 179 969 l 179 19 l 51 19 l 51 0 l 939 0 l 939 304 l 921 304 q 881 192 907 244 q 815 101 854 140 q 724 41 775 63 q 608 19 672 19 l 381 19 l 381 521 l 474 521 q 555 504 522 521 q 610 459 588 488 q 645 393 632 431 q 668 315 658 356 l 686 315 l 686 747 l 668 747 q 643 662 658 700 q 604 597 628 624 q 545 555 581 569 q 458 540 510 540 l 381 540 l 381 969 l 601 969 q 717 944 669 969 q 794 883 764 918 q 840 812 824 849 q 864 751 857 775 l 882 751 l 882 989 l 51 989 m 639 0 l 529 -57 q 473 -94 494 -76 q 440 -127 451 -111 q 426 -157 429 -143 q 422 -183 422 -171 q 450 -248 422 -219 q 540 -276 478 -276 q 575 -274 560 -276 q 605 -267 590 -272 q 634 -254 619 -262 q 668 -232 649 -246 l 658 -215 q 638 -228 650 -222 q 597 -235 625 -235 q 563 -226 575 -235 q 544 -206 550 -217 q 537 -184 538 -194 q 536 -169 536 -174 q 567 -99 536 -137 q 668 0 597 -60 l 639 0 z "},"":{"ha":694,"x_min":49,"x_max":646,"o":"m 458 368 l 236 368 q 241 444 238 404 q 257 517 244 483 q 295 574 269 551 q 368 596 321 596 q 420 581 401 596 q 447 543 439 565 q 457 499 456 521 q 458 461 458 476 l 458 368 m 236 349 l 646 349 q 621 470 646 419 q 557 553 596 521 q 469 600 518 585 q 372 615 421 615 q 245 588 304 615 q 142 517 186 561 q 74 417 99 474 q 49 300 49 360 q 75 166 49 225 q 148 66 101 107 q 257 3 194 25 q 392 -18 319 -18 q 496 -1 453 -18 q 568 42 539 17 q 614 98 597 68 q 638 154 631 128 l 618 161 q 605 122 617 149 q 569 69 593 96 q 506 21 544 42 q 413 0 468 0 q 315 26 350 0 q 263 94 281 53 q 240 185 244 135 q 236 286 236 236 l 236 349 m 483 0 l 374 -57 q 317 -94 339 -76 q 285 -127 296 -111 q 270 -157 274 -143 q 267 -183 267 -171 q 294 -248 267 -219 q 385 -276 322 -276 q 419 -274 404 -276 q 449 -267 435 -272 q 478 -254 464 -262 q 513 -232 493 -246 l 503 -215 q 482 -228 494 -222 q 442 -235 469 -235 q 407 -226 419 -235 q 388 -206 394 -217 q 381 -184 382 -194 q 381 -169 381 -174 q 411 -99 381 -137 q 513 0 442 -60 l 483 0 z "},"":{"ha":1003,"x_min":51,"x_max":939,"o":"m 51 989 l 51 969 l 179 969 l 179 19 l 51 19 l 51 0 l 939 0 l 939 304 l 921 304 q 881 192 907 244 q 815 101 854 140 q 724 41 775 63 q 608 19 672 19 l 381 19 l 381 521 l 474 521 q 555 504 522 521 q 610 459 588 488 q 645 393 632 431 q 668 315 658 356 l 686 315 l 686 747 l 668 747 q 643 662 658 700 q 604 597 628 624 q 545 555 581 569 q 458 540 510 540 l 381 540 l 381 969 l 601 969 q 717 944 669 969 q 794 883 764 918 q 840 812 824 849 q 864 751 857 775 l 882 751 l 882 989 l 51 989 m 601 1058 l 753 1332 l 736 1332 l 551 1156 l 367 1332 l 351 1332 l 500 1058 l 601 1058 z "},"":{"ha":694,"x_min":49,"x_max":646,"o":"m 458 368 l 236 368 q 241 444 238 404 q 257 517 244 483 q 295 574 269 551 q 368 596 321 596 q 420 581 401 596 q 447 543 439 565 q 457 499 456 521 q 458 461 458 476 l 458 368 m 236 349 l 646 349 q 621 470 646 419 q 557 553 596 521 q 469 600 518 585 q 372 615 421 615 q 245 588 304 615 q 142 517 186 561 q 74 417 99 474 q 49 300 49 360 q 75 166 49 225 q 148 66 101 107 q 257 3 194 25 q 392 -18 319 -18 q 496 -1 453 -18 q 568 42 539 17 q 614 98 597 68 q 638 154 631 128 l 618 161 q 605 122 617 149 q 569 69 593 96 q 506 21 544 42 q 413 0 468 0 q 315 26 350 0 q 263 94 281 53 q 240 185 244 135 q 236 286 236 236 l 236 349 m 422 735 l 574 1008 l 557 1008 l 372 832 l 188 1008 l 172 1008 l 321 735 l 422 735 z "},"":{"ha":1081,"x_min":65,"x_max":1063,"o":"m 908 706 l 908 989 l 885 989 q 869 966 878 972 q 842 960 861 960 q 797 968 824 960 q 738 985 771 976 q 665 1003 704 994 q 585 1011 626 1011 q 403 974 496 1011 q 236 869 311 938 q 113 706 161 801 q 65 492 65 610 q 108 290 65 383 q 223 128 151 197 q 389 20 294 60 q 585 -19 483 -19 q 694 -6 649 -19 q 774 22 739 7 q 838 51 808 38 q 901 64 868 64 q 931 56 918 64 q 947 32 944 49 l 972 32 l 972 350 l 1063 350 l 1063 369 l 633 369 l 633 350 l 776 350 l 776 297 q 771 179 776 233 q 745 85 765 125 q 688 23 725 46 q 586 0 650 0 q 452 23 508 0 q 360 99 396 46 q 308 238 325 151 q 292 450 292 324 l 292 571 q 301 724 292 649 q 342 859 311 800 q 432 955 374 918 q 586 992 490 992 q 779 917 707 993 q 888 706 851 842 l 908 706 m 517 1332 l 367 1058 l 382 1058 l 567 1235 l 751 1058 l 768 1058 l 618 1332 l 517 1332 z "},"":{"ha":746,"x_min":53,"x_max":764,"o":"m 194 -217 q 217 -128 194 -161 q 282 -61 240 -94 l 426 -61 q 472 -67 447 -61 q 518 -87 497 -72 q 553 -128 539 -103 q 567 -196 567 -154 q 550 -272 567 -237 q 506 -332 533 -307 q 443 -371 479 -357 q 367 -385 407 -385 q 281 -368 314 -385 q 228 -326 247 -351 q 201 -271 208 -300 q 194 -217 194 -242 m 356 232 q 311 238 332 232 q 276 263 290 243 q 253 322 261 283 q 244 426 244 361 q 249 489 244 458 q 265 543 253 519 q 299 581 276 567 q 356 596 321 596 q 414 582 393 596 q 446 543 435 568 q 460 484 457 518 q 463 410 463 450 q 455 317 463 353 q 433 263 447 282 q 400 238 419 244 q 356 232 381 232 m 397 99 l 244 99 q 169 115 197 99 q 142 167 142 132 q 149 201 142 182 q 196 246 156 219 q 267 224 224 235 q 365 213 310 213 q 482 230 435 213 q 559 275 529 247 q 602 337 589 303 q 615 406 615 371 q 596 492 615 463 q 560 540 576 522 q 599 566 588 560 q 618 572 610 572 q 636 563 633 572 q 642 533 639 553 q 645 519 643 528 q 653 502 647 510 q 672 489 660 494 q 703 483 683 483 q 747 499 731 483 q 764 543 764 515 q 744 595 764 575 q 683 615 724 615 q 610 599 638 615 q 547 551 582 583 q 470 596 515 576 q 363 615 425 615 q 249 599 300 615 q 164 553 199 582 q 110 487 129 525 q 92 406 92 449 q 101 352 92 375 q 123 312 110 329 q 151 281 136 294 q 179 258 167 268 q 110 208 136 235 q 72 158 85 182 q 56 115 60 133 q 53 90 53 97 q 74 18 53 47 q 125 -28 94 -11 q 191 -51 156 -44 q 254 -58 226 -58 l 254 -61 q 190 -85 222 -69 q 130 -122 157 -100 q 86 -172 103 -143 q 69 -239 69 -201 q 78 -287 69 -258 q 114 -342 86 -315 q 194 -389 142 -369 q 333 -408 246 -408 q 472 -383 411 -408 q 575 -318 532 -358 q 640 -226 618 -278 q 663 -121 663 -175 q 640 -15 663 -57 q 582 53 618 28 q 498 88 546 78 q 397 99 450 99 m 318 1008 l 168 735 l 183 735 l 368 911 l 553 735 l 569 735 l 419 1008 l 318 1008 z "},"":{"ha":1081,"x_min":65,"x_max":1063,"o":"m 908 706 l 908 989 l 885 989 q 869 966 878 972 q 842 960 861 960 q 797 968 824 960 q 738 985 771 976 q 665 1003 704 994 q 585 1011 626 1011 q 403 974 496 1011 q 236 869 311 938 q 113 706 161 801 q 65 492 65 610 q 108 290 65 383 q 223 128 151 197 q 389 20 294 60 q 585 -19 483 -19 q 694 -6 649 -19 q 774 22 739 7 q 838 51 808 38 q 901 64 868 64 q 931 56 918 64 q 947 32 944 49 l 972 32 l 972 350 l 1063 350 l 1063 369 l 633 369 l 633 350 l 776 350 l 776 297 q 771 179 776 233 q 745 85 765 125 q 688 23 725 46 q 586 0 650 0 q 452 23 508 0 q 360 99 396 46 q 308 238 325 151 q 292 450 292 324 l 292 571 q 301 724 292 649 q 342 859 311 800 q 432 955 374 918 q 586 992 490 992 q 779 917 707 993 q 888 706 851 842 l 908 706 m 390 1313 l 375 1313 q 428 1150 374 1204 q 571 1096 482 1096 q 715 1150 660 1096 q 768 1313 769 1204 l 751 1313 q 683 1214 732 1240 q 571 1188 635 1188 q 458 1214 507 1188 q 390 1313 410 1240 z "},"":{"ha":746,"x_min":53,"x_max":764,"o":"m 194 -217 q 217 -128 194 -161 q 282 -61 240 -94 l 426 -61 q 472 -67 447 -61 q 518 -87 497 -72 q 553 -128 539 -103 q 567 -196 567 -154 q 550 -272 567 -237 q 506 -332 533 -307 q 443 -371 479 -357 q 367 -385 407 -385 q 281 -368 314 -385 q 228 -326 247 -351 q 201 -271 208 -300 q 194 -217 194 -242 m 356 232 q 311 238 332 232 q 276 263 290 243 q 253 322 261 283 q 244 426 244 361 q 249 489 244 458 q 265 543 253 519 q 299 581 276 567 q 356 596 321 596 q 414 582 393 596 q 446 543 435 568 q 460 484 457 518 q 463 410 463 450 q 455 317 463 353 q 433 263 447 282 q 400 238 419 244 q 356 232 381 232 m 397 99 l 244 99 q 169 115 197 99 q 142 167 142 132 q 149 201 142 182 q 196 246 156 219 q 267 224 224 235 q 365 213 310 213 q 482 230 435 213 q 559 275 529 247 q 602 337 589 303 q 615 406 615 371 q 596 492 615 463 q 560 540 576 522 q 599 566 588 560 q 618 572 610 572 q 636 563 633 572 q 642 533 639 553 q 645 519 643 528 q 653 502 647 510 q 672 489 660 494 q 703 483 683 483 q 747 499 731 483 q 764 543 764 515 q 744 595 764 575 q 683 615 724 615 q 610 599 638 615 q 547 551 582 583 q 470 596 515 576 q 363 615 425 615 q 249 599 300 615 q 164 553 199 582 q 110 487 129 525 q 92 406 92 449 q 101 352 92 375 q 123 312 110 329 q 151 281 136 294 q 179 258 167 268 q 110 208 136 235 q 72 158 85 182 q 56 115 60 133 q 53 90 53 97 q 74 18 53 47 q 125 -28 94 -11 q 191 -51 156 -44 q 254 -58 226 -58 l 254 -61 q 190 -85 222 -69 q 130 -122 157 -100 q 86 -172 103 -143 q 69 -239 69 -201 q 78 -287 69 -258 q 114 -342 86 -315 q 194 -389 142 -369 q 333 -408 246 -408 q 472 -383 411 -408 q 575 -318 532 -358 q 640 -226 618 -278 q 663 -121 663 -175 q 640 -15 663 -57 q 582 53 618 28 q 498 88 546 78 q 397 99 450 99 m 196 989 l 181 989 q 233 826 179 881 q 376 772 288 772 q 520 826 465 772 q 574 989 575 881 l 557 989 q 489 890 538 917 q 376 864 440 864 q 264 890 313 864 q 196 989 215 917 z "},"":{"ha":1081,"x_min":65,"x_max":1063,"o":"m 908 706 l 908 989 l 885 989 q 869 966 878 972 q 842 960 861 960 q 797 968 824 960 q 738 985 771 976 q 665 1003 704 994 q 585 1011 626 1011 q 403 974 496 1011 q 236 869 311 938 q 113 706 161 801 q 65 492 65 610 q 108 290 65 383 q 223 128 151 197 q 389 20 294 60 q 585 -19 483 -19 q 694 -6 649 -19 q 774 22 739 7 q 838 51 808 38 q 901 64 868 64 q 931 56 918 64 q 947 32 944 49 l 972 32 l 972 350 l 1063 350 l 1063 369 l 633 369 l 633 350 l 776 350 l 776 297 q 771 179 776 233 q 745 85 765 125 q 688 23 725 46 q 586 0 650 0 q 452 23 508 0 q 360 99 396 46 q 308 238 325 151 q 292 450 292 324 l 292 571 q 301 724 292 649 q 342 859 311 800 q 432 955 374 918 q 586 992 490 992 q 779 917 707 993 q 888 706 851 842 l 908 706 m 472 1218 q 499 1156 472 1182 q 561 1129 525 1129 q 624 1156 597 1129 q 650 1218 650 1182 q 624 1281 650 1254 q 561 1307 597 1307 q 499 1281 525 1307 q 472 1218 472 1254 z "},"":{"ha":746,"x_min":53,"x_max":764,"o":"m 194 -217 q 217 -128 194 -161 q 282 -61 240 -94 l 426 -61 q 472 -67 447 -61 q 518 -87 497 -72 q 553 -128 539 -103 q 567 -196 567 -154 q 550 -272 567 -237 q 506 -332 533 -307 q 443 -371 479 -357 q 367 -385 407 -385 q 281 -368 314 -385 q 228 -326 247 -351 q 201 -271 208 -300 q 194 -217 194 -242 m 356 232 q 311 238 332 232 q 276 263 290 243 q 253 322 261 283 q 244 426 244 361 q 249 489 244 458 q 265 543 253 519 q 299 581 276 567 q 356 596 321 596 q 414 582 393 596 q 446 543 435 568 q 460 484 457 518 q 463 410 463 450 q 455 317 463 353 q 433 263 447 282 q 400 238 419 244 q 356 232 381 232 m 397 99 l 244 99 q 169 115 197 99 q 142 167 142 132 q 149 201 142 182 q 196 246 156 219 q 267 224 224 235 q 365 213 310 213 q 482 230 435 213 q 559 275 529 247 q 602 337 589 303 q 615 406 615 371 q 596 492 615 463 q 560 540 576 522 q 599 566 588 560 q 618 572 610 572 q 636 563 633 572 q 642 533 639 553 q 645 519 643 528 q 653 502 647 510 q 672 489 660 494 q 703 483 683 483 q 747 499 731 483 q 764 543 764 515 q 744 595 764 575 q 683 615 724 615 q 610 599 638 615 q 547 551 582 583 q 470 596 515 576 q 363 615 425 615 q 249 599 300 615 q 164 553 199 582 q 110 487 129 525 q 92 406 92 449 q 101 352 92 375 q 123 312 110 329 q 151 281 136 294 q 179 258 167 268 q 110 208 136 235 q 72 158 85 182 q 56 115 60 133 q 53 90 53 97 q 74 18 53 47 q 125 -28 94 -11 q 191 -51 156 -44 q 254 -58 226 -58 l 254 -61 q 190 -85 222 -69 q 130 -122 157 -100 q 86 -172 103 -143 q 69 -239 69 -201 q 78 -287 69 -258 q 114 -342 86 -315 q 194 -389 142 -369 q 333 -408 246 -408 q 472 -383 411 -408 q 575 -318 532 -358 q 640 -226 618 -278 q 663 -121 663 -175 q 640 -15 663 -57 q 582 53 618 28 q 498 88 546 78 q 397 99 450 99 m 269 894 q 296 832 269 858 q 358 806 322 806 q 421 832 394 806 q 447 894 447 858 q 421 957 447 931 q 358 983 394 983 q 296 957 322 983 q 269 894 269 931 z "},"":{"ha":1081,"x_min":65,"x_max":1063,"o":"m 908 706 l 908 989 l 885 989 q 869 966 878 972 q 842 960 861 960 q 797 968 824 960 q 738 985 771 976 q 665 1003 704 994 q 585 1011 626 1011 q 403 974 496 1011 q 236 869 311 938 q 113 706 161 801 q 65 492 65 610 q 108 290 65 383 q 223 128 151 197 q 389 20 294 60 q 585 -19 483 -19 q 694 -6 649 -19 q 774 22 739 7 q 838 51 808 38 q 901 64 868 64 q 931 56 918 64 q 947 32 944 49 l 972 32 l 972 350 l 1063 350 l 1063 369 l 633 369 l 633 350 l 776 350 l 776 297 q 771 179 776 233 q 745 85 765 125 q 688 23 725 46 q 586 0 650 0 q 452 23 508 0 q 360 99 396 46 q 308 238 325 151 q 292 450 292 324 l 292 571 q 301 724 292 649 q 342 859 311 800 q 432 955 374 918 q 586 992 490 992 q 779 917 707 993 q 888 706 851 842 l 908 706 m 564 0 l 463 -108 l 482 -128 q 533 -114 504 -114 q 563 -123 553 -114 q 579 -145 574 -132 q 585 -175 585 -158 q 586 -206 586 -192 q 583 -240 586 -222 q 574 -272 581 -257 q 554 -295 567 -286 q 521 -304 542 -304 q 478 -297 493 -304 q 440 -274 463 -289 l 428 -290 q 479 -322 456 -311 q 539 -332 503 -332 q 597 -324 568 -332 q 647 -299 625 -315 q 683 -258 669 -282 q 696 -200 696 -233 q 685 -153 696 -175 q 657 -115 675 -131 q 617 -91 639 -100 q 569 -82 594 -82 q 532 -88 551 -82 q 497 -101 513 -94 l 494 -99 l 592 0 l 564 0 z "},"":{"ha":746,"x_min":53,"x_max":764,"o":"m 194 -217 q 217 -128 194 -161 q 282 -61 240 -94 l 426 -61 q 472 -67 447 -61 q 518 -87 497 -72 q 553 -128 539 -103 q 567 -196 567 -154 q 550 -272 567 -237 q 506 -332 533 -307 q 443 -371 479 -357 q 367 -385 407 -385 q 281 -368 314 -385 q 228 -326 247 -351 q 201 -271 208 -300 q 194 -217 194 -242 m 356 232 q 311 238 332 232 q 276 263 290 243 q 253 322 261 283 q 244 426 244 361 q 249 489 244 458 q 265 543 253 519 q 299 581 276 567 q 356 596 321 596 q 414 582 393 596 q 446 543 435 568 q 460 484 457 518 q 463 410 463 450 q 455 317 463 353 q 433 263 447 282 q 400 238 419 244 q 356 232 381 232 m 397 99 l 244 99 q 169 115 197 99 q 142 167 142 132 q 149 201 142 182 q 196 246 156 219 q 267 224 224 235 q 365 213 310 213 q 482 230 435 213 q 559 275 529 247 q 602 337 589 303 q 615 406 615 371 q 596 492 615 463 q 560 540 576 522 q 599 566 588 560 q 618 572 610 572 q 636 563 633 572 q 642 533 639 553 q 645 519 643 528 q 653 502 647 510 q 672 489 660 494 q 703 483 683 483 q 747 499 731 483 q 764 543 764 515 q 744 595 764 575 q 683 615 724 615 q 610 599 638 615 q 547 551 582 583 q 470 596 515 576 q 363 615 425 615 q 249 599 300 615 q 164 553 199 582 q 110 487 129 525 q 92 406 92 449 q 101 352 92 375 q 123 312 110 329 q 151 281 136 294 q 179 258 167 268 q 110 208 136 235 q 72 158 85 182 q 56 115 60 133 q 53 90 53 97 q 74 18 53 47 q 125 -28 94 -11 q 191 -51 156 -44 q 254 -58 226 -58 l 254 -61 q 190 -85 222 -69 q 130 -122 157 -100 q 86 -172 103 -143 q 69 -239 69 -201 q 78 -287 69 -258 q 114 -342 86 -315 q 194 -389 142 -369 q 333 -408 246 -408 q 472 -383 411 -408 q 575 -318 532 -358 q 640 -226 618 -278 q 663 -121 663 -175 q 640 -15 663 -57 q 582 53 618 28 q 498 88 546 78 q 397 99 450 99 m 476 1167 l 467 1185 q 403 1141 438 1165 q 339 1085 368 1117 q 290 1011 310 1053 q 269 915 269 969 q 307 793 269 836 q 397 750 344 750 q 434 756 415 750 q 468 773 453 761 q 493 803 483 785 q 503 849 503 822 q 493 894 503 875 q 469 924 483 913 q 439 942 456 936 q 407 947 422 947 q 376 944 392 947 q 349 933 361 942 q 335 954 342 940 q 328 990 328 968 q 368 1080 328 1040 q 476 1167 408 1119 z "},"":{"ha":1157,"x_min":49,"x_max":1108,"o":"m 49 989 l 49 969 l 176 969 l 176 19 l 49 19 l 49 0 l 506 0 l 506 19 l 378 19 l 378 494 l 779 494 l 779 19 l 651 19 l 651 0 l 1108 0 l 1108 19 l 981 19 l 981 969 l 1108 969 l 1108 989 l 651 989 l 651 969 l 779 969 l 779 514 l 378 514 l 378 969 l 506 969 l 506 989 l 49 989 m 525 1332 l 375 1058 l 390 1058 l 575 1235 l 760 1058 l 776 1058 l 626 1332 l 525 1332 z "},"":{"ha":875,"x_min":17,"x_max":831,"o":"m 51 19 l 51 0 l 400 0 l 400 19 l 313 19 l 313 317 q 326 428 313 381 q 363 507 340 475 q 417 555 386 539 q 481 571 447 571 q 544 544 521 571 q 568 458 568 517 l 568 19 l 482 19 l 482 0 l 831 0 l 831 19 l 738 19 l 738 411 q 687 556 738 503 q 544 608 636 608 q 441 590 482 608 q 374 548 400 572 q 334 499 347 524 q 315 463 321 475 l 313 463 l 313 1001 l 51 1001 l 51 982 l 143 982 l 143 19 l 51 19 m 167 1332 l 17 1058 l 32 1058 l 217 1235 l 401 1058 l 418 1058 l 268 1332 l 167 1332 z "},"":{"ha":1157,"x_min":-49,"x_max":1167,"o":"m 49 989 l 49 969 l 176 969 l 176 19 l 49 19 l 49 0 l 506 0 l 506 19 l 378 19 l 378 494 l 779 494 l 779 19 l 651 19 l 651 0 l 1108 0 l 1108 19 l 981 19 l 981 969 l 1108 969 l 1108 989 l 651 989 l 651 969 l 779 969 l 779 514 l 378 514 l 378 969 l 506 969 l 506 989 l 49 989 m -49 775 l -49 732 l 1167 732 l 1167 775 l -49 775 z "},"":{"ha":875,"x_min":-25,"x_max":831,"o":"m 51 19 l 51 0 l 400 0 l 400 19 l 313 19 l 313 317 q 326 428 313 381 q 363 507 340 475 q 417 555 386 539 q 481 571 447 571 q 544 544 521 571 q 568 458 568 517 l 568 19 l 482 19 l 482 0 l 831 0 l 831 19 l 738 19 l 738 411 q 687 556 738 503 q 544 608 636 608 q 441 590 482 608 q 374 548 400 572 q 334 499 347 524 q 315 463 321 475 l 313 463 l 313 1001 l 51 1001 l 51 982 l 143 982 l 143 19 l 51 19 m -24 781 l -24 738 l 497 738 l 497 781 l -24 781 z "},"":{"ha":565,"x_min":54,"x_max":511,"o":"m 54 989 l 54 969 l 182 969 l 182 19 l 54 19 l 54 0 l 511 0 l 511 19 l 383 19 l 383 969 l 511 969 l 511 989 l 54 989 m 82 1114 l 97 1151 q 115 1173 104 1167 q 136 1179 126 1179 q 182 1170 153 1179 q 244 1151 211 1161 q 309 1131 278 1140 q 361 1122 340 1122 q 416 1140 393 1122 q 455 1184 439 1158 q 481 1238 471 1210 q 494 1283 490 1265 l 475 1283 q 472 1270 475 1281 q 461 1249 468 1260 q 444 1228 454 1238 q 419 1219 433 1219 q 382 1228 414 1219 q 313 1248 350 1238 q 242 1267 275 1258 q 199 1275 208 1275 q 162 1268 183 1275 q 128 1250 140 1261 q 110 1231 118 1242 q 96 1206 103 1221 q 81 1168 89 1190 q 63 1114 74 1146 l 82 1114 z "},"":{"ha":438,"x_min":-22,"x_max":410,"o":"m 50 596 l 50 576 l 143 576 l 143 19 l 50 19 l 50 0 l 406 0 l 406 19 l 313 19 l 313 596 l 50 596 m -3 790 l 13 828 q 31 849 19 843 q 51 856 42 856 q 97 847 68 856 q 160 827 126 838 q 224 808 193 817 q 276 799 256 799 q 331 817 308 799 q 370 860 354 835 q 396 914 386 886 q 410 960 406 942 l 390 960 q 387 947 390 957 q 376 925 383 936 q 359 905 369 914 q 335 896 349 896 q 297 905 329 896 q 228 924 265 914 q 157 943 190 935 q 114 951 124 951 q 77 944 99 951 q 43 926 56 938 q 26 908 33 918 q 11 882 18 897 q -3 844 4 867 q -22 790 -11 822 l -3 790 z "},"":{"ha":565,"x_min":54,"x_max":511,"o":"m 54 989 l 54 969 l 182 969 l 182 19 l 54 19 l 54 0 l 511 0 l 511 19 l 383 19 l 383 969 l 511 969 l 511 989 l 54 989 m 65 1215 l 65 1174 l 511 1174 l 511 1215 l 65 1215 z "},"":{"ha":438,"x_min":-29,"x_max":417,"o":"m 50 596 l 50 576 l 143 576 l 143 19 l 50 19 l 50 0 l 406 0 l 406 19 l 313 19 l 313 596 l 50 596 m -29 892 l -29 850 l 417 850 l 417 892 l -29 892 z "},"":{"ha":565,"x_min":54,"x_max":511,"o":"m 54 989 l 54 969 l 182 969 l 182 19 l 54 19 l 54 0 l 511 0 l 511 19 l 383 19 l 383 969 l 511 969 l 511 989 l 54 989 m 111 1281 l 96 1281 q 149 1118 94 1172 q 292 1064 203 1064 q 435 1118 381 1064 q 489 1281 490 1172 l 472 1281 q 404 1182 453 1208 q 292 1156 356 1156 q 179 1182 228 1156 q 111 1281 131 1208 z "},"":{"ha":438,"x_min":21,"x_max":414,"o":"m 50 596 l 50 576 l 143 576 l 143 19 l 50 19 l 50 0 l 406 0 l 406 19 l 313 19 l 313 596 l 50 596 m 36 897 l 21 897 q 74 735 19 789 q 217 681 128 681 q 360 735 306 681 q 414 897 415 789 l 397 897 q 329 799 378 825 q 217 772 281 772 q 104 799 153 772 q 36 897 56 825 z "},"":{"ha":565,"x_min":54,"x_max":511,"o":"m 54 989 l 54 969 l 182 969 l 182 19 l 54 19 l 54 0 l 511 0 l 511 19 l 383 19 l 383 969 l 511 969 l 511 989 l 54 989 m 308 0 l 199 -57 q 142 -94 164 -76 q 110 -127 121 -111 q 95 -157 99 -143 q 92 -183 92 -171 q 119 -248 92 -219 q 210 -276 147 -276 q 244 -274 229 -276 q 274 -267 260 -272 q 303 -254 289 -262 q 338 -232 318 -246 l 328 -215 q 307 -228 319 -222 q 267 -235 294 -235 q 232 -226 244 -235 q 213 -206 219 -217 q 206 -184 207 -194 q 206 -169 206 -174 q 236 -99 206 -137 q 338 0 267 -60 l 308 0 z "},"":{"ha":438,"x_min":50,"x_max":406,"o":"m 129 894 q 158 825 129 854 q 228 796 188 796 q 297 825 268 796 q 326 894 326 854 q 297 964 326 935 q 228 993 268 993 q 158 964 188 993 q 129 894 129 935 m 50 596 l 50 576 l 143 576 l 143 19 l 50 19 l 50 0 l 406 0 l 406 19 l 313 19 l 313 596 l 50 596 m 308 0 l 199 -57 q 142 -94 164 -76 q 110 -127 121 -111 q 95 -157 99 -143 q 92 -183 92 -171 q 119 -248 92 -219 q 210 -276 147 -276 q 244 -274 229 -276 q 274 -267 260 -272 q 303 -254 289 -262 q 338 -232 318 -246 l 328 -215 q 307 -228 319 -222 q 267 -235 294 -235 q 232 -226 244 -235 q 213 -206 219 -217 q 206 -184 207 -194 q 206 -169 206 -174 q 236 -99 206 -137 q 338 0 267 -60 l 308 0 z "},"":{"ha":565,"x_min":54,"x_max":511,"o":"m 54 989 l 54 969 l 182 969 l 182 19 l 54 19 l 54 0 l 511 0 l 511 19 l 383 19 l 383 969 l 511 969 l 511 989 l 54 989 m 194 1218 q 221 1156 194 1182 q 283 1129 247 1129 q 346 1156 319 1129 q 372 1218 372 1182 q 346 1281 372 1254 q 283 1307 319 1307 q 221 1281 247 1307 q 194 1218 194 1254 z "},"":{"ha":438,"x_min":50,"x_max":406,"o":"m 50 596 l 50 576 l 143 576 l 143 19 l 50 19 l 50 0 l 406 0 l 406 19 l 313 19 l 313 596 l 50 596 z "},"":{"ha":1203,"x_min":54,"x_max":1156,"o":"m 54 989 l 54 969 l 182 969 l 182 19 l 54 19 l 54 0 l 511 0 l 511 19 l 383 19 l 383 969 l 511 969 l 511 989 l 54 989 m 1028 283 l 1028 969 l 1156 969 l 1156 989 l 699 989 l 699 969 l 826 969 l 826 90 q 826 62 826 78 q 819 32 825 46 q 802 9 814 18 q 767 0 790 0 q 751 1 761 0 q 731 6 740 1 q 713 22 721 11 q 706 54 706 33 q 708 74 706 60 q 715 104 711 88 q 722 136 719 121 q 725 161 725 151 q 716 197 725 183 q 694 217 707 210 q 666 226 681 224 q 640 228 651 228 q 576 215 599 228 q 544 185 554 201 q 532 152 533 168 q 531 129 531 136 q 551 56 531 85 q 604 10 572 26 q 675 -13 636 -7 q 750 -19 714 -19 q 909 15 853 -19 q 992 98 965 50 q 1023 197 1018 146 q 1028 283 1028 249 z "},"":{"ha":438,"x_min":50,"x_max":843,"o":"m 129 894 q 158 825 129 854 q 228 796 188 796 q 297 825 268 796 q 326 894 326 854 q 297 964 326 935 q 228 993 268 993 q 158 964 188 993 q 129 894 129 935 m 50 596 l 50 576 l 143 576 l 143 19 l 50 19 l 50 0 l 406 0 l 406 19 l 313 19 l 313 596 l 50 596 m 646 894 q 675 825 646 854 q 744 796 704 796 q 814 825 785 796 q 843 894 843 854 q 814 964 843 935 q 744 993 785 993 q 675 964 704 993 q 646 894 646 935 m 660 576 l 660 -293 q 647 -362 660 -347 q 610 -378 635 -378 q 571 -362 576 -378 q 565 -333 565 -347 q 571 -298 565 -318 q 576 -262 576 -278 q 557 -217 576 -233 q 503 -201 538 -201 q 450 -218 474 -201 q 426 -279 426 -235 q 474 -366 426 -335 q 597 -397 522 -397 q 707 -372 663 -397 q 778 -300 751 -346 q 817 -192 806 -254 q 829 -58 829 -131 l 829 596 l 567 596 l 567 576 l 660 576 z "},"":{"ha":694,"x_min":31,"x_max":656,"o":"m 528 283 l 528 969 l 656 969 l 656 989 l 199 989 l 199 969 l 326 969 l 326 90 q 326 62 326 78 q 319 32 325 46 q 302 9 314 18 q 267 0 290 0 q 251 1 261 0 q 231 6 240 1 q 213 22 221 11 q 206 54 206 33 q 208 74 206 60 q 215 104 211 88 q 222 136 219 121 q 225 161 225 151 q 216 197 225 183 q 194 217 207 210 q 166 226 181 224 q 140 228 151 228 q 76 215 99 228 q 44 185 54 201 q 32 152 33 168 q 31 129 31 136 q 51 56 31 85 q 104 10 72 26 q 175 -13 136 -7 q 250 -19 214 -19 q 409 15 353 -19 q 492 98 465 50 q 523 197 518 146 q 528 283 528 249 m 383 1332 l 233 1058 l 249 1058 l 433 1235 l 618 1058 l 635 1058 l 485 1332 l 383 1332 z "},"":{"ha":463,"x_min":-67,"x_max":446,"o":"m 165 576 l 165 -292 q 153 -361 165 -346 q 115 -376 140 -376 q 76 -361 82 -376 q 71 -332 71 -346 q 76 -297 71 -317 q 82 -261 82 -276 q 63 -216 82 -232 q 8 -200 43 -200 q -43 -217 -19 -200 q -67 -278 -67 -233 q -19 -365 -67 -333 q 103 -396 28 -396 q 213 -370 168 -396 q 284 -299 257 -344 q 323 -191 311 -253 q 335 -57 335 -129 l 335 596 l 72 596 l 72 576 l 165 576 m 194 1008 l 44 735 l 60 735 l 244 911 l 429 735 l 446 735 l 296 1008 l 194 1008 z "},"":{"ha":1081,"x_min":58,"x_max":1107,"o":"m 58 989 l 58 969 l 186 969 l 186 19 l 58 19 l 58 0 l 515 0 l 515 19 l 388 19 l 388 506 l 399 506 l 768 19 l 643 19 l 643 0 l 1107 0 l 1107 19 l 1021 19 l 540 644 l 850 969 l 961 969 l 961 989 l 683 989 l 683 969 l 824 969 l 399 525 l 388 525 l 388 969 l 515 969 l 515 989 l 58 989 m 881 0 l 779 -108 l 799 -128 q 850 -114 821 -114 q 880 -123 869 -114 q 896 -145 890 -132 q 902 -175 901 -158 q 903 -206 903 -192 q 900 -240 903 -222 q 890 -272 897 -257 q 871 -295 883 -286 q 838 -304 858 -304 q 794 -297 810 -304 q 757 -274 779 -289 l 744 -290 q 796 -322 772 -311 q 856 -332 819 -332 q 913 -324 885 -332 q 964 -299 942 -315 q 999 -258 986 -282 q 1013 -200 1013 -233 q 1002 -153 1013 -175 q 974 -115 992 -131 q 933 -91 956 -100 q 886 -82 911 -82 q 849 -88 868 -82 q 814 -101 829 -94 l 811 -99 l 908 0 l 881 0 z "},"":{"ha":824,"x_min":49,"x_max":819,"o":"m 49 1001 l 49 982 l 140 982 l 140 19 l 49 19 l 49 0 l 396 0 l 396 19 l 310 19 l 310 319 l 317 319 l 551 19 l 451 19 l 451 0 l 819 0 l 819 19 l 765 19 l 447 429 l 603 576 l 692 576 l 692 596 l 474 596 l 474 576 l 575 576 l 317 339 l 310 339 l 310 1001 l 49 1001 m 653 0 l 551 -108 l 571 -128 q 622 -114 593 -114 q 652 -123 642 -114 q 668 -145 663 -132 q 674 -175 674 -158 q 675 -206 675 -192 q 672 -240 675 -222 q 663 -272 669 -257 q 643 -295 656 -286 q 610 -304 631 -304 q 567 -297 582 -304 q 529 -274 551 -289 l 517 -290 q 568 -322 544 -311 q 628 -332 592 -332 q 685 -324 657 -332 q 736 -299 714 -315 q 772 -258 758 -282 q 785 -200 785 -233 q 774 -153 785 -175 q 746 -115 764 -131 q 706 -91 728 -100 q 658 -82 683 -82 q 621 -88 640 -82 q 586 -101 601 -94 l 583 -99 l 681 0 l 653 0 z "},"":{"ha":824,"x_min":49,"x_max":819,"o":"m 49 596 l 49 576 l 140 576 l 140 19 l 49 19 l 49 0 l 396 0 l 396 19 l 310 19 l 310 319 l 317 319 l 551 19 l 451 19 l 451 0 l 819 0 l 819 19 l 765 19 l 447 429 l 603 576 l 692 576 l 692 596 l 474 596 l 474 576 l 575 576 l 317 339 l 310 339 l 310 596 l 49 596 z "},"":{"ha":1003,"x_min":64,"x_max":944,"o":"m 64 989 l 64 969 l 192 969 l 192 19 l 64 19 l 64 0 l 944 0 l 944 314 l 926 314 q 876 177 908 233 q 802 85 843 121 q 715 35 761 50 q 622 19 668 19 l 393 19 l 393 969 l 521 969 l 521 989 l 64 989 m 308 1303 l 186 1058 l 204 1058 l 400 1267 q 410 1288 408 1276 q 413 1304 413 1299 q 395 1335 413 1325 q 367 1346 378 1346 q 327 1332 339 1346 q 308 1303 315 1318 z "},"":{"ha":438,"x_min":50,"x_max":406,"o":"m 50 1001 l 50 982 l 143 982 l 143 19 l 50 19 l 50 0 l 406 0 l 406 19 l 313 19 l 313 1001 l 50 1001 m 256 1303 l 133 1058 l 151 1058 l 347 1267 q 358 1288 356 1276 q 360 1304 360 1299 q 342 1335 360 1325 q 314 1346 325 1346 q 274 1332 286 1346 q 256 1303 263 1318 z "},"":{"ha":1003,"x_min":64,"x_max":944,"o":"m 64 989 l 64 969 l 192 969 l 192 19 l 64 19 l 64 0 l 944 0 l 944 314 l 926 314 q 876 177 908 233 q 802 85 843 121 q 715 35 761 50 q 622 19 668 19 l 393 19 l 393 969 l 521 969 l 521 989 l 64 989 m 290 0 l 189 -108 l 208 -128 q 260 -114 231 -114 q 290 -123 279 -114 q 306 -145 300 -132 q 312 -175 311 -158 q 313 -206 313 -192 q 310 -240 313 -222 q 300 -272 307 -257 q 281 -295 293 -286 q 247 -304 268 -304 q 204 -297 219 -304 q 167 -274 189 -289 l 154 -290 q 206 -322 182 -311 q 265 -332 229 -332 q 323 -324 294 -332 q 374 -299 351 -315 q 409 -258 396 -282 q 422 -200 422 -233 q 412 -153 422 -175 q 383 -115 401 -131 q 343 -91 365 -100 q 296 -82 321 -82 q 258 -88 278 -82 q 224 -101 239 -94 l 221 -99 l 318 0 l 290 0 z "},"":{"ha":438,"x_min":50,"x_max":406,"o":"m 50 1001 l 50 982 l 143 982 l 143 19 l 50 19 l 50 0 l 406 0 l 406 19 l 313 19 l 313 1001 l 50 1001 m 215 0 l 114 -108 l 133 -128 q 185 -114 156 -114 q 215 -123 204 -114 q 231 -145 225 -132 q 237 -175 236 -158 q 238 -206 238 -192 q 235 -240 238 -222 q 225 -272 232 -257 q 206 -295 218 -286 q 172 -304 193 -304 q 129 -297 144 -304 q 92 -274 114 -289 l 79 -290 q 131 -322 107 -311 q 190 -332 154 -332 q 248 -324 219 -332 q 299 -299 276 -315 q 334 -258 321 -282 q 347 -200 347 -233 q 337 -153 347 -175 q 308 -115 326 -131 q 268 -91 290 -100 q 221 -82 246 -82 q 183 -88 203 -82 q 149 -101 164 -94 l 146 -99 l 243 0 l 215 0 z "},"":{"ha":1003,"x_min":64,"x_max":999,"o":"m 64 989 l 64 969 l 192 969 l 192 19 l 64 19 l 64 0 l 944 0 l 944 314 l 926 314 q 876 177 908 233 q 802 85 843 121 q 715 35 761 50 q 622 19 668 19 l 393 19 l 393 969 l 521 969 l 521 989 l 64 989 m 792 594 l 801 576 q 865 619 831 594 q 930 676 900 643 q 979 750 960 708 q 999 846 999 792 q 961 968 999 925 q 871 1011 924 1011 q 834 1006 853 1011 q 800 988 815 1000 q 775 958 785 976 q 765 913 765 939 q 775 867 765 886 q 799 837 785 849 q 830 819 813 825 q 861 814 847 814 q 892 817 876 814 q 919 828 907 819 q 933 807 926 821 q 940 771 940 793 q 900 681 940 721 q 792 594 860 642 z "},"":{"ha":707,"x_min":50,"x_max":635,"o":"m 50 1001 l 50 982 l 143 982 l 143 19 l 50 19 l 50 0 l 406 0 l 406 19 l 313 19 l 313 1001 l 50 1001 m 428 594 l 438 576 q 501 619 467 594 q 566 676 536 643 q 615 750 596 708 q 635 846 635 792 q 597 968 635 925 q 507 1011 560 1011 q 470 1006 489 1011 q 436 988 451 1000 q 411 958 421 976 q 401 913 401 939 q 411 867 401 886 q 435 837 421 849 q 466 819 449 825 q 497 814 483 814 q 528 817 513 814 q 556 828 543 819 q 569 807 563 821 q 576 771 576 793 q 536 681 576 721 q 428 594 496 642 z "},"":{"ha":1003,"x_min":64,"x_max":944,"o":"m 64 989 l 64 969 l 192 969 l 192 19 l 64 19 l 64 0 l 944 0 l 944 314 l 926 314 q 876 177 908 233 q 802 85 843 121 q 715 35 761 50 q 622 19 668 19 l 393 19 l 393 969 l 521 969 l 521 989 l 64 989 m 681 683 q 707 621 681 647 q 769 594 733 594 q 832 621 806 594 q 858 683 858 647 q 832 746 858 719 q 769 772 806 772 q 707 746 733 772 q 681 683 681 719 z "},"":{"ha":726,"x_min":50,"x_max":654,"o":"m 50 1001 l 50 982 l 143 982 l 143 19 l 50 19 l 50 0 l 406 0 l 406 19 l 313 19 l 313 1001 l 50 1001 m 476 683 q 503 621 476 647 q 565 594 529 594 q 628 621 601 594 q 654 683 654 647 q 628 746 654 719 q 565 772 601 772 q 503 746 529 772 q 476 683 476 719 z "},"":{"ha":1003,"x_min":64,"x_max":944,"o":"m 192 457 l 192 19 l 64 19 l 64 0 l 944 0 l 944 314 l 926 314 q 876 177 908 233 q 802 85 843 121 q 715 35 761 50 q 622 19 668 19 l 393 19 l 393 561 l 599 676 l 599 704 l 393 589 l 393 969 l 521 969 l 521 989 l 64 989 l 64 969 l 192 969 l 192 485 l 64 413 l 64 385 l 192 457 z "},"":{"ha":438,"x_min":50,"x_max":406,"o":"m 143 982 l 143 499 l 50 444 l 50 417 l 143 471 l 143 19 l 50 19 l 50 0 l 406 0 l 406 19 l 313 19 l 313 569 l 406 624 l 406 651 l 313 597 l 313 1001 l 50 1001 l 50 982 l 143 982 z "},"":{"ha":1029,"x_min":47,"x_max":990,"o":"m 47 989 l 47 969 l 175 969 l 175 19 l 47 19 l 47 0 l 325 0 l 325 19 l 197 19 l 197 890 l 200 890 l 825 0 l 863 0 l 863 969 l 990 969 l 990 989 l 713 989 l 713 969 l 840 969 l 840 328 l 838 328 l 375 989 l 47 989 m 524 1303 l 401 1058 l 419 1058 l 615 1267 q 626 1288 624 1276 q 628 1304 628 1299 q 610 1335 628 1325 q 582 1346 593 1346 q 542 1332 554 1346 q 524 1303 531 1318 z "},"":{"ha":875,"x_min":58,"x_max":838,"o":"m 58 19 l 58 0 l 407 0 l 407 19 l 319 19 l 319 317 q 333 428 319 381 q 370 507 347 475 q 424 555 393 539 q 488 571 454 571 q 551 544 528 571 q 575 458 575 517 l 575 19 l 489 19 l 489 0 l 838 0 l 838 19 l 744 19 l 744 411 q 694 556 744 503 q 551 608 643 608 q 447 590 489 608 q 379 546 406 571 q 339 495 353 521 q 319 457 325 469 l 317 457 l 317 596 l 58 596 l 58 576 l 150 576 l 150 19 l 58 19 m 488 979 l 365 735 l 383 735 l 579 943 q 590 964 588 953 q 592 981 592 975 q 574 1012 592 1001 q 546 1022 557 1022 q 506 1008 518 1022 q 488 979 494 994 z "},"":{"ha":1029,"x_min":47,"x_max":990,"o":"m 47 989 l 47 969 l 175 969 l 175 19 l 47 19 l 47 0 l 325 0 l 325 19 l 197 19 l 197 890 l 200 890 l 825 0 l 863 0 l 863 969 l 990 969 l 990 989 l 713 989 l 713 969 l 840 969 l 840 328 l 838 328 l 375 989 l 47 989 m 833 0 l 732 -108 l 751 -128 q 803 -114 774 -114 q 833 -123 822 -114 q 849 -145 843 -132 q 855 -175 854 -158 q 856 -206 856 -192 q 853 -240 856 -222 q 843 -272 850 -257 q 824 -295 836 -286 q 790 -304 811 -304 q 747 -297 763 -304 q 710 -274 732 -289 l 697 -290 q 749 -322 725 -311 q 808 -332 772 -332 q 866 -324 838 -332 q 917 -299 894 -315 q 952 -258 939 -282 q 965 -200 965 -233 q 955 -153 965 -175 q 926 -115 944 -131 q 886 -91 908 -100 q 839 -82 864 -82 q 801 -88 821 -82 q 767 -101 782 -94 l 764 -99 l 861 0 l 833 0 z "},"":{"ha":875,"x_min":58,"x_max":838,"o":"m 58 19 l 58 0 l 407 0 l 407 19 l 319 19 l 319 317 q 333 428 319 381 q 370 507 347 475 q 424 555 393 539 q 488 571 454 571 q 551 544 528 571 q 575 458 575 517 l 575 19 l 489 19 l 489 0 l 838 0 l 838 19 l 744 19 l 744 411 q 694 556 744 503 q 551 608 643 608 q 447 590 489 608 q 379 546 406 571 q 339 495 353 521 q 319 457 325 469 l 317 457 l 317 596 l 58 596 l 58 576 l 150 576 l 150 19 l 58 19 m 664 0 l 563 -108 l 582 -128 q 633 -114 604 -114 q 663 -123 653 -114 q 679 -145 674 -132 q 685 -175 685 -158 q 686 -206 686 -192 q 683 -240 686 -222 q 674 -272 681 -257 q 654 -295 667 -286 q 621 -304 642 -304 q 578 -297 593 -304 q 540 -274 563 -289 l 528 -290 q 579 -322 556 -311 q 639 -332 603 -332 q 697 -324 668 -332 q 747 -299 725 -315 q 783 -258 769 -282 q 796 -200 796 -233 q 785 -153 796 -175 q 757 -115 775 -131 q 717 -91 739 -100 q 669 -82 694 -82 q 632 -88 651 -82 q 597 -101 613 -94 l 594 -99 l 692 0 l 664 0 z "},"":{"ha":1029,"x_min":47,"x_max":990,"o":"m 47 989 l 47 969 l 175 969 l 175 19 l 47 19 l 47 0 l 325 0 l 325 19 l 197 19 l 197 890 l 200 890 l 825 0 l 863 0 l 863 969 l 990 969 l 990 989 l 713 989 l 713 969 l 840 969 l 840 328 l 838 328 l 375 989 l 47 989 m 568 1058 l 719 1332 l 703 1332 l 518 1156 l 333 1332 l 318 1332 l 467 1058 l 568 1058 z "},"":{"ha":875,"x_min":58,"x_max":838,"o":"m 58 19 l 58 0 l 407 0 l 407 19 l 319 19 l 319 317 q 333 428 319 381 q 370 507 347 475 q 424 555 393 539 q 488 571 454 571 q 551 544 528 571 q 575 458 575 517 l 575 19 l 489 19 l 489 0 l 838 0 l 838 19 l 744 19 l 744 411 q 694 556 744 503 q 551 608 643 608 q 447 590 489 608 q 379 546 406 571 q 339 495 353 521 q 319 457 325 469 l 317 457 l 317 596 l 58 596 l 58 576 l 150 576 l 150 19 l 58 19 m 535 735 l 686 1008 l 669 1008 l 485 832 l 300 1008 l 285 1008 l 433 735 l 535 735 z "},"":{"ha":1122,"x_min":76,"x_max":1072,"o":"m 293 19 l 293 0 l 642 0 l 642 19 l 554 19 l 554 317 q 568 428 554 381 q 605 507 582 475 q 658 555 628 539 q 722 571 689 571 q 786 544 763 571 q 810 458 810 517 l 810 19 l 724 19 l 724 0 l 1072 0 l 1072 19 l 979 19 l 979 411 q 928 556 979 503 q 786 608 878 608 q 682 590 724 608 q 614 546 640 571 q 574 495 588 521 q 554 457 560 469 l 551 457 l 551 596 l 293 596 l 293 576 l 385 576 l 385 19 l 293 19 m 103 594 l 113 576 q 176 619 142 594 q 241 676 211 643 q 290 750 271 708 q 310 846 310 792 q 272 968 310 925 q 182 1011 235 1011 q 145 1006 164 1011 q 111 988 126 1000 q 86 958 96 976 q 76 913 76 939 q 86 867 76 886 q 110 837 96 849 q 141 819 124 825 q 172 814 158 814 q 203 817 188 814 q 231 828 218 819 q 244 807 238 821 q 251 771 251 793 q 211 681 251 721 q 103 594 171 642 z "},"":{"ha":1157,"x_min":58,"x_max":1099,"o":"m 285 492 q 294 693 285 601 q 335 851 304 785 q 424 955 365 918 q 579 992 482 992 q 742 952 683 992 q 831 845 801 913 q 866 690 860 778 q 872 504 872 601 q 865 303 872 396 q 828 144 857 211 q 740 38 799 76 q 579 0 682 0 q 445 22 501 0 q 353 101 389 44 q 301 252 318 157 q 285 492 285 347 m 58 492 q 101 290 58 383 q 216 128 144 197 q 382 20 288 60 q 579 -19 476 -19 q 777 22 683 -19 q 942 133 871 63 q 1056 298 1014 204 q 1099 496 1099 392 q 1053 710 1099 615 q 935 872 1008 806 q 769 975 863 939 q 579 1011 675 1011 q 397 974 490 1011 q 229 869 304 938 q 106 706 154 801 q 58 492 58 610 m 376 1215 l 376 1174 l 822 1174 l 822 1215 l 376 1215 z "},"":{"ha":772,"x_min":47,"x_max":725,"o":"m 386 0 q 301 26 332 0 q 256 93 271 51 q 238 189 242 135 q 235 299 235 243 q 238 408 235 354 q 256 503 242 461 q 301 570 271 544 q 386 596 332 596 q 471 570 440 596 q 516 503 501 544 q 534 408 531 461 q 538 299 538 354 q 534 189 538 243 q 516 93 531 135 q 471 26 501 51 q 386 0 440 0 m 386 615 q 252 590 314 615 q 144 521 190 564 q 73 420 99 478 q 47 299 47 363 q 73 176 47 233 q 144 75 99 118 q 252 7 190 32 q 386 -18 314 -18 q 520 7 458 -18 q 628 75 582 32 q 699 176 674 118 q 725 299 725 233 q 699 420 725 363 q 628 521 674 478 q 520 590 582 564 q 386 615 458 615 m 174 892 l 174 850 l 619 850 l 619 892 l 174 892 z "},"":{"ha":1157,"x_min":58,"x_max":1099,"o":"m 285 492 q 294 693 285 601 q 335 851 304 785 q 424 955 365 918 q 579 992 482 992 q 742 952 683 992 q 831 845 801 913 q 866 690 860 778 q 872 504 872 601 q 865 303 872 396 q 828 144 857 211 q 740 38 799 76 q 579 0 682 0 q 445 22 501 0 q 353 101 389 44 q 301 252 318 157 q 285 492 285 347 m 58 492 q 101 290 58 383 q 216 128 144 197 q 382 20 288 60 q 579 -19 476 -19 q 777 22 683 -19 q 942 133 871 63 q 1056 298 1014 204 q 1099 496 1099 392 q 1053 710 1099 615 q 935 872 1008 806 q 769 975 863 939 q 579 1011 675 1011 q 397 974 490 1011 q 229 869 304 938 q 106 706 154 801 q 58 492 58 610 m 404 1313 l 389 1313 q 442 1150 388 1204 q 585 1096 496 1096 q 728 1150 674 1096 q 782 1313 783 1204 l 765 1313 q 697 1214 746 1240 q 585 1188 649 1188 q 472 1214 521 1188 q 404 1313 424 1240 z "},"":{"ha":772,"x_min":47,"x_max":725,"o":"m 386 0 q 301 26 332 0 q 256 93 271 51 q 238 189 242 135 q 235 299 235 243 q 238 408 235 354 q 256 503 242 461 q 301 570 271 544 q 386 596 332 596 q 471 570 440 596 q 516 503 501 544 q 534 408 531 461 q 538 299 538 354 q 534 189 538 243 q 516 93 531 135 q 471 26 501 51 q 386 0 440 0 m 386 615 q 252 590 314 615 q 144 521 190 564 q 73 420 99 478 q 47 299 47 363 q 73 176 47 233 q 144 75 99 118 q 252 7 190 32 q 386 -18 314 -18 q 520 7 458 -18 q 628 75 582 32 q 699 176 674 118 q 725 299 725 233 q 699 420 725 363 q 628 521 674 478 q 520 590 582 564 q 386 615 458 615 m 211 989 l 196 989 q 249 826 194 881 q 392 772 303 772 q 535 826 481 772 q 589 989 590 881 l 572 989 q 504 890 553 917 q 392 864 456 864 q 279 890 328 864 q 211 989 231 917 z "},"":{"ha":1157,"x_min":58,"x_max":1099,"o":"m 285 492 q 294 693 285 601 q 335 851 304 785 q 424 955 365 918 q 579 992 482 992 q 742 952 683 992 q 831 845 801 913 q 866 690 860 778 q 872 504 872 601 q 865 303 872 396 q 828 144 857 211 q 740 38 799 76 q 579 0 682 0 q 445 22 501 0 q 353 101 389 44 q 301 252 318 157 q 285 492 285 347 m 58 492 q 101 290 58 383 q 216 128 144 197 q 382 20 288 60 q 579 -19 476 -19 q 777 22 683 -19 q 942 133 871 63 q 1056 298 1014 204 q 1099 496 1099 392 q 1053 710 1099 615 q 935 872 1008 806 q 769 975 863 939 q 579 1011 675 1011 q 397 974 490 1011 q 229 869 304 938 q 106 706 154 801 q 58 492 58 610 m 510 1303 l 388 1058 l 406 1058 l 601 1267 q 612 1288 610 1276 q 614 1304 614 1299 q 597 1335 614 1325 q 568 1346 579 1346 q 528 1332 540 1346 q 510 1303 517 1318 m 679 1303 l 557 1058 l 575 1058 l 771 1267 q 781 1288 779 1276 q 783 1304 783 1299 q 766 1335 783 1325 q 738 1346 749 1346 q 698 1332 710 1346 q 679 1303 686 1318 z "},"":{"ha":772,"x_min":47,"x_max":725,"o":"m 386 0 q 301 26 332 0 q 256 93 271 51 q 238 189 242 135 q 235 299 235 243 q 238 408 235 354 q 256 503 242 461 q 301 570 271 544 q 386 596 332 596 q 471 570 440 596 q 516 503 501 544 q 534 408 531 461 q 538 299 538 354 q 534 189 538 243 q 516 93 531 135 q 471 26 501 51 q 386 0 440 0 m 386 615 q 252 590 314 615 q 144 521 190 564 q 73 420 99 478 q 47 299 47 363 q 73 176 47 233 q 144 75 99 118 q 252 7 190 32 q 386 -18 314 -18 q 520 7 458 -18 q 628 75 582 32 q 699 176 674 118 q 725 299 725 233 q 699 420 725 363 q 628 521 674 478 q 520 590 582 564 q 386 615 458 615 m 346 979 l 224 735 l 242 735 l 438 943 q 448 964 446 953 q 450 981 450 975 q 433 1012 450 1001 q 404 1022 415 1022 q 365 1008 376 1022 q 346 979 353 994 m 515 979 l 393 735 l 411 735 l 607 943 q 617 964 615 953 q 619 981 619 975 q 602 1012 619 1001 q 574 1022 585 1022 q 534 1008 546 1022 q 515 979 522 994 z "},"":{"ha":1518,"x_min":68,"x_max":1471,"o":"m 711 965 l 711 24 q 658 15 692 19 q 593 11 625 11 q 453 35 510 11 q 360 115 396 60 q 310 262 325 171 q 294 486 294 353 q 301 669 294 581 q 338 827 308 758 q 426 937 367 896 q 590 978 485 978 q 644 974 607 978 q 711 965 682 971 m 1471 0 l 1471 304 l 1453 304 q 1413 192 1439 244 q 1347 101 1386 140 q 1256 41 1307 63 q 1140 19 1204 19 l 913 19 l 913 521 l 1006 521 q 1087 504 1054 521 q 1142 459 1119 488 q 1177 393 1164 431 q 1200 315 1190 356 l 1218 315 l 1218 747 l 1200 747 q 1175 662 1190 700 q 1136 597 1160 624 q 1077 555 1113 569 q 990 540 1042 540 l 913 540 l 913 969 l 1133 969 q 1249 944 1201 969 q 1326 883 1296 918 q 1372 812 1356 849 q 1396 751 1389 775 l 1414 751 l 1414 989 l 844 989 q 718 993 781 989 q 592 997 656 997 q 398 958 492 997 q 231 851 304 919 q 113 688 157 782 q 68 483 68 594 q 82 381 68 436 q 124 271 96 325 q 195 167 153 217 q 296 78 238 117 q 428 16 354 39 q 593 -7 503 -7 q 701 -3 647 -7 q 810 0 756 0 l 1471 0 z "},"":{"ha":1183,"x_min":50,"x_max":1133,"o":"m 946 368 l 724 368 q 728 444 725 404 q 744 517 732 483 q 783 574 757 551 q 856 596 808 596 q 908 581 889 596 q 935 543 926 565 q 944 499 943 521 q 946 461 946 476 l 946 368 m 724 349 l 1133 349 q 1108 470 1133 419 q 1044 553 1083 521 q 958 600 1006 585 q 863 615 910 615 q 734 588 792 615 q 633 515 676 560 q 526 588 589 561 q 389 615 464 615 q 255 590 317 615 q 147 521 193 564 q 76 420 101 478 q 50 299 50 363 q 76 176 50 233 q 147 75 101 118 q 255 7 193 32 q 389 -18 317 -18 q 521 6 460 -18 q 629 75 582 31 q 741 6 676 29 q 882 -18 806 -18 q 984 -1 942 -18 q 1056 42 1026 17 q 1101 98 1085 68 q 1125 154 1118 128 l 1106 161 q 1092 122 1104 149 q 1056 69 1081 96 q 994 21 1032 42 q 900 0 956 0 q 803 26 838 0 q 750 94 768 53 q 728 185 732 135 q 724 286 724 236 l 724 349 m 389 0 q 304 26 335 0 q 259 93 274 51 q 241 189 244 135 q 238 299 238 243 q 241 408 238 354 q 259 503 244 461 q 304 570 274 544 q 389 596 335 596 q 474 570 443 596 q 519 503 504 544 q 537 408 533 461 q 540 299 540 354 q 537 189 540 243 q 519 93 533 135 q 474 26 504 51 q 389 0 443 0 z "},"":{"ha":1003,"x_min":49,"x_max":1033,"o":"m 378 540 l 378 969 q 408 972 393 971 q 439 974 424 974 q 526 960 492 974 q 579 917 560 946 q 607 845 599 889 q 615 740 615 801 q 610 667 615 703 q 588 602 606 631 q 533 557 569 574 q 435 540 497 540 l 378 540 m 176 969 l 176 19 l 49 19 l 49 0 l 506 0 l 506 19 l 378 19 l 378 521 l 469 521 q 571 496 535 521 q 625 429 607 471 q 648 334 643 388 q 656 224 653 281 q 662 144 657 186 q 688 65 667 101 q 751 5 708 29 q 871 -19 794 -19 q 933 -15 908 -19 q 976 -1 958 -10 q 1006 19 993 7 q 1033 44 1019 31 l 1019 57 q 988 27 1006 43 q 942 11 969 11 q 903 21 917 11 q 883 60 890 31 q 871 142 875 89 q 860 282 867 194 q 831 401 854 357 q 769 471 808 446 q 677 508 731 496 q 556 533 624 521 l 556 540 q 651 558 603 544 q 740 596 700 571 q 804 660 779 621 q 829 756 829 700 q 797 871 829 825 q 714 944 764 917 q 603 982 664 971 q 489 993 543 993 q 374 991 431 993 q 258 989 317 989 l 49 989 l 49 969 l 176 969 m 468 1303 l 346 1058 l 364 1058 l 560 1267 q 570 1288 568 1276 q 572 1304 572 1299 q 555 1335 572 1325 q 526 1346 538 1346 q 487 1332 499 1346 q 468 1303 475 1318 z "},"":{"ha":617,"x_min":57,"x_max":626,"o":"m 57 596 l 57 576 l 147 576 l 147 19 l 57 19 l 57 0 l 426 0 l 426 19 l 317 19 l 317 375 q 330 455 317 419 q 361 515 343 490 q 400 553 379 540 q 435 567 421 567 q 453 562 447 567 q 463 551 460 557 q 466 539 465 544 q 467 533 467 533 q 465 522 467 532 q 462 501 464 513 q 458 478 460 489 q 457 464 457 468 q 483 415 457 428 q 542 401 510 401 q 606 425 586 401 q 626 490 626 449 q 590 577 626 546 q 496 608 554 608 q 384 570 426 608 q 317 479 342 532 l 314 479 l 314 596 l 57 596 m 256 979 l 133 735 l 151 735 l 347 943 q 358 964 356 953 q 360 981 360 975 q 342 1012 360 1001 q 314 1022 325 1022 q 274 1008 286 1022 q 256 979 263 994 z "},"":{"ha":1003,"x_min":49,"x_max":1033,"o":"m 378 540 l 378 969 q 408 972 393 971 q 439 974 424 974 q 526 960 492 974 q 579 917 560 946 q 607 845 599 889 q 615 740 615 801 q 610 667 615 703 q 588 602 606 631 q 533 557 569 574 q 435 540 497 540 l 378 540 m 176 969 l 176 19 l 49 19 l 49 0 l 506 0 l 506 19 l 378 19 l 378 521 l 469 521 q 571 496 535 521 q 625 429 607 471 q 648 334 643 388 q 656 224 653 281 q 662 144 657 186 q 688 65 667 101 q 751 5 708 29 q 871 -19 794 -19 q 933 -15 908 -19 q 976 -1 958 -10 q 1006 19 993 7 q 1033 44 1019 31 l 1019 57 q 988 27 1006 43 q 942 11 969 11 q 903 21 917 11 q 883 60 890 31 q 871 142 875 89 q 860 282 867 194 q 831 401 854 357 q 769 471 808 446 q 677 508 731 496 q 556 533 624 521 l 556 540 q 651 558 603 544 q 740 596 700 571 q 804 660 779 621 q 829 756 829 700 q 797 871 829 825 q 714 944 764 917 q 603 982 664 971 q 489 993 543 993 q 374 991 431 993 q 258 989 317 989 l 49 989 l 49 969 l 176 969 m 833 0 l 732 -108 l 751 -128 q 803 -114 774 -114 q 833 -123 822 -114 q 849 -145 843 -132 q 855 -175 854 -158 q 856 -206 856 -192 q 853 -240 856 -222 q 843 -272 850 -257 q 824 -295 836 -286 q 790 -304 811 -304 q 747 -297 763 -304 q 710 -274 732 -289 l 697 -290 q 749 -322 725 -311 q 808 -332 772 -332 q 866 -324 838 -332 q 917 -299 894 -315 q 952 -258 939 -282 q 965 -200 965 -233 q 955 -153 965 -175 q 926 -115 944 -131 q 886 -91 908 -100 q 839 -82 864 -82 q 801 -88 821 -82 q 767 -101 782 -94 l 764 -99 l 861 0 l 833 0 z "},"":{"ha":617,"x_min":57,"x_max":626,"o":"m 57 596 l 57 576 l 147 576 l 147 19 l 57 19 l 57 0 l 426 0 l 426 19 l 317 19 l 317 375 q 330 455 317 419 q 361 515 343 490 q 400 553 379 540 q 435 567 421 567 q 453 562 447 567 q 463 551 460 557 q 466 539 465 544 q 467 533 467 533 q 465 522 467 532 q 462 501 464 513 q 458 478 460 489 q 457 464 457 468 q 483 415 457 428 q 542 401 510 401 q 606 425 586 401 q 626 490 626 449 q 590 577 626 546 q 496 608 554 608 q 384 570 426 608 q 317 479 342 532 l 314 479 l 314 596 l 57 596 m 215 0 l 114 -108 l 133 -128 q 185 -114 156 -114 q 215 -123 204 -114 q 231 -145 225 -132 q 237 -175 236 -158 q 238 -206 238 -192 q 235 -240 238 -222 q 225 -272 232 -257 q 206 -295 218 -286 q 172 -304 193 -304 q 129 -297 144 -304 q 92 -274 114 -289 l 79 -290 q 131 -322 107 -311 q 190 -332 154 -332 q 248 -324 219 -332 q 299 -299 276 -315 q 334 -258 321 -282 q 347 -200 347 -233 q 337 -153 347 -175 q 308 -115 326 -131 q 268 -91 290 -100 q 221 -82 246 -82 q 183 -88 203 -82 q 149 -101 164 -94 l 146 -99 l 243 0 l 215 0 z "},"":{"ha":1003,"x_min":49,"x_max":1033,"o":"m 378 540 l 378 969 q 408 972 393 971 q 439 974 424 974 q 526 960 492 974 q 579 917 560 946 q 607 845 599 889 q 615 740 615 801 q 610 667 615 703 q 588 602 606 631 q 533 557 569 574 q 435 540 497 540 l 378 540 m 176 969 l 176 19 l 49 19 l 49 0 l 506 0 l 506 19 l 378 19 l 378 521 l 469 521 q 571 496 535 521 q 625 429 607 471 q 648 334 643 388 q 656 224 653 281 q 662 144 657 186 q 688 65 667 101 q 751 5 708 29 q 871 -19 794 -19 q 933 -15 908 -19 q 976 -1 958 -10 q 1006 19 993 7 q 1033 44 1019 31 l 1019 57 q 988 27 1006 43 q 942 11 969 11 q 903 21 917 11 q 883 60 890 31 q 871 142 875 89 q 860 282 867 194 q 831 401 854 357 q 769 471 808 446 q 677 508 731 496 q 556 533 624 521 l 556 540 q 651 558 603 544 q 740 596 700 571 q 804 660 779 621 q 829 756 829 700 q 797 871 829 825 q 714 944 764 917 q 603 982 664 971 q 489 993 543 993 q 374 991 431 993 q 258 989 317 989 l 49 989 l 49 969 l 176 969 m 526 1058 l 678 1332 l 661 1332 l 476 1156 l 292 1332 l 276 1332 l 425 1058 l 526 1058 z "},"":{"ha":617,"x_min":57,"x_max":626,"o":"m 57 596 l 57 576 l 147 576 l 147 19 l 57 19 l 57 0 l 426 0 l 426 19 l 317 19 l 317 375 q 330 455 317 419 q 361 515 343 490 q 400 553 379 540 q 435 567 421 567 q 453 562 447 567 q 463 551 460 557 q 466 539 465 544 q 467 533 467 533 q 465 522 467 532 q 462 501 464 513 q 458 478 460 489 q 457 464 457 468 q 483 415 457 428 q 542 401 510 401 q 606 425 586 401 q 626 490 626 449 q 590 577 626 546 q 496 608 554 608 q 384 570 426 608 q 317 479 342 532 l 314 479 l 314 596 l 57 596 m 408 735 l 560 1008 l 543 1008 l 358 832 l 174 1008 l 158 1008 l 307 735 l 408 735 z "},"":{"ha":900,"x_min":88,"x_max":808,"o":"m 88 308 l 88 0 l 110 0 q 125 26 117 19 q 153 32 133 32 q 195 24 167 32 q 260 6 224 15 q 340 -11 297 -3 q 425 -19 382 -19 q 581 8 511 -19 q 702 81 651 35 q 781 188 753 126 q 808 317 808 249 q 783 433 808 386 q 715 514 757 481 q 620 569 674 547 q 510 608 567 590 q 401 643 454 626 q 306 683 347 660 q 238 738 264 706 q 213 818 213 769 q 228 881 213 850 q 272 936 243 911 q 344 976 301 961 q 442 992 386 992 q 554 968 510 992 q 628 906 599 944 q 676 821 657 868 q 711 725 694 774 l 729 725 l 729 989 l 707 989 q 694 966 700 972 q 668 960 688 960 q 631 968 651 960 q 585 985 611 976 q 524 1003 558 994 q 443 1011 489 1011 q 309 987 371 1011 q 203 923 247 963 q 133 832 158 883 q 108 725 108 781 q 133 600 108 650 q 197 516 157 550 q 289 460 238 482 q 394 423 340 439 q 500 392 449 407 q 592 354 551 376 q 656 299 632 332 q 681 214 681 265 q 669 149 681 186 q 631 79 658 113 q 557 23 604 46 q 436 0 510 0 q 391 1 415 0 q 340 9 367 1 q 283 33 313 17 q 221 82 253 50 q 172 142 192 110 q 138 206 151 175 q 118 265 125 238 q 108 308 111 292 l 88 308 m 458 1303 l 336 1058 l 354 1058 l 550 1267 q 560 1288 558 1276 q 563 1304 563 1299 q 545 1335 563 1325 q 517 1346 528 1346 q 477 1332 489 1346 q 458 1303 465 1318 z "},"":{"ha":592,"x_min":61,"x_max":538,"o":"m 61 201 l 61 0 l 81 0 q 90 15 85 11 q 106 19 94 19 q 140 14 118 19 q 190 1 163 8 q 246 -12 217 -7 q 300 -18 275 -18 q 389 -4 346 -18 q 465 35 432 10 q 517 98 497 61 q 538 181 538 135 q 499 290 538 247 q 385 360 460 333 l 267 400 q 211 426 232 413 q 181 452 190 439 q 168 478 171 465 q 165 500 165 490 q 203 572 165 547 q 288 596 242 596 q 360 583 331 596 q 409 547 389 569 q 444 493 429 524 q 472 429 458 463 l 490 429 l 490 599 l 471 599 q 464 586 468 592 q 444 581 460 581 q 422 586 436 581 q 388 598 407 592 q 347 610 369 604 q 297 615 324 615 q 205 599 247 615 q 133 556 163 583 q 86 493 103 529 q 69 417 69 457 q 82 352 69 379 q 113 306 94 325 q 154 274 132 286 q 196 256 176 263 l 308 214 q 367 187 346 200 q 400 160 389 174 q 415 133 411 146 q 418 107 418 119 q 403 45 418 67 q 369 13 389 24 q 328 1 349 3 q 294 0 307 0 q 213 17 246 0 q 156 63 179 35 q 115 126 132 90 q 81 201 97 163 l 61 201 m 256 979 l 133 735 l 151 735 l 347 943 q 358 964 356 953 q 360 981 360 975 q 342 1012 360 1001 q 314 1022 325 1022 q 274 1008 286 1022 q 256 979 263 994 z "},"":{"ha":900,"x_min":88,"x_max":808,"o":"m 88 308 l 88 0 l 110 0 q 125 26 117 19 q 153 32 133 32 q 195 24 167 32 q 260 6 224 15 q 340 -11 297 -3 q 425 -19 382 -19 q 581 8 511 -19 q 702 81 651 35 q 781 188 753 126 q 808 317 808 249 q 783 433 808 386 q 715 514 757 481 q 620 569 674 547 q 510 608 567 590 q 401 643 454 626 q 306 683 347 660 q 238 738 264 706 q 213 818 213 769 q 228 881 213 850 q 272 936 243 911 q 344 976 301 961 q 442 992 386 992 q 554 968 510 992 q 628 906 599 944 q 676 821 657 868 q 711 725 694 774 l 729 725 l 729 989 l 707 989 q 694 966 700 972 q 668 960 688 960 q 631 968 651 960 q 585 985 611 976 q 524 1003 558 994 q 443 1011 489 1011 q 309 987 371 1011 q 203 923 247 963 q 133 832 158 883 q 108 725 108 781 q 133 600 108 650 q 197 516 157 550 q 289 460 238 482 q 394 423 340 439 q 500 392 449 407 q 592 354 551 376 q 656 299 632 332 q 681 214 681 265 q 669 149 681 186 q 631 79 658 113 q 557 23 604 46 q 436 0 510 0 q 391 1 415 0 q 340 9 367 1 q 283 33 313 17 q 221 82 253 50 q 172 142 192 110 q 138 206 151 175 q 118 265 125 238 q 108 308 111 292 l 88 308 m 407 1332 l 257 1058 l 272 1058 l 457 1235 l 642 1058 l 658 1058 l 508 1332 l 407 1332 z "},"":{"ha":592,"x_min":61,"x_max":538,"o":"m 61 201 l 61 0 l 81 0 q 90 15 85 11 q 106 19 94 19 q 140 14 118 19 q 190 1 163 8 q 246 -12 217 -7 q 300 -18 275 -18 q 389 -4 346 -18 q 465 35 432 10 q 517 98 497 61 q 538 181 538 135 q 499 290 538 247 q 385 360 460 333 l 267 400 q 211 426 232 413 q 181 452 190 439 q 168 478 171 465 q 165 500 165 490 q 203 572 165 547 q 288 596 242 596 q 360 583 331 596 q 409 547 389 569 q 444 493 429 524 q 472 429 458 463 l 490 429 l 490 599 l 471 599 q 464 586 468 592 q 444 581 460 581 q 422 586 436 581 q 388 598 407 592 q 347 610 369 604 q 297 615 324 615 q 205 599 247 615 q 133 556 163 583 q 86 493 103 529 q 69 417 69 457 q 82 352 69 379 q 113 306 94 325 q 154 274 132 286 q 196 256 176 263 l 308 214 q 367 187 346 200 q 400 160 389 174 q 415 133 411 146 q 418 107 418 119 q 403 45 418 67 q 369 13 389 24 q 328 1 349 3 q 294 0 307 0 q 213 17 246 0 q 156 63 179 35 q 115 126 132 90 q 81 201 97 163 l 61 201 m 238 1008 l 88 735 l 103 735 l 288 911 l 472 735 l 489 735 l 339 1008 l 238 1008 z "},"":{"ha":900,"x_min":88,"x_max":808,"o":"m 88 308 l 88 0 l 110 0 q 125 26 117 19 q 153 32 133 32 q 195 24 167 32 q 260 6 224 15 q 340 -11 297 -3 q 425 -19 382 -19 q 581 8 511 -19 q 702 81 651 35 q 781 188 753 126 q 808 317 808 249 q 783 433 808 386 q 715 514 757 481 q 620 569 674 547 q 510 608 567 590 q 401 643 454 626 q 306 683 347 660 q 238 738 264 706 q 213 818 213 769 q 228 881 213 850 q 272 936 243 911 q 344 976 301 961 q 442 992 386 992 q 554 968 510 992 q 628 906 599 944 q 676 821 657 868 q 711 725 694 774 l 729 725 l 729 989 l 707 989 q 694 966 700 972 q 668 960 688 960 q 631 968 651 960 q 585 985 611 976 q 524 1003 558 994 q 443 1011 489 1011 q 309 987 371 1011 q 203 923 247 963 q 133 832 158 883 q 108 725 108 781 q 133 600 108 650 q 197 516 157 550 q 289 460 238 482 q 394 423 340 439 q 500 392 449 407 q 592 354 551 376 q 656 299 632 332 q 681 214 681 265 q 669 149 681 186 q 631 79 658 113 q 557 23 604 46 q 436 0 510 0 q 391 1 415 0 q 340 9 367 1 q 283 33 313 17 q 221 82 253 50 q 172 142 192 110 q 138 206 151 175 q 118 265 125 238 q 108 308 111 292 l 88 308 m 442 0 l 340 -108 l 360 -128 q 411 -114 382 -114 q 441 -123 431 -114 q 457 -145 451 -132 q 463 -175 463 -158 q 464 -206 464 -192 q 461 -240 464 -222 q 451 -272 458 -257 q 432 -295 444 -286 q 399 -304 419 -304 q 356 -297 371 -304 q 318 -274 340 -289 l 306 -290 q 357 -322 333 -311 q 417 -332 381 -332 q 474 -324 446 -332 q 525 -299 503 -315 q 560 -258 547 -282 q 574 -200 574 -233 q 563 -153 574 -175 q 535 -115 553 -131 q 494 -91 517 -100 q 447 -82 472 -82 q 410 -88 429 -82 q 375 -101 390 -94 l 372 -99 l 469 0 l 442 0 z "},"":{"ha":592,"x_min":61,"x_max":538,"o":"m 61 201 l 61 0 l 81 0 q 90 15 85 11 q 106 19 94 19 q 140 14 118 19 q 190 1 163 8 q 246 -12 217 -7 q 300 -18 275 -18 q 389 -4 346 -18 q 465 35 432 10 q 517 98 497 61 q 538 181 538 135 q 499 290 538 247 q 385 360 460 333 l 267 400 q 211 426 232 413 q 181 452 190 439 q 168 478 171 465 q 165 500 165 490 q 203 572 165 547 q 288 596 242 596 q 360 583 331 596 q 409 547 389 569 q 444 493 429 524 q 472 429 458 463 l 490 429 l 490 599 l 471 599 q 464 586 468 592 q 444 581 460 581 q 422 586 436 581 q 388 598 407 592 q 347 610 369 604 q 297 615 324 615 q 205 599 247 615 q 133 556 163 583 q 86 493 103 529 q 69 417 69 457 q 82 352 69 379 q 113 306 94 325 q 154 274 132 286 q 196 256 176 263 l 308 214 q 367 187 346 200 q 400 160 389 174 q 415 133 411 146 q 418 107 418 119 q 403 45 418 67 q 369 13 389 24 q 328 1 349 3 q 294 0 307 0 q 213 17 246 0 q 156 63 179 35 q 115 126 132 90 q 81 201 97 163 l 61 201 m 215 0 l 114 -108 l 133 -128 q 185 -114 156 -114 q 215 -123 204 -114 q 231 -145 225 -132 q 237 -175 236 -158 q 238 -206 238 -192 q 235 -240 238 -222 q 225 -272 232 -257 q 206 -295 218 -286 q 172 -304 193 -304 q 129 -297 144 -304 q 92 -274 114 -289 l 79 -290 q 131 -322 107 -311 q 190 -332 154 -332 q 248 -324 219 -332 q 299 -299 276 -315 q 334 -258 321 -282 q 347 -200 347 -233 q 337 -153 347 -175 q 308 -115 326 -131 q 268 -91 290 -100 q 221 -82 246 -82 q 183 -88 203 -82 q 149 -101 164 -94 l 146 -99 l 243 0 l 215 0 z "},"":{"ha":900,"x_min":88,"x_max":808,"o":"m 500 1058 l 651 1332 l 635 1332 l 450 1156 l 265 1332 l 249 1332 l 399 1058 l 500 1058 m 88 308 l 88 0 l 110 0 q 125 26 117 19 q 153 32 133 32 q 195 24 167 32 q 260 6 224 15 q 340 -11 297 -3 q 425 -19 382 -19 q 581 8 511 -19 q 702 81 651 35 q 781 188 753 126 q 808 317 808 249 q 783 433 808 386 q 715 514 757 481 q 620 569 674 547 q 510 608 567 590 q 401 643 454 626 q 306 683 347 660 q 238 738 264 706 q 213 818 213 769 q 228 881 213 850 q 272 936 243 911 q 344 976 301 961 q 442 992 386 992 q 554 968 510 992 q 628 906 599 944 q 676 821 657 868 q 711 725 694 774 l 729 725 l 729 989 l 707 989 q 694 966 700 972 q 668 960 688 960 q 631 968 651 960 q 585 985 611 976 q 524 1003 558 994 q 443 1011 489 1011 q 309 987 371 1011 q 203 923 247 963 q 133 832 158 883 q 108 725 108 781 q 133 600 108 650 q 197 516 157 550 q 289 460 238 482 q 394 423 340 439 q 500 392 449 407 q 592 354 551 376 q 656 299 632 332 q 681 214 681 265 q 669 149 681 186 q 631 79 658 113 q 557 23 604 46 q 436 0 510 0 q 391 1 415 0 q 340 9 367 1 q 283 33 313 17 q 221 82 253 50 q 172 142 192 110 q 138 206 151 175 q 118 265 125 238 q 108 308 111 292 l 88 308 z "}}}
